<?xml version="1.0" encoding="utf-8"?>
<!-- Generator: Adobe Illustrator 16.0.0, SVG Export Plug-In . SVG Version: 6.00 Build 0)  -->
<!DOCTYPE svg PUBLIC "-//W3C//DTD SVG 1.1//EN" "http://www.w3.org/Graphics/SVG/1.1/DTD/svg11.dtd">
<svg version="1.1" id="Ebene_1" xmlns="http://www.w3.org/2000/svg" xmlns:xlink="http://www.w3.org/1999/xlink" x="0px" y="0px"
	 width="363px" height="433px" viewBox="238.445 81.14 363 433" enable-background="new 238.445 81.14 363 433"
	 xml:space="preserve">
<g>
	<path fill="#1D1D1B" d="M385.832,480.425c38.066,0,68.914-30.847,68.914-68.913s-30.848-68.257-68.914-68.257
		s-68.257,30.847-68.257,68.257S348.422,480.425,385.832,480.425z M385.832,356.381c30.847,0,55.787,24.94,55.787,55.787
		s-24.94,55.787-55.787,55.787s-55.787-24.94-55.787-55.787S355.641,356.381,385.832,356.381z"/>
	<path fill="#1D1D1B" d="M411.428,436.452c6.563,0,12.47-2.626,17.721-7.22l-9.188-9.188c-4.595,4.594-12.471,4.594-16.408,0
		c-1.969-1.969-3.281-5.251-3.281-8.532s1.313-5.907,3.281-8.532c4.594-4.594,12.47-4.594,16.408,0l9.188-9.188
		c-9.845-9.845-25.597-9.845-35.441,0s-9.845,25.597,0,35.441C398.958,434.482,404.865,436.452,411.428,436.452z"/>
	<path fill="#1D1D1B" d="M366.142,436.452c6.563,0,13.126-2.626,17.721-7.22l-9.845-9.188c-4.595,4.594-12.471,4.594-16.408,0
		c-4.594-4.595-4.594-11.813,0-16.408c4.595-4.594,12.47-4.594,16.408,0l9.188-9.188c-9.188-9.188-25.597-9.188-35.441,0
		c-9.845,9.845-9.845,25.597,0,35.441C353.016,433.826,359.579,436.452,366.142,436.452z"/>
	<path fill="#1D1D1B" d="M590.603,245.463h-40.691v13.127h24.939l-57.1,57.1H267.038l31.504-31.504l-9.188-9.188l-42.661,42.661
		c-1.313,1.313-1.969,2.625-1.969,4.595v179.175c0,3.938,2.625,6.563,6.563,6.563h269.09c1.97,0,3.282-0.656,4.595-1.969
		l70.226-70.226c1.313-1.313,1.97-2.626,1.97-4.595V252.026C597.167,248.745,593.885,245.463,590.603,245.463z M513.814,494.864
		H257.85V328.815h255.964V494.864z M526.94,485.676V324.878l57.1-57.1V427.92L526.94,485.676z"/>
	<path fill="#1D1D1B" d="M353.673,229.712c-1.97-1.313-4.595-1.313-6.563,0c-1.969,1.313-3.281,3.281-3.281,5.906v47.255
		c0,2.626,1.313,4.595,3.281,5.907c1.313,0.656,1.969,0.656,3.281,0.656s1.97,0,3.282-0.656l41.348-23.628
		c1.969-1.313,3.281-3.281,3.281-5.906c0-2.626-1.313-4.595-3.281-5.907L353.673,229.712z M356.954,271.059v-24.94l21.658,12.471
		L356.954,271.059z"/>
	<path fill="#1D1D1B" d="M324.795,208.709h83.352v87.947h13.127V183.113h95.822v96.479h13.127V176.55
		c0-3.938-2.626-6.563-6.563-6.563h-42.005v-74.82c0-3.938-2.625-6.563-6.563-6.563H366.142c-3.938,0-6.563,2.625-6.563,6.563
		v100.417h-42.004c-3.938,0-6.563,2.625-6.563,6.563v94.51h13.127v-87.947H324.795z M469.184,101.729v27.565L452.12,112.23
		c-2.625-2.625-6.563-2.625-9.188,0l-30.847,31.503L395.02,126.67c-2.625-2.626-6.563-2.626-9.188,0l-13.126,12.47v-37.41H469.184z
		 M372.706,157.516l17.063-17.721l17.064,17.064c2.626,2.625,6.563,2.625,9.188,0l30.848-30.847l21.658,21.658v22.314h-54.475
		c-3.938,0-6.563,2.626-6.563,6.563v19.033h-34.784V157.516z"/>
	<path fill="#1D1D1B" d="M475.748,199.52c-3.938,0-6.563,2.626-6.563,6.563v33.473c-2.625-0.656-4.594-1.313-7.22-1.313
		c-11.157,0-20.346,9.188-20.346,20.347c0,11.157,9.188,20.346,20.346,20.346c11.158,0,20.346-9.188,20.346-20.346v-34.129
		c3.938,1.969,8.532,2.625,15.096,2.625V213.96c-13.782,0-14.438-7.22-15.096-8.532C482.31,202.802,479.685,199.52,475.748,199.52z
		 M461.965,266.465c-3.938,0-7.219-3.281-7.219-7.219c0-3.938,3.281-7.22,7.219-7.22c3.938,0,7.22,3.281,7.22,7.22
		C469.184,263.183,465.903,266.465,461.965,266.465z"/>
</g>
</svg>
