<svg version="1.1" id="Layer_1" xmlns="http://www.w3.org/2000/svg" xmlns:xlink="http://www.w3.org/1999/xlink" x="0px" y="0px"
	 viewBox="0 0 511.984 511.984" style="enable-background:new 0 0 511.984 511.984;" xml:space="preserve">
<g>
	<path style="fill:#414752;" d="M136,314.848l-43.52-75.232H34.464C15.456,239.616,0,223.936,0,204.672V68.192
		C0,48.944,15.456,33.28,34.464,33.28h203.072C256.544,33.28,272,48.944,272,68.208v136.48c0,19.264-15.456,34.928-34.464,34.928
		H179.52L136,314.848z M34.464,65.28c-1.312,0-2.464,1.36-2.464,2.928v136.48c0,1.568,1.152,2.928,2.464,2.928h76.464L136,250.944
		l25.072-43.328h76.464c1.312,0,2.464-1.36,2.464-2.928V68.208c0-1.568-1.152-2.928-2.464-2.928L34.464,65.28L34.464,65.28z"/>
	<path style="fill:#414752;" d="M376,478.704l-43.536-75.248h-58c-19.008,0-34.464-15.664-34.464-34.928v-136.48
		c0-19.264,15.456-34.928,34.464-34.928H477.52c19.008,0,34.464,15.664,34.464,34.928v136.48c0,19.248-15.472,34.928-34.464,34.928
		h-58L376,478.704z M274.464,229.12c-1.312,0-2.464,1.36-2.464,2.928v136.48c0,1.568,1.152,2.928,2.464,2.928h76.464l25.056,43.344
		l25.056-43.344h76.464c1.312,0,2.464-1.36,2.464-2.928v-136.48c0-1.728-1.296-2.928-2.464-2.928L274.464,229.12L274.464,229.12z"/>
</g>
<g>
	<rect x="68.256" y="104.032" style="fill:#3B95D1;" width="135.488" height="32"/>
	<rect x="308.272" y="266.896" style="fill:#3B95D1;" width="135.472" height="32"/>
</g>
</svg>