<svg version="1.1" id="Layer_1" xmlns="http://www.w3.org/2000/svg" xmlns:xlink="http://www.w3.org/1999/xlink" x="0px" y="0px"
	 viewBox="0 0 512 512" style="enable-background:new 0 0 512 512;" xml:space="preserve">
<rect x="31.347" y="325.381" style="fill:#FF7956;" width="159.525" height="121.208"/>
<rect x="326.781" y="325.381" style="fill:#52A2E7;" width="159.525" height="121.208"/>
<g>
	<path style="fill:#FFE477;" d="M87.211,203.513c-21.855,57.613-37.884,101.776-37.884,101.776l46.398-1.497
		c0,0,16.565-59.004,43.823-143.541c6.815-21.134,13.629-42.268,20.017-62.082c0.798-2.476,1.59-4.933,2.375-7.365l0.073-0.228
		l0.037-0.114c-0.049,0.132,0.163-0.455-0.101,0.265l0.159-0.451l0.318-0.901l0.317-0.899l0.154-0.428l0.108-0.251
		c0.142-0.335,0.278-0.672,0.408-1.013c0.112-0.325,0.366-0.79,0.536-1.18c1.497-3.274,3.509-6.205,5.767-8.819
		c2.3-2.576,4.883-4.814,7.638-6.617c2.763-1.789,5.654-3.21,8.559-4.205c5.824-1.984,11.572-2.392,16.529-1.79
		c2.485,0.295,4.784,0.828,6.875,1.473c1.035,0.355,2.038,0.683,2.965,1.091c0.235,0.094,0.467,0.187,0.697,0.279l0.086,0.034
		c-0.019-0.01,0.102,0.047-0.031-0.019l0.055,0.025l0.222,0.101l0.439,0.2c0.471,0.222,0.931,0.437,1.379,0.647
		c3.681,1.786,6.487,3.542,8.377,4.784c1.89,1.249,2.873,1.979,2.873,1.979c5.14,3.803,12.443,2.987,16.574-1.994
		c4.278-5.158,3.564-12.807-1.593-17.084l-0.224-0.186c0,0-1.194-0.991-3.557-2.74c-2.369-1.739-5.916-4.248-10.841-6.973
		c-0.634-0.34-1.286-0.689-1.954-1.046l-0.428-0.223l-0.216-0.113l-0.334-0.163c-0.369-0.176-0.742-0.352-1.119-0.532
		c-1.498-0.742-3.123-1.404-4.827-2.079c-3.431-1.285-7.268-2.404-11.47-3.141c-8.382-1.493-18.266-1.368-28.405,1.482
		c-5.059,1.425-10.149,3.556-15.08,6.385c-4.921,2.842-9.642,6.456-13.934,10.772c-4.249,4.35-8.1,9.39-11.122,15.063
		c-0.382,0.734-0.755,1.359-1.14,2.191c-0.377,0.813-0.754,1.628-1.134,2.445l-0.278,0.616l-0.19,0.457l-0.364,0.881l-0.365,0.883
		l-0.183,0.442l-0.31,0.827c-0.91,2.389-1.83,4.8-2.756,7.232c-7.416,19.453-15.326,40.201-23.234,60.951L87.211,203.513z"/>
	<path style="fill:#FFE477;" d="M464.147,303.79c0,0-26.927-71.673-58.565-154.669c-7.91-20.75-15.82-41.498-23.234-60.951
		c-0.927-2.431-1.846-4.843-2.756-7.232l-0.31-0.827l-0.183-0.442l-0.365-0.883l-0.364-0.881l-0.191-0.458l-0.278-0.616
		c-0.378-0.817-0.757-1.632-1.134-2.445c-0.386-0.832-0.758-1.458-1.14-2.191c-3.022-5.673-6.873-10.713-11.122-15.063
		c-4.291-4.315-9.013-7.929-13.934-10.772c-4.931-2.83-10.021-4.96-15.08-6.385c-10.138-2.849-20.021-2.975-28.404-1.482
		c-4.2,0.737-8.037,1.857-11.47,3.141c-1.704,0.674-3.329,1.336-4.827,2.079c-0.377,0.18-0.75,0.356-1.119,0.532l-0.334,0.163
		l-0.216,0.113l-0.428,0.223c-0.668,0.357-1.32,0.706-1.954,1.046c-4.925,2.726-8.472,5.234-10.841,6.973
		c-2.362,1.749-3.557,2.74-3.557,2.74l-0.224,0.186c-5.158,4.278-5.871,11.926-1.593,17.084c4.132,4.982,11.435,5.797,16.575,1.994
		c0,0,0.983-0.731,2.873-1.979c1.89-1.241,4.696-2.998,8.377-4.784c0.448-0.21,0.908-0.425,1.379-0.647l0.439-0.2l0.222-0.101
		l0.055-0.025c-0.134,0.065-0.013,0.008-0.031,0.019l0.086-0.034c0.23-0.092,0.462-0.185,0.697-0.279
		c0.928-0.408,1.93-0.736,2.965-1.091c2.092-0.646,4.39-1.179,6.875-1.473c4.956-0.601,10.705-0.193,16.529,1.79
		c2.905,0.996,5.796,2.416,8.559,4.205c2.755,1.802,5.337,4.041,7.638,6.617c2.258,2.613,4.269,5.545,5.766,8.819
		c0.17,0.39,0.424,0.855,0.536,1.18c0.13,0.341,0.264,0.678,0.408,1.013l0.108,0.251l0.154,0.428l0.317,0.899l0.318,0.901
		l0.159,0.451c-0.264-0.72-0.052-0.134-0.101-0.265l0.037,0.114l0.073,0.228c0.785,2.433,1.577,4.889,2.375,7.365
		c6.389,19.813,13.203,40.947,20.017,62.082c27.258,84.536,43.823,143.541,43.823,143.541"/>
	<path style="fill:#FFE477;" d="M455.111,303.79h-42.645h-55.204H231.448h-60.713h-31.762h-4.879H56.888
		C25.6,303.79,0,333.384,0,360.68v56.881c0,31.289,25.6,56.889,56.888,56.889h97.849c31.288,0,56.888-25.6,56.888-56.889
		c0-18.368,14.891-33.259,33.259-33.259h22.228c18.368,0,33.259,14.891,33.259,33.259c0,31.289,25.6,56.889,56.889,56.889h97.848
		c31.289,0,56.889-25.6,56.889-56.889V360.68C512,329.39,486.4,303.79,455.111,303.79z M176.062,359.455l-1.754,47.458
		c0,19.576-16.016,35.592-35.592,35.592H77.498c-19.575,0-35.592-16.016-35.592-35.592v-35.587
		c0-19.576,16.016-35.592,35.592-35.592h61.218h14.486C166.168,335.734,176.542,346.498,176.062,359.455z M473.564,406.913
		c0,19.576-16.016,35.592-35.592,35.592h-61.218c-19.576,0-35.592-16.016-35.592-35.592l0,0l-1.754-47.458
		c-0.479-12.957,9.895-23.72,22.86-23.72h14.486h12.915h48.304c19.575,0,35.592,16.016,35.592,35.592V406.913z"/>
</g>
<g style="opacity:0.62;">
	<path style="fill:#EEBF00;" d="M49.328,305.289l46.398-1.497c0,0,2.498-8.899,7.149-24.73H58.946
		C52.891,295.472,49.328,305.289,49.328,305.289z"/>
</g>
<g style="opacity:0.62;">
	<path style="fill:#EEBF00;" d="M464.147,305.289l-46.398-1.497c0,0-2.498-8.899-7.149-24.73h43.929
		C460.584,295.472,464.147,305.289,464.147,305.289z"/>
</g>
</svg>