<svg version="1.1" id="Layer_1" xmlns="http://www.w3.org/2000/svg" xmlns:xlink="http://www.w3.org/1999/xlink" x="0px" y="0px"
	 viewBox="0 0 512 512" style="enable-background:new 0 0 512 512;" xml:space="preserve">
<path style="fill:#F75252;" d="M346.875,218.019c0,0,26.237,18.449,15.355,44.879c-7.848,19.059-29.387,23.733-29.387,23.733h-153.9
	c0,0-21.54-4.674-29.387-23.733c-10.882-26.43,15.355-44.879,15.355-44.879"/>
<path style="fill:#BA8E35;" d="M352.976,377.853l5.561-7.063c3.543-4.496,5.314-9.922,5.314-15.348c0-5.404-1.76-10.807-5.28-15.303
	c-2.567-3.274-3.834-7.186-3.834-11.099c0-4.518,1.693-9.014,5.034-12.478c5.538-5.729,6.637-14.417,2.713-21.346l-10.337-18.251
	H159.859l-10.337,18.251c-3.924,6.928-2.825,15.617,2.713,21.346c3.341,3.464,5.034,7.96,5.034,12.478
	c0,3.913-1.267,7.825-3.834,11.099c-3.52,4.496-5.28,9.899-5.28,15.303c0,5.426,1.771,10.852,5.314,15.348l5.561,7.063"/>
<polyline style="fill:#EADAA9;" points="205.275,364.448 168.561,437.918 224.616,472.672 256.002,458.112 332.241,468.188 
	320.354,367.773 "/>
<g>
	<path style="fill:#F4C653;" d="M297.482,322.46l9.113,41.988l0,0c-32.125,14.711-69.063,14.711-101.188,0l0,0l9.113-41.988"/>
	<path style="fill:#F4C653;" d="M313.785,504.711c25.412-71.75-7.056-140.262-7.056-140.262l13.625,3.325
		c41.429,10.11,80.054,29.409,113.016,56.466l0,0c0,0-27.654,39.363-23.17,80.47H101.805c4.484-41.107-23.17-80.47-23.17-80.47l0,0
		c32.961-27.058,71.587-46.356,113.016-56.466l13.625-3.325c0,0-32.468,68.511-7.056,140.262"/>
</g>
<path style="fill:#EADAA9;" d="M333.414,175.553c9.103,15.942,14.384,34.889,14.384,55.225c0,56.75-41.099,102.749-91.796,102.749
	s-91.796-45.999-91.796-102.749c0-20.337,5.28-39.283,14.384-55.225v1.72l39.522-12.691l37.891,11.257l37.891-11.257
	L333.414,175.553z"/>
<circle cx="214.075" cy="218.301" r="9.842"/>
<circle cx="297.933" cy="218.301" r="9.842"/>
<path style="fill:#F75252;" d="M391.659,146.13c0,30.763-18.453,57.221-44.878,68.869l-0.056,0.011
	c-1.222-8.924-3.475-17.455-6.614-25.46l0.045-0.022c15.314-8.408,25.718-24.709,25.718-43.398c0-27.265-22.13-49.44-49.328-49.44
	c-6.973,0-13.61,1.457-19.63,4.092l-0.011,0.022c-11.872-7.41-25.886-11.682-40.898-11.682h30.673
	c8.453,0,15.314-6.85,15.314-15.314c0-0.493-0.022-0.987-0.078-1.469l0.056-0.011c4.709-0.931,9.585-1.424,14.574-1.424
	C358.026,70.904,391.659,104.582,391.659,146.13z"/>
<path style="fill:#BA8E35;" d="M333.418,175.547v1.726l-38.667-13.038l-38.7,13.038l-38.734-13.038l-38.723,13.038v-1.726v-9.002
	c0-21.379,8.666-40.741,22.669-54.743c4.182-4.182,8.834-7.881,13.879-11.02h0.011c11.861-7.399,25.853-11.659,40.853-11.659
	c15.012,0,29.025,4.271,40.898,11.682c21.929,13.666,36.514,38.005,36.514,65.741V175.547z"/>
<g>
	<path style="fill:#F4C653;" d="M210.086,72.328c0.471-4.866,3.24-9.238,7.511-11.738l38.409-22.478l38.409,22.478
		c2.354,1.379,4.238,3.318,5.549,5.594c1.076,1.872,1.749,3.969,1.951,6.155c0.056,0.482,0.078,0.975,0.078,1.469
		c0,8.464-6.861,15.314-15.314,15.314h-30.673h-30.673c-4.238,0-8.061-1.715-10.841-4.484c-2.769-2.769-4.484-6.592-4.484-10.83
		C210.008,73.314,210.03,72.821,210.086,72.328z"/>
	<path style="fill:#F4C653;" d="M282.576,24.255c0.785,1.379,1.222,2.96,1.222,4.608c0,5.112-4.137,9.249-9.26,9.249h-18.532
		h-18.543c-2.556,0-4.866-1.031-6.547-2.713c-1.682-1.67-2.713-3.98-2.713-6.536c0-3.296,1.749-6.334,4.585-7.993l23.218-13.588
		l23.207,13.588C280.637,21.699,281.78,22.876,282.576,24.255z"/>
</g>
<path style="fill:#F75252;" d="M225.333,89.122h30.673c-15,0-28.992,4.26-40.853,11.659h-0.011
	c-6.02-2.635-12.646-4.092-19.619-4.092c-27.198,0-49.328,22.175-49.328,49.44c0,18.689,10.404,34.989,25.718,43.398
	c-3.139,8.005-5.392,16.547-6.626,25.471c-26.424-11.648-44.878-38.106-44.878-68.869c0-41.548,33.633-75.226,75.114-75.226
	c4.989,0,9.854,0.493,14.563,1.424c-0.056,0.493-0.078,0.987-0.078,1.48c0,4.238,1.715,8.061,4.484,10.83
	C217.272,87.407,221.095,89.122,225.333,89.122z"/>
<circle cx="256.004" cy="198.468" r="7.537"/>
<path style="fill:#F75252;" d="M313.783,504.714H198.209c-11.637-32.859-11.133-65.046-7.164-90.271
	c5.348,2.074,10.74,3.879,16.211,5.415c20.191,5.695,37.49,18.778,47.983,36.951l0.751,1.3l0.762-1.3
	c10.493-18.173,27.792-31.256,47.983-36.951c5.471-1.536,10.875-3.341,16.211-5.415C324.917,439.668,325.42,471.854,313.783,504.714
	z"/>
<circle style="fill:#F4C653;" cx="256.004" cy="492.185" r="12.52"/>
<path d="M235.871,224.999c1.423,1.423,3.288,2.135,5.153,2.135s3.73-0.712,5.153-2.135c2.846-2.846,2.846-7.46,0-10.305
	c-17.704-17.704-46.509-17.703-64.212,0c-2.846,2.845-2.846,7.46,0,10.305c2.845,2.846,7.46,2.846,10.305,0
	c3.487-3.487,7.608-5.954,11.995-7.418c-0.018,0.239-0.037,0.478-0.037,0.721c0,5.436,4.407,9.842,9.842,9.842
	c5.436,0,9.842-4.407,9.842-9.842c0-0.243-0.019-0.482-0.036-0.721C228.264,219.045,232.385,221.514,235.871,224.999z"/>
<path d="M319.731,224.999c1.423,1.423,3.288,2.135,5.153,2.135s3.73-0.712,5.153-2.135c2.846-2.846,2.846-7.46,0-10.305
	c-17.703-17.703-46.509-17.704-64.212,0c-2.846,2.846-2.846,7.46,0,10.305c2.845,2.845,7.46,2.845,10.305,0
	c3.487-3.487,7.608-5.954,11.995-7.418c-0.018,0.239-0.037,0.478-0.037,0.721c0,5.436,4.407,9.842,9.842,9.842
	c5.436,0,9.842-4.407,9.842-9.842c0-0.243-0.019-0.482-0.037-0.721C312.123,219.045,316.244,221.512,319.731,224.999z"/>
<circle cx="256.004" cy="198.468" r="7.537"/>
<path d="M273.207,274.971l-7.56-2.242c-1.352-0.401-2.79-0.401-4.142,0l-5.497,1.629l-5.502-1.629c-1.351-0.399-2.787-0.399-4.138,0
	l-7.572,2.242c-3.859,1.142-6.061,5.197-4.918,9.056c0.938,3.168,3.84,5.22,6.983,5.22c0.685,0,1.382-0.096,2.073-0.302l5.502-1.63
	l5.502,1.63c1.352,0.4,2.789,0.4,4.139,0l5.495-1.628l5.489,1.628c3.858,1.146,7.915-1.055,9.058-4.914
	C279.266,280.171,277.066,276.114,273.207,274.971z"/>
<path d="M261.493,290.442l-5.495,1.628l-5.489-1.628c-3.854-1.143-7.914,1.055-9.058,4.914c-1.145,3.858,1.055,7.914,4.914,9.058
	l7.56,2.242c0.676,0.201,1.374,0.302,2.072,0.302c0.697,0,1.395-0.1,2.071-0.3l7.566-2.242c3.859-1.143,6.06-5.199,4.916-9.057
	C269.406,291.499,265.352,289.299,261.493,290.442z"/>
<path d="M241.931,254.939c0,4.025,3.262,7.287,7.287,7.287h13.564c4.025,0,7.287-3.262,7.287-7.287c0-4.025-3.262-7.287-7.287-7.287
	h-13.564C245.194,247.652,241.931,250.914,241.931,254.939z"/>
<path d="M437.99,418.608c-22.049-18.1-46.899-32.92-73.305-43.9c4.153-5.528,6.451-12.332,6.451-19.266
	c0-7.14-2.426-14.171-6.833-19.8c-1.493-1.904-2.281-4.186-2.281-6.602c0-2.784,1.063-5.418,2.987-7.413
	c7.725-7.991,9.294-20.328,3.814-30.002l-7.684-13.568c3.067-3.401,5.812-7.49,7.827-12.386
	c8.413-20.431-1.565-38.055-11.356-47.998c25.368-14.606,41.338-41.808,41.338-71.538c0-45.498-36.965-82.513-82.401-82.513
	c-3.151,0-6.306,0.204-9.44,0.564c-1.919-4.067-5.027-7.554-9.017-9.888l0,0l-17.308-10.125c6.036-2.47,10.303-8.398,10.303-15.313
	c0-5.853-3.138-11.326-8.191-14.282l0,0L259.68,0.998c-2.272-1.331-5.086-1.331-7.359,0l-23.215,13.581
	c-5.053,2.955-8.191,8.428-8.191,14.282c0,6.914,4.267,12.843,10.303,15.313l-17.308,10.125c-3.987,2.333-7.093,5.816-9.014,9.881
	c-3.114-0.355-6.249-0.557-9.381-0.557c-45.436,0-82.401,37.015-82.401,82.513c0,29.66,15.892,56.806,41.154,71.436
	c-9.823,9.924-19.899,27.598-11.458,48.101c2.046,4.969,4.844,9.101,7.967,12.533l-7.6,13.421c-5.479,9.673-3.91,22.01,3.807,29.994
	c1.931,2.001,2.992,4.637,2.992,7.421c0,2.416-0.789,4.699-2.285,6.607c-4.405,5.626-6.83,12.655-6.83,19.795
	c0,6.935,2.298,13.739,6.45,19.266c-26.407,10.981-51.258,25.801-73.305,43.9c-2.943,2.416-3.526,6.695-1.344,9.815
	c0.261,0.373,26.016,37.7,21.893,75.497c-0.437,4.001,2.453,7.598,6.453,8.035c4.007,0.437,7.599-2.453,8.035-6.453
	c3.742-34.307-13.011-66.776-20.75-79.665c6.614-5.172,13.487-10.022,20.558-14.574c7.298,13.544,23.238,48.212,23.781,93.535
	c0.047,3.994,3.301,7.2,7.285,7.2c0.029,0,0.059,0,0.089,0c4.025-0.048,7.248-3.35,7.2-7.373
	c-0.59-49.323-17.895-86.433-25.86-100.95c22.52-12.884,46.842-22.669,71.977-28.808c-8.378,24.089-21.591,76.893-1.975,132.277
	c1.058,2.99,3.869,4.857,6.869,4.857c0.807,0,1.629-0.136,2.433-0.42c3.794-1.343,5.78-5.508,4.436-9.302
	c-9.814-27.71-10.544-55.118-7.95-77.905c2.703,0.897,5.425,1.735,8.15,2.503c18.685,5.264,34.186,17.186,43.648,33.572l0.756,1.308
	c1.302,2.255,3.707,3.644,6.311,3.642c2.603-0.001,5.009-1.39,6.31-3.645l0.754-1.307c9.461-16.385,24.962-28.308,43.647-33.571
	c2.725-0.768,5.447-1.607,8.15-2.503c2.595,22.789,1.864,50.195-7.949,77.905c-1.344,3.794,0.642,7.959,4.436,9.302
	c0.804,0.285,1.626,0.42,2.433,0.42c3,0,5.811-1.868,6.869-4.857c19.616-55.385,6.401-108.188-1.975-132.277
	c25.136,6.139,49.458,15.924,71.977,28.808c-7.965,14.517-25.27,51.628-25.86,100.95c-0.048,4.024,3.175,7.325,7.2,7.373
	c0.029,0,0.059,0,0.089,0c3.984,0,7.238-3.205,7.285-7.2c0.54-45.158,16.494-79.937,23.792-93.529
	c7.066,4.551,13.935,9.398,20.545,14.566c-7.739,12.888-24.494,45.358-20.75,79.665c0.436,4,4.023,6.89,8.035,6.453
	c4-0.436,6.89-4.034,6.453-8.035c-4.123-37.796,21.632-75.124,21.888-75.49C441.521,425.309,440.937,421.028,437.99,418.608z
	 M330.74,331.19c0,0.515-0.419,0.934-0.934,0.934c-0.515,0-0.934-0.419-0.934-0.934c0-0.515,0.419-0.934,0.934-0.934
	C330.32,330.256,330.74,330.674,330.74,331.19z M298.197,360.116c-27.113,10.786-57.281,10.785-84.394,0l5.853-26.968
	c11.258,4.946,23.52,7.666,36.343,7.666s25.086-2.72,36.344-7.667L298.197,360.116z M256,326.24
	c-46.597,0-84.508-42.824-84.508-95.462c0-16.634,3.812-32.819,11.039-47.143l34.785-11.705l36.403,12.25
	c1.509,0.507,3.141,0.508,4.649,0l36.375-12.249l34.724,11.703c7.229,14.324,11.041,30.512,11.041,47.146
	C340.508,283.416,302.598,326.24,256,326.24z M183.128,331.19c0,0.515-0.419,0.934-0.934,0.934c-0.515,0-0.934-0.419-0.934-0.934
	c0-0.515,0.419-0.934,0.934-0.934C182.709,330.256,183.128,330.674,183.128,331.19z M153.475,146.135
	c0-23.244,18.859-42.153,42.041-42.153c1.108,0,2.205,0.056,3.298,0.141c-16.898,15.495-27.513,37.737-27.513,62.416v7.147
	c-0.886,1.618-1.746,3.25-2.552,4.91C159.183,170.658,153.475,158.815,153.475,146.135z M225.325,81.84
	c-4.428,0-8.03-3.602-8.03-8.03c0-0.574,0.077-1.136,0.197-1.685h77.016c0.119,0.55,0.197,1.112,0.197,1.685
	c0,4.428-3.602,8.03-8.03,8.03H225.325z M343.268,178.633c-0.812-1.672-1.677-3.315-2.568-4.943v-7.149
	c0-24.678-10.613-46.918-27.508-62.413c1.111-0.087,2.229-0.146,3.355-0.146c23.182,0,42.041,18.91,42.041,42.153
	C358.588,158.834,352.861,170.693,343.268,178.633z M312.836,143.74c-4.025,0-7.287,3.262-7.287,7.287v9.165l-4.37-1.473v-16.892
	c0-4.025-3.262-7.287-7.287-7.287c-4.025,0-7.287,3.262-7.287,7.287v17.466l-4.371,1.472v-25.231c0-4.025-3.262-7.287-7.287-7.287
	s-7.287,3.262-7.287,7.287v30.14l-4.371,1.472v-38.874c0-4.025-3.262-7.287-7.287-7.287c-4.025,0-7.287,3.262-7.287,7.287v38.847
	l-4.371-1.471v-30.114c0-4.025-3.262-7.287-7.287-7.287s-7.287,3.262-7.287,7.287v25.209l-4.371-1.471v-17.444
	c0-4.025-3.262-7.287-7.287-7.287c-4.025,0-7.287,3.262-7.287,7.287v16.91l-4.37,1.471v-9.181c0-4.025-3.262-7.287-7.287-7.287
	s-7.287,3.262-7.287,7.287v14.085l-6.002,2.02v-0.592c0-12.916,3.525-25.018,9.641-35.422c17.777-8.496,38.632-12.989,60.483-12.989
	s42.706,4.494,60.484,12.99c6.117,10.404,9.641,22.506,9.641,35.422v0.586l-6.002-2.024v-14.078
	C320.123,147.002,316.861,143.74,312.836,143.74z M256.001,96.415c14.278,0,27.567,4.299,38.658,11.657
	c-12.322-2.973-25.336-4.518-38.658-4.518c-13.322,0-26.335,1.545-38.657,4.518C228.435,100.714,241.722,96.415,256.001,96.415z
	 M237.214,57.551l18.786-10.99l18.786,10.99H237.214z M354.832,238.551c2.798,5.893,4.075,13.268,0.657,21.572
	c-1.672,4.06-4.173,7.325-6.94,9.942C351.969,260.163,354.136,249.58,354.832,238.551z M384.373,146.135
	c0,23.78-12.408,45.591-32.26,57.843c-0.868-3.848-1.922-7.638-3.159-11.358c15.068-10.563,24.207-27.858,24.207-46.486
	c0-31.28-25.397-56.728-56.615-56.728c-5.566,0-11.005,0.815-16.247,2.398c4.207-3.194,7.27-7.81,8.443-13.14
	c2.591-0.299,5.199-0.469,7.805-0.469C353.947,78.197,384.373,108.674,384.373,146.135z M236.466,27.159l19.535-11.428
	l19.535,11.428l0,0c0.601,0.352,0.975,1.005,0.975,1.702c0,1.086-0.885,1.971-1.971,1.971h-37.079c-1.086,0-1.971-0.885-1.971-1.971
	C235.49,28.162,235.863,27.511,236.466,27.159z M127.69,146.135c0-37.462,30.427-67.939,67.826-67.939
	c2.584,0,5.172,0.166,7.741,0.461c1.167,5.317,4.215,9.925,8.405,13.119c-5.212-1.563-10.616-2.368-16.146-2.368
	c-31.218,0-56.615,25.448-56.615,56.728c0,18.607,9.12,35.884,24.156,46.449c-1.239,3.72-2.296,7.511-3.165,11.36
	C140.075,191.686,127.69,169.894,127.69,146.135z M157.144,238.145c0.675,11.291,2.889,22.119,6.413,32.232
	c-2.898-2.667-5.53-6.034-7.268-10.254C152.791,251.627,154.211,244.104,157.144,238.145z M189.92,360.695
	c-9.6,2.343-19.081,5.213-28.409,8.535l-2.323-2.95c-2.418-3.068-3.75-6.917-3.75-10.838c0-3.955,1.29-7.693,3.728-10.806
	c3.474-4.429,5.388-9.969,5.388-15.596c0-6.577-2.512-12.805-7.082-17.543c-3.267-3.379-3.929-8.597-1.612-12.689l6.415-11.328
	c4.748,2.822,9.149,4.498,11.972,5.396c0.217,0.353,0.437,0.705,0.659,1.055v25.747c-3.812,2.422-6.353,6.671-6.353,11.51
	c0,7.52,6.119,13.64,13.64,13.64c7.52,0,13.64-6.119,13.64-13.64c0-4.84-2.542-9.089-6.353-11.51v-7.417
	c5.146,5.185,10.785,9.776,16.825,13.681l-7.047,32.471L189.92,360.695z M302.761,412.848c-19.031,5.361-35.319,16.525-46.76,31.872
	c-11.442-15.346-27.73-26.509-46.761-31.872c-3.322-0.936-6.634-1.991-9.908-3.131c2.978-16.041,7.196-28.641,9.898-35.745
	c15.047,5.869,30.906,8.807,46.771,8.807c15.86-0.001,31.725-2.94,46.771-8.807c2.703,7.106,6.922,19.706,9.898,35.745
	C309.393,410.857,306.081,411.913,302.761,412.848z M312.742,358.415l-7.048-32.473c6.04-3.905,11.68-8.496,16.824-13.681v7.417
	c-3.811,2.422-6.353,6.671-6.353,11.51c0,7.52,6.119,13.64,13.64,13.64s13.64-6.119,13.64-13.64c0-4.84-2.542-9.089-6.353-11.51
	v-25.748c0.24-0.379,0.478-0.76,0.714-1.142c2.864-0.929,7.205-2.616,11.862-5.406l6.471,11.425
	c2.317,4.092,1.655,9.311-1.618,12.696c-4.563,4.731-7.075,10.959-7.075,17.536c0,5.628,1.914,11.166,5.385,15.591
	c2.441,3.117,3.731,6.855,3.731,10.811c0,3.919-1.332,7.768-3.753,10.84l-2.32,2.946c-9.328-3.322-18.809-6.192-28.409-8.535
	L312.742,358.415z"/>
<path d="M256,472.382c-10.922,0-19.808,8.886-19.808,19.808c0,10.922,8.886,19.808,19.808,19.808
	c10.922,0,19.808-8.886,19.808-19.808C275.807,481.268,266.921,472.382,256,472.382z M256,497.424c-2.886,0-5.233-2.348-5.233-5.233
	c0-2.886,2.348-5.233,5.233-5.233c2.886,0,5.233,2.348,5.233,5.233C261.233,495.075,258.885,497.424,256,497.424z"/>
</svg>