<svg width="4" height="16" fill="none" xmlns="http://www.w3.org/2000/svg"><mask id="burger_svg__a" fill="#fff"><path fill-rule="evenodd" clip-rule="evenodd" d="M3.44 2.24a1.44 1.44 0 1 1-2.88 0 1.44 1.44 0 0 1 2.88 0Zm0 5.76A1.44 1.44 0 1 1 .56 8a1.44 1.44 0 0 1 2.88 0ZM2 15.2a1.44 1.44 0 1 0 0-2.88 1.44 1.44 0 0 0 0 2.88Z"></path></mask><path fill-rule="evenodd" clip-rule="evenodd" d="M3.44 2.24a1.44 1.44 0 1 1-2.88 0 1.44 1.44 0 0 1 2.88 0Zm0 5.76A1.44 1.44 0 1 1 .56 8a1.44 1.44 0 0 1 2.88 0ZM2 15.2a1.44 1.44 0 1 0 0-2.88 1.44 1.44 0 0 0 0 2.88Z" fill="currentColor"></path><path d="M2 4.68a2.44 2.44 0 0 0 2.44-2.44h-2a.44.44 0 0 1-.44.44v2ZM-.44 2.24A2.44 2.44 0 0 0 2 4.68v-2a.44.44 0 0 1-.44-.44h-2ZM2-.2A2.44 2.44 0 0 0-.44 2.24h2A.44.44 0 0 1 2 1.8v-2Zm2.44 2.44A2.44 2.44 0 0 0 2-.2v2a.44.44 0 0 1 .44.44h2ZM2 10.44A2.44 2.44 0 0 0 4.44 8h-2a.44.44 0 0 1-.44.44v2ZM-.44 8A2.44 2.44 0 0 0 2 10.44v-2A.44.44 0 0 1 1.56 8h-2ZM2 5.56A2.44 2.44 0 0 0-.44 8h2A.44.44 0 0 1 2 7.56v-2ZM4.44 8A2.44 2.44 0 0 0 2 5.56v2a.44.44 0 0 1 .44.44h2Zm-2 5.76a.44.44 0 0 1-.44.44v2a2.44 2.44 0 0 0 2.44-2.44h-2ZM2 13.32a.44.44 0 0 1 .44.44h2A2.44 2.44 0 0 0 2 11.32v2Zm-.44.44a.44.44 0 0 1 .44-.44v-2a2.44 2.44 0 0 0-2.44 2.44h2Zm.44.44a.44.44 0 0 1-.44-.44h-2A2.44 2.44 0 0 0 2 16.2v-2Z" fill="currentColor" mask="url(#burger_svg__a)"></path></svg>