<svg version="1.1" id="Layer_1" xmlns="http://www.w3.org/2000/svg" xmlns:xlink="http://www.w3.org/1999/xlink" x="0px" y="0px"
	 viewBox="0 0 512 512" style="enable-background:new 0 0 512 512;" xml:space="preserve">
<g>
	<g>
		<path d="M430.857,83.429H216V51.355c0-9.469-7.798-17.07-17.265-17.07H83.961c-9.467,0-17.675,7.601-17.675,17.07v33.81
			C28.571,91.953,0,125.165,0,165.017v231.629c0,44.742,36.401,81.069,81.143,81.069h349.714c44.742,0,81.143-36.327,81.143-81.07
			V165.017C512,120.274,475.599,83.429,430.857,83.429z M100.571,68.571h81.143v298.286h-81.143V68.571z M430.857,443.429H81.143
			c-25.837,0-46.857-20.946-46.857-46.784V165.017c0-20.842,13.714-38.542,32-44.609v263.609c0,9.467,8.208,17.126,17.675,17.126
			h114.773c9.467,0,17.265-7.658,17.265-17.126V117.714h214.857c25.837,0,46.857,21.465,46.857,47.303v231.627h0.001
			C477.714,422.482,456.694,443.429,430.857,443.429z"/>
	</g>
</g>
<g>
	<g>
		<path d="M425.143,166.857H278.857c-9.467,0-17.143,7.675-17.143,17.143s7.675,17.143,17.143,17.143h146.286
			c9.467,0,17.143-7.675,17.143-17.143S434.61,166.857,425.143,166.857z"/>
	</g>
</g>
<g>
	<g>
		<path d="M297.143,249.143h-18.286c-9.467,0-17.143,7.675-17.143,17.143c0,9.467,7.675,17.143,17.143,17.143h18.286
			c9.467,0,17.143-7.675,17.143-17.143C314.286,256.818,306.61,249.143,297.143,249.143z"/>
	</g>
</g>
<g>
	<g>
		<path d="M361.143,249.143h-18.286c-9.467,0-17.143,7.675-17.143,17.143c0,9.467,7.675,17.143,17.143,17.143h18.286
			c9.467,0,17.143-7.675,17.143-17.143C378.286,256.818,370.61,249.143,361.143,249.143z"/>
	</g>
</g>
<g>
	<g>
		<path d="M425.143,249.143h-18.286c-9.467,0-17.143,7.675-17.143,17.143c0,9.467,7.675,17.143,17.143,17.143h18.286
			c9.467,0,17.143-7.675,17.143-17.143C442.286,256.818,434.61,249.143,425.143,249.143z"/>
	</g>
</g>
<g>
	<g>
		<path d="M297.143,298.286h-18.286c-9.467,0-17.143,7.675-17.143,17.143s7.675,17.143,17.143,17.143h18.286
			c9.467,0,17.143-7.675,17.143-17.143S306.61,298.286,297.143,298.286z"/>
	</g>
</g>
<g>
	<g>
		<path d="M361.143,298.286h-18.286c-9.467,0-17.143,7.675-17.143,17.143s7.675,17.143,17.143,17.143h18.286
			c9.467,0,17.143-7.675,17.143-17.143S370.61,298.286,361.143,298.286z"/>
	</g>
</g>
<g>
	<g>
		<path d="M425.143,298.286h-18.286c-9.467,0-17.143,7.675-17.143,17.143s7.675,17.143,17.143,17.143h18.286
			c9.467,0,17.143-7.675,17.143-17.143S434.61,298.286,425.143,298.286z"/>
	</g>
</g>
<g>
	<g>
		<path d="M297.143,347.429h-18.286c-9.467,0-17.143,7.675-17.143,17.143c0,9.467,7.675,17.143,17.143,17.143h18.286
			c9.467,0,17.143-7.675,17.143-17.143C314.286,355.104,306.61,347.429,297.143,347.429z"/>
	</g>
</g>
<g>
	<g>
		<path d="M361.143,347.429h-18.286c-9.467,0-17.143,7.675-17.143,17.143c0,9.467,7.675,17.143,17.143,17.143h18.286
			c9.467,0,17.143-7.675,17.143-17.143C378.286,355.104,370.61,347.429,361.143,347.429z"/>
	</g>
</g>
<g>
	<g>
		<path d="M425.143,347.429h-18.286c-9.467,0-17.143,7.675-17.143,17.143c0,9.467,7.675,17.143,17.143,17.143h18.286
			c9.467,0,17.143-7.675,17.143-17.143C442.286,355.104,434.61,347.429,425.143,347.429z"/>
	</g>
</g>
</svg>