<svg version="1.1" id="Layer_1" xmlns="http://www.w3.org/2000/svg" xmlns:xlink="http://www.w3.org/1999/xlink" x="0px" y="0px"
	 viewBox="0 0 472.615 472.615" style="enable-background:new 0 0 472.615 472.615;" xml:space="preserve">
<g>
	<g>
		<path d="M0,0v78.74h472.615V0H0z M305.231,49.201h-256V29.509h256V49.201z M354.462,49.201h-19.692V29.509h19.692V49.201z
			 M393.846,49.201h-19.692V29.509h19.692V49.201z M433.231,49.201h-19.692V29.509h19.692V49.201z"/>
	</g>
</g>
<g>
	<g>
		<path d="M236.308,152.586c-5.433,0-9.846,4.413-9.846,9.846v29.538c0,5.432,4.413,9.846,9.846,9.846
			c5.433,0,9.846-4.414,9.846-9.846v-29.538C246.154,156.999,241.741,152.586,236.308,152.586z"/>
	</g>
</g>
<g>
	<g>
		<path d="M374.154,260.989c-5.433,0-9.846,4.414-9.846,9.846v29.538c0,5.433,4.413,9.846,9.846,9.846
			c5.433,0,9.846-4.413,9.846-9.846v-29.538C384,265.403,379.587,260.989,374.154,260.989z"/>
	</g>
</g>
<g>
	<g>
		<path d="M374.154,369.201c-5.433,0-9.846,4.413-9.846,9.846v29.538c0,5.432,4.413,9.846,9.846,9.846
			c5.433,0,9.846-4.414,9.846-9.846v-29.538C384,373.614,379.587,369.201,374.154,369.201z"/>
	</g>
</g>
<g>
	<g>
		<path d="M236.308,369.201c-5.433,0-9.846,4.413-9.846,9.846v29.538c0,5.432,4.413,9.846,9.846,9.846
			c5.433,0,9.846-4.414,9.846-9.846v-29.538C246.154,373.614,241.741,369.201,236.308,369.201z"/>
	</g>
</g>
<g>
	<g>
		<path d="M157.538,260.989c-5.433,0-9.846,4.414-9.846,9.846v29.538c0,5.433,4.413,9.846,9.846,9.846
			c5.433,0,9.846-4.413,9.846-9.846v-29.538C167.385,265.403,162.971,260.989,157.538,260.989z"/>
	</g>
</g>
<g>
	<g>
		<path d="M374.154,152.586c-5.433,0-9.846,4.413-9.846,9.846v29.538c0,5.432,4.413,9.846,9.846,9.846
			c5.433,0,9.846-4.414,9.846-9.846v-29.538C384,156.999,379.587,152.586,374.154,152.586z"/>
	</g>
</g>
<g>
	<g>
		<path d="M0,98.432v374.183h472.615V98.432H0z M137.846,201.817h9.846v-39.385h-9.846V142.74h9.846v-9.846h19.692v68.923h9.846
			v19.692h-39.385V201.817z M108.308,438.124H68.923v-19.692h9.846v-39.385h-9.846v-19.692h9.846v-9.846h19.692v68.923h9.846
			V438.124z M108.308,329.912H68.923V310.22h9.846v-39.385h-9.846v-19.692h9.846v-9.846h19.692v68.923h9.846V329.912z
			 M108.308,221.509H68.923v-19.692h9.846v-39.385h-9.846V142.74h9.846v-9.846h19.692v68.923h9.846V221.509z M177.231,438.124
			h-39.385v-19.692h9.846v-39.385h-9.846v-19.692h9.846v-9.846h19.692v68.923h9.846V438.124z M187.077,300.374
			c0,16.289-13.25,29.538-29.538,29.538c-16.289,0-29.538-13.25-29.538-29.538v-29.538c0-16.288,13.25-29.538,29.538-29.538
			c16.288,0,29.538,13.25,29.538,29.538V300.374z M265.846,408.586c0,16.288-13.25,29.538-29.538,29.538
			c-16.289,0-29.538-13.25-29.538-29.538v-29.538c0-16.289,13.25-29.539,29.538-29.539c16.288,0,29.538,13.25,29.538,29.539V408.586
			z M216.615,270.835v-19.692h9.846v-9.846h19.692v68.923H256v19.692h-39.385V310.22h9.846v-39.385H216.615z M265.846,191.97
			c0,16.289-13.25,29.538-29.538,29.538c-16.289,0-29.538-13.25-29.538-29.538v-29.538c0-16.289,13.25-29.538,29.538-29.538
			c16.288,0,29.538,13.25,29.538,29.538V191.97z M324.923,438.124h-39.385v-19.692h9.846v-39.385h-9.846v-19.692h9.846v-9.846
			h19.692v68.923h9.846V438.124z M324.923,329.912h-39.385V310.22h9.846v-39.385h-9.846v-19.692h9.846v-9.846h19.692v68.923h9.846
			V329.912z M324.923,221.509h-39.385v-19.692h9.846v-39.385h-9.846V142.74h9.846v-9.846h19.692v68.923h9.846V221.509z
			 M403.692,408.586c0,16.288-13.25,29.538-29.538,29.538c-16.289,0-29.539-13.25-29.539-29.538v-29.538
			c0-16.289,13.25-29.539,29.539-29.539c16.288,0,29.538,13.25,29.538,29.539V408.586z M403.692,300.374
			c0,16.289-13.25,29.538-29.538,29.538c-16.289,0-29.539-13.25-29.539-29.538v-29.538c0-16.288,13.25-29.538,29.539-29.538
			c16.288,0,29.538,13.25,29.538,29.538V300.374z M403.692,191.97c0,16.289-13.25,29.538-29.538,29.538
			c-16.289,0-29.539-13.25-29.539-29.538v-29.538c0-16.289,13.25-29.538,29.539-29.538c16.288,0,29.538,13.25,29.538,29.538V191.97z
			"/>
	</g>
</g>
</svg>