<svg version="1.1" id="Layer_1" xmlns="http://www.w3.org/2000/svg" xmlns:xlink="http://www.w3.org/1999/xlink" x="0px" y="0px"
	 viewBox="0 0 512.009 512.009" style="enable-background:new 0 0 512.009 512.009;" xml:space="preserve">
<g>
	<g>
		<path d="M461.749,179.139c-2.525-21.778-7.609-41.746-15.122-59.339C394.024-3.398,256.985,0.009,256.314,0.009
			c-1.351,0-138.328-3.416-190.932,119.79c-7.512,17.593-12.597,37.561-15.122,59.339
			c-31.585,272.975,52.056,317.458,89.485,323.911l8.598,1.351l1.598-8.545c0.132-0.689,2.648-12.553,18.026-24.038v31.364
			c0,4.873,3.955,8.828,8.828,8.828c4.882,0,8.828-3.955,8.828-8.828V461.86c1.015-0.424,2.127-0.821,3.196-1.236l8.015,5.385
			c3.346,2.26,6.603,4.679,9.852,7.08c14.142,10.452,28.76,21.266,49.32,21.266s35.178-10.814,49.32-21.266
			c3.249-2.401,6.506-4.82,9.852-7.08l8.015-5.385c1.254,0.477,2.507,0.962,3.672,1.457v41.101c0,4.873,3.955,8.828,8.828,8.828
			c4.882,0,8.828-3.955,8.828-8.828v-31.011c14.954,11.361,17.417,22.969,17.532,23.561l1.395,8.845l8.819-1.527
			C409.693,496.596,493.334,452.114,461.749,179.139z M353.867,415.524c-2.895,2.745-5.941,5.385-9.066,7.945
			c-0.909,0.733-1.854,1.43-2.781,2.163c-2.278,1.792-4.546,3.584-6.903,5.305c-1.209,0.883-2.445,1.748-3.672,2.622
			c-1.174,0.839-2.357,1.668-3.531,2.489c-4.74,3.293-9.516,6.541-14.31,9.746l-11.229,7.521l0.15,0.044
			c-2.586,1.827-5.155,3.663-7.706,5.535c-12.376,9.163-24.073,17.805-38.815,17.805c-14.742,0-26.439-8.642-38.815-17.805
			c-2.551-1.871-5.12-3.708-7.706-5.535l0.15-0.044l-9.684-6.479l-1.509-1.024c-4.74-3.169-9.454-6.374-14.142-9.622
			c-1.253-0.865-2.489-1.748-3.734-2.631c-1.227-0.874-2.463-1.739-3.672-2.622c-2.357-1.721-4.626-3.513-6.903-5.305
			c-0.927-0.733-1.871-1.43-2.781-2.163c-3.125-2.56-6.17-5.199-9.066-7.945c-40.024-38.003-43.379-97.192-43.379-149.689
			c0-19.456,1.245-37.517,3.637-54.228c38.55-2.728,95.55-47.784,126.72-75.052c6.303-5.517,15.466-5.517,21.769-0.009
			c31.17,27.277,88.179,72.333,126.72,75.061c2.401,16.711,3.637,34.781,3.637,54.228
			C397.246,318.332,393.892,377.521,353.867,415.524z"/>
	</g>
</g>
</svg>