<svg version="1.1" id="Layer_1" xmlns="http://www.w3.org/2000/svg" xmlns:xlink="http://www.w3.org/1999/xlink" x="0px" y="0px"
	 viewBox="0 0 512.001 512.001" style="enable-background:new 0 0 512.001 512.001;" xml:space="preserve">
<path style="fill:#F9C900;" d="M213.571,87.709c0-21.654,30.192-65.31,44.076-84.242c3.39-4.623,10.287-4.623,13.677,0
	c13.885,18.932,44.076,62.588,44.076,84.242c0,28.12-22.795,50.915-50.915,50.915S213.571,115.829,213.571,87.709z"/>
<path style="fill:#FFF2BA;" d="M239.029,96.195c0-14.06,25.457-50.915,25.457-50.915s25.457,36.855,25.457,50.915
	s-11.398,25.457-25.457,25.457C250.426,121.652,239.029,110.255,239.029,96.195z"/>
<path style="fill:#9E6D4A;" d="M264.486,164.081c-4.686,0-8.486-3.8-8.486-8.486V96.195c0-4.686,3.8-8.486,8.486-8.486
	c4.686,0,8.486,3.8,8.486,8.486v59.401C272.972,160.283,269.172,164.081,264.486,164.081z"/>
<path style="fill:#D6CABB;" d="M268.762,149.605l97.554,56.907h-203.66l97.554-56.907
	C262.853,148.063,266.12,148.063,268.762,149.605z"/>
<path style="fill:#E3DCD2;" d="M374.802,444.114H154.17V206.511c0-4.686,3.8-8.486,8.486-8.486h203.66
	c4.686,0,8.486,3.8,8.486,8.486V444.114z"/>
<path style="fill:#754F1E;" d="M289.944,308.341h-16.972v-16.972c0-4.686-3.8-8.486-8.486-8.486c-4.686,0-8.486,3.8-8.486,8.486
	v16.972h-16.972c-4.686,0-8.486,3.8-8.486,8.486s3.8,8.486,8.486,8.486H256v42.429c0,4.686,3.8,8.486,8.486,8.486
	c4.686,0,8.486-3.8,8.486-8.486v-42.429h16.972c4.686,0,8.486-3.8,8.486-8.486S294.63,308.341,289.944,308.341z"/>
<g>
	<path style="fill:#F1EDE8;" d="M188.114,198.025v59.401c0,14.06,11.398,25.457,25.458,25.457c14.06,0,25.457-11.398,25.457-25.457
		v-59.401L188.114,198.025L188.114,198.025z"/>
	<path style="fill:#F1EDE8;" d="M264.486,198.025v33.943c0,14.06,11.398,25.458,25.457,25.458c14.06,0,25.458-11.398,25.458-25.458
		v-33.943H264.486z"/>
</g>
<path style="fill:#F9C900;" d="M264.486,452.6c0-23.433,18.997-76.372,42.429-76.372s42.429,52.94,42.429,76.372
	s-18.997,42.429-42.429,42.429C283.482,495.029,264.486,476.033,264.486,452.6z"/>
<path style="fill:#F9AA0C;" d="M323.887,478.057c-23.433,0-42.429-18.997-42.429-42.429c0-14.478,7.253-40.214,18.322-57.775
	c-20.035,9.053-35.294,53.745-35.294,74.746c0,23.433,18.997,42.429,42.429,42.429c16.081,0,30.071-8.947,37.268-22.133
	C338.153,476.186,331.239,478.057,323.887,478.057z"/>
<path style="fill:#F36280;" d="M171.415,448.007c7.495-22.202,42.426-66.284,64.628-58.789s23.267,63.73,15.772,85.932
	c-7.495,22.202-31.569,34.125-53.772,26.629C175.842,494.283,163.919,470.209,171.415,448.007z"/>
<path style="fill:#E05161;" d="M219.553,491.126c-22.202-7.495-34.124-31.569-26.629-53.772
	c4.631-13.717,19.735-35.782,35.839-48.879c-21.879,2.169-50.63,39.633-57.347,59.53c-7.495,22.202,4.427,46.276,26.629,53.772
	c15.236,5.143,31.353,1.141,42.389-9.051C233.668,493.916,226.518,493.478,219.553,491.126z"/>
<path style="fill:#40CACF;" d="M355.588,438.452c12.498-19.822,56.801-54.473,76.623-41.975c19.822,12.498,7.657,67.41-4.84,87.233
	c-12.498,19.822-38.698,25.76-58.519,13.262C349.028,484.475,343.09,458.274,355.588,438.452z"/>
<path style="fill:#3AB0B0;" d="M392.258,491.666c-19.822-12.498-25.76-38.698-13.262-58.519
	c7.721-12.247,27.583-30.15,46.311-39.101c-21.776-3.027-58.518,26.641-69.719,44.405c-12.497,19.822-6.56,46.023,13.262,58.519
	c13.603,8.576,30.208,8.469,43.329,1.152C405.324,497.692,398.477,495.588,392.258,491.666z"/>
<path style="fill:#DE90C7;" d="M99.227,480.027c-10.466-20.966-17.114-76.816,3.853-87.282s61.606,28.416,72.072,49.382
	s1.954,46.446-19.012,56.912S109.693,500.992,99.227,480.027z"/>
<path style="fill:#C971C2;" d="M163.744,476.274c-20.966,10.466-46.446,1.954-56.912-19.013
	c-6.466-12.954-11.472-39.22-9.411-59.875c-13.883,17.048-7.574,63.85,1.806,82.64c10.466,20.966,35.946,29.478,56.912,19.013
	c14.388-7.182,22.909-21.435,23.458-36.448C175.672,468.227,170.322,472.99,163.744,476.274z"/>
<path style="fill:#90BF2C;" d="M396.016,512.001H132.956c-35.149,0-63.644-28.494-63.644-63.644v-4.243
	c0-4.686,3.8-8.486,8.486-8.486h373.377c4.686,0,8.486,3.8,8.486,8.486v4.243C459.66,483.506,431.166,512.001,396.016,512.001z"/>
<path style="fill:#72A938;" d="M421.474,486.543H158.413c-30.79,0-56.471-21.866-62.368-50.915H77.798
	c-4.686,0-8.486,3.8-8.486,8.486v4.243c0,35.149,28.494,63.644,63.644,63.644h263.061c24.121,0,45.105-13.42,55.9-33.201
	C442.873,483.736,432.502,486.543,421.474,486.543z"/>
<g>
	<path style="fill:#FFF3C1;" d="M442.689,214.996c-14.037,0-25.457-11.42-25.457-25.457s11.421-25.457,25.457-25.457
		s25.457,11.42,25.457,25.457S456.725,214.996,442.689,214.996z M442.689,181.053c-4.679,0-8.486,3.807-8.486,8.486
		c0,4.679,3.807,8.486,8.486,8.486s8.486-3.807,8.486-8.486C451.174,184.86,447.367,181.053,442.689,181.053z"/>
	<path style="fill:#FFF3C1;" d="M137.199,104.681c-14.037,0-25.457-11.42-25.457-25.457s11.421-25.457,25.457-25.457
		c14.037,0,25.457,11.42,25.457,25.457S151.235,104.681,137.199,104.681z M137.199,70.737c-4.679,0-8.486,3.807-8.486,8.486
		s3.807,8.486,8.486,8.486s8.486-3.807,8.486-8.486S141.878,70.737,137.199,70.737z"/>
</g>
<g>
	<path style="fill:#FAB224;" d="M77.798,231.968c-4.686,0-8.486-3.8-8.486-8.486v-8.486c0-4.686,3.8-8.486,8.486-8.486
		c4.686,0,8.486,3.8,8.486,8.486v8.486C86.284,228.17,82.484,231.968,77.798,231.968z"/>
	<path style="fill:#FAB224;" d="M103.255,248.94H94.77c-4.686,0-8.486-3.8-8.486-8.486c0-4.686,3.8-8.486,8.486-8.486h8.486
		c4.686,0,8.486,3.8,8.486,8.486C111.741,245.14,107.942,248.94,103.255,248.94z"/>
	<path style="fill:#FAB224;" d="M77.798,274.397c-4.686,0-8.486-3.8-8.486-8.486v-8.486c0-4.686,3.8-8.486,8.486-8.486
		c4.686,0,8.486,3.8,8.486,8.486v8.486C86.284,270.599,82.484,274.397,77.798,274.397z"/>
	<path style="fill:#FAB224;" d="M60.826,248.94H52.34c-4.686,0-8.486-3.8-8.486-8.486c0-4.686,3.8-8.486,8.486-8.486h8.486
		c4.686,0,8.486,3.8,8.486,8.486C69.312,245.14,65.512,248.94,60.826,248.94z"/>
	<path style="fill:#FAB224;" d="M400.259,53.766c-4.686,0-8.486-3.8-8.486-8.486v-8.486c0-4.686,3.8-8.486,8.486-8.486
		c4.686,0,8.486,3.8,8.486,8.486v8.486C408.745,49.967,404.946,53.766,400.259,53.766z"/>
	<path style="fill:#FAB224;" d="M425.717,70.737h-8.486c-4.686,0-8.486-3.8-8.486-8.486s3.8-8.486,8.486-8.486h8.486
		c4.686,0,8.486,3.8,8.486,8.486S430.403,70.737,425.717,70.737z"/>
	<path style="fill:#FAB224;" d="M400.259,96.195c-4.686,0-8.486-3.8-8.486-8.486v-8.486c0-4.686,3.8-8.486,8.486-8.486
		c4.686,0,8.486,3.8,8.486,8.486v8.486C408.745,92.396,404.946,96.195,400.259,96.195z"/>
	<path style="fill:#FAB224;" d="M383.288,70.737h-8.486c-4.686,0-8.486-3.8-8.486-8.486s3.8-8.486,8.486-8.486h8.486
		c4.686,0,8.486,3.8,8.486,8.486S387.974,70.737,383.288,70.737z"/>
</g>
</svg>