<svg version="1.1" id="Layer_1" xmlns="http://www.w3.org/2000/svg" xmlns:xlink="http://www.w3.org/1999/xlink" x="0px" y="0px"
	 viewBox="0 0 512.17 512.17" style="enable-background:new 0 0 512.17 512.17;" xml:space="preserve">
<g transform="translate(-1)">
	<path style="fill:#C03A2B;" d="M354.276,269.324L202.45,327.719c-16.154-24.497-27.348-44.685-27.348-44.685
		c-14.46-17.991-26.483-33.042-41.675-45.674c0,0,1.174-66.613-8.068-99.019c-6.532-22.908,11.388-45.568,35.213-45.568h43.635
		c0,15.298-9.781,28.354-23.411,33.245c-6.93,2.489-11.9,8.572-11.9,15.934v2.154c0,11.273,11.026,19.341,21.751,15.863
		c28.328-9.198,48.87-35.84,48.87-67.196v-35.31H85.52c-12.544,0-22.713,10.169-22.713,22.713v7.468
		c0,4.732,1.615,9.251,4.228,13.197c15.616,23.596,31.991,85.389,31.082,109.321v3.681c-23.843-15.36-45.294-24.832-59.674-30.19
		C25.96,179,18.033,166.854,18.554,153.551c0.335-8.448,1.527-16.322,3.266-23.72c-10.531,16.252-19.959,38.206-20.807,65.607
		c-0.397,13.021,8.104,24.585,20.303,29.149c27.754,10.39,81.108,35.716,127.709,89.017c5.588,6.391,10.337,13.453,14.636,20.78
		c18.547,31.576,75.458,123.012,110.954,120.232c0,0,107.723,2.895,220.531-24.964c16.887-4.175,23.499-25.591,12.915-39.68
		c-0.009-0.009-0.018-0.009-0.035-0.018L354.276,269.324z"/>
	<path style="fill:#A0291F;" d="M21.319,224.591c-2.657-0.998-5.102-2.375-7.353-3.981c-0.026,0.018-0.044,0.026-0.071,0.035
		c31.214,37.685,48.852,86.643,48.852,135.98l0.221,98.083h35.31V266.866C67.761,244.25,39.213,231.282,21.319,224.591"/>
</g>
</svg>