<svg version="1.1" id="Layer_1" xmlns="http://www.w3.org/2000/svg" xmlns:xlink="http://www.w3.org/1999/xlink" x="0px" y="0px"
	 viewBox="0 0 512 512" style="enable-background:new 0 0 512 512;" xml:space="preserve">
<path style="fill:#4A5A67;" d="M0,256.006C0,397.402,114.606,512.004,255.996,512C397.394,512.004,512,397.402,512,256.006
	C512.009,114.61,397.394,0,255.996,0C114.606,0,0,114.614,0,256.006z"/>
<path style="fill:#444A54;" d="M512,256.005c0.001-6.913-0.353-13.741-0.891-20.516c-0.058-0.049-0.099-0.112-0.16-0.16
	c-0.34-0.429-0.708-0.798-1.137-1.137c-0.34-0.429-83.742-83.83-84.171-84.171c-0.34-0.429-0.708-0.798-1.137-1.137
	c-1.298-1.638-3.217-2.756-5.47-2.756H277.266c-3.915,0-7.089,3.173-7.089,7.089v25.509c-0.118-0.108-0.272-0.167-0.398-0.268
	c-0.34-0.43-0.709-0.798-1.139-1.138c-0.34-0.429-28.007-28.096-28.436-28.435c-1.298-1.638-3.217-2.756-5.47-2.756H92.965
	c-3.915,0-7.089,3.173-7.089,7.089v35.442c0,2.253,1.118,4.172,2.756,5.47c0.34,0.429,0.708,0.798,1.137,1.137
	c0.34,0.429,66.606,66.711,66.992,67.03v89.397h-21.266c-3.915,0-7.089,3.173-7.089,7.089c0,2.253,1.118,4.172,2.756,5.47
	c0.34,0.43,0.708,0.798,1.138,1.138c0.34,0.429,145.163,145.252,145.591,145.591c0.005,0.007,0.014,0.013,0.014,0.013
	c49.772-4.213,95.471-22.63,133.03-51.234v-0.011c0.002,0.002,0.004,0.002,0.004,0.002C472.345,412.994,512,339.149,512,256.005z"/>
<g>
	<path style="fill:#F4F6F9;" d="M234.735,146.129H92.965c-3.915,0-7.088,3.174-7.088,7.088v35.442c0,3.915,3.174,7.088,7.088,7.088
		c3.914,0,7.088-3.174,7.088-7.088v-28.354h56.707v191.389h-21.265c-3.915,0-7.088,3.174-7.088,7.088
		c0,3.915,3.174,7.088,7.088,7.088h56.707c3.915,0,7.088-3.174,7.088-7.088c0-3.915-3.174-7.088-7.088-7.088h-21.265V160.306h56.707
		v28.354c0,3.915,3.174,7.088,7.088,7.088c3.915,0,7.088-3.174,7.088-7.088v-35.442C241.823,149.302,238.65,146.129,234.735,146.129
		z"/>
	<path style="fill:#F4F6F9;" d="M419.035,146.129h-141.77c-3.915,0-7.088,3.174-7.088,7.088v35.442c0,3.915,3.174,7.088,7.088,7.088
		c3.915,0,7.088-3.174,7.088-7.088v-28.354h56.707v191.389h-21.265c-3.915,0-7.088,3.174-7.088,7.088
		c0,3.915,3.174,7.088,7.088,7.088h56.707c3.915,0,7.088-3.174,7.088-7.088c0-3.915-3.174-7.088-7.088-7.088h-21.265V160.306h56.709
		v28.354c0,3.915,3.174,7.088,7.088,7.088c3.915,0,7.088-3.174,7.088-7.088v-35.442
		C426.123,149.302,422.949,146.129,419.035,146.129z"/>
</g>
</svg>