<svg version="1.1" id="Layer_1" xmlns="http://www.w3.org/2000/svg" xmlns:xlink="http://www.w3.org/1999/xlink" x="0px" y="0px"
	 viewBox="0 0 512 512" style="enable-background:new 0 0 512 512;" xml:space="preserve">
<g>
	<path style="fill:#3C66B1;" d="M43.423,388.186h-24.19c-6.394,0-11.627-5.232-11.627-11.627v-75.571
		c0-6.395,5.232-11.627,11.627-11.627h24.19V388.186z"/>
	<path style="fill:#3C66B1;" d="M74.766,126.342V97.76c0-6.394,5.232-11.627,11.627-11.627h46.506
		c6.394,0,11.627,5.232,11.627,11.627v28.582H74.766z"/>
</g>
<path style="fill:#D7D5D9;" d="M477.045,330.87v71.742c0,12.789-10.464,23.253-23.253,23.253H109.645h12.333H56.534
	c-12.789,0-23.253-10.464-23.253-23.253V139.454c0-12.789,10.464-23.253,23.253-23.253h204.307L477.045,330.87z"/>
<path style="opacity:0.22;fill:#57545C;enable-background:new    ;" d="M432.379,286.522v71.425
	c0,12.789-10.464,23.253-23.253,23.253H77.312H64.979H33.281v21.412c0,12.789,10.464,23.253,23.253,23.253h53.111h12.333h331.815
	c12.789,0,23.253-10.464,23.253-23.253V330.87L432.379,286.522z"/>
<path style="fill:#77757E;" d="M336.623,90.616h146.532c11.73,0,21.239,9.509,21.239,21.239v197.93
	c0,11.73-9.509,21.239-21.239,21.239h-197.93c-11.73,0-21.239-9.509-21.239-21.239V111.856c0-11.73,9.509-21.239,21.239-21.239
	h51.399V90.616z"/>
<circle style="fill:#57545C;" cx="385.022" cy="209.984" r="116.472"/>
<polygon style="fill:#FFDA44;" points="118.079,214.474 220.247,214.474 220.247,304.379 79.636,304.379 79.636,214.474 "/>
<circle style="fill:#FF5023;" cx="147.169" cy="363.969" r="25.191"/>
<circle style="fill:#ACAAB1;" cx="384.19" cy="210.816" r="58.921"/>
<rect x="111.27" y="243.43" style="fill:#CCA400;" width="77.025" height="29.633"/>
<g>
	<path style="opacity:0.48;fill:#FFFFFF;enable-background:new    ;" d="M460.304,166.733
		c-6.953-12.121-16.708-22.419-28.391-30.017h-4.277l-117.89,117.891l0.243,2.592c7.832,12.364,18.661,22.634,31.477,29.786
		l0.597-0.059l117.891-117.891L460.304,166.733z"/>
	<circle style="opacity:0.36;fill:#FFFFFF;enable-background:new    ;" cx="385.022" cy="209.984" r="88.868"/>
</g>
<path style="opacity:0.3;fill:#1D1D20;enable-background:new    ;" d="M476.949,90.616L476.949,90.616
	c-3.221,0-5.831,2.61-5.831,5.831v76.959c0,68.879-55.838,124.717-124.717,124.717h-76.959c-3.221,0-5.831,2.61-5.831,5.831l0,0
	c0,14.95,12.12,27.07,27.07,27.07h186.268c14.95,0,27.07-12.12,27.07-27.07V117.687C504.02,102.736,491.9,90.616,476.949,90.616z"/>
<path d="M56.534,433.471c-17.016,0-30.859-13.843-30.859-30.86V139.454c0-17.016,13.843-30.86,30.859-30.86h204.307
	c4.201,0,7.606,3.404,7.606,7.606s-3.405,7.606-7.606,7.606H56.534c-8.628,0-15.647,7.02-15.647,15.648v263.158
	c0,8.628,7.019,15.648,15.647,15.648c4.2,0,7.606,3.404,7.606,7.606C64.14,430.067,60.735,433.471,56.534,433.471z"/>
<path d="M453.792,433.471H109.645c-4.2,0-7.606-3.404-7.606-7.606c0-4.202,3.405-7.606,7.606-7.606h344.148
	c8.627,0,15.647-7.02,15.647-15.648V330.87c0-4.202,3.405-7.606,7.606-7.606s7.606,3.404,7.606,7.606v71.742
	C484.65,419.629,470.807,433.471,453.792,433.471z"/>
<path d="M483.155,338.632H285.224c-15.905,0-28.845-12.94-28.845-28.845V111.855c0-15.905,12.94-28.845,28.845-28.845
	c4.201,0,7.606,3.404,7.606,7.606s-3.405,7.606-7.606,7.606c-7.518,0-13.633,6.115-13.633,13.633v197.931
	c0,7.518,6.116,13.633,13.633,13.633h197.93c7.518,0,13.633-6.115,13.633-13.633V111.855c0-7.518-6.116-13.633-13.633-13.633
	H336.623c-4.201,0-7.606-3.404-7.606-7.606s3.405-7.606,7.606-7.606h146.533c15.905,0,28.845,12.94,28.845,28.845v197.931
	C512,325.692,499.06,338.632,483.155,338.632z"/>
<path d="M385.026,306.461c-53.197,0-96.475-43.279-96.475-96.476s43.279-96.475,96.475-96.475s96.476,43.279,96.476,96.475
	S438.223,306.461,385.026,306.461z M385.026,128.722c-44.809,0-81.264,36.455-81.264,81.264s36.455,81.264,81.264,81.264
	s81.264-36.455,81.264-81.264S429.835,128.722,385.026,128.722z"/>
<path d="M220.247,311.985H79.636c-4.2,0-7.606-3.404-7.606-7.606v-89.905c0-4.202,3.405-7.606,7.606-7.606s7.606,3.404,7.606,7.606
	v82.299h125.399V222.08h-94.562c-4.2,0-7.606-3.404-7.606-7.606c0-4.202,3.405-7.606,7.606-7.606h102.168
	c4.2,0,7.606,3.404,7.606,7.606v89.905C227.853,308.58,224.448,311.985,220.247,311.985z"/>
<path d="M147.168,396.761c-18.084,0-32.797-14.713-32.797-32.797s14.713-32.797,32.797-32.797s32.797,14.713,32.797,32.797
	S165.252,396.761,147.168,396.761z M147.168,346.38c-9.696,0-17.585,7.888-17.585,17.585s7.889,17.585,17.585,17.585
	s17.585-7.888,17.585-17.585S156.864,346.38,147.168,346.38z"/>
<path d="M144.525,123.807c-4.2,0-7.606-3.404-7.606-7.606V97.76c0-2.178-1.841-4.02-4.021-4.02H86.392
	c-2.179,0-4.02,1.841-4.02,4.02v18.441c0,4.202-3.405,7.606-7.606,7.606c-4.201,0-7.606-3.404-7.606-7.606V97.76
	c0-10.605,8.627-19.232,19.232-19.232h46.506c10.605,0,19.233,8.627,19.233,19.232v18.441
	C152.131,120.402,148.725,123.807,144.525,123.807z"/>
<path d="M33.28,395.793H19.233C8.628,395.793,0,387.165,0,376.56v-75.572c0-10.605,8.628-19.233,19.233-19.233h14.049
	c4.2,0,7.606,3.404,7.606,7.606c0,4.202-3.405,7.606-7.606,7.606H19.233c-2.179,0-4.021,1.841-4.021,4.021v75.572
	c0,2.179,1.842,4.021,4.021,4.021h14.049c4.2,0,7.606,3.404,7.606,7.606S37.481,395.793,33.28,395.793z"/>
<path d="M384.189,277.348c-36.684,0-66.528-29.845-66.528-66.528s29.845-66.528,66.528-66.528s66.528,29.845,66.528,66.528
	S420.873,277.348,384.189,277.348z M384.189,159.504c-28.296,0-51.317,23.021-51.317,51.317s23.021,51.317,51.317,51.317
	s51.317-23.021,51.317-51.317S412.485,159.504,384.189,159.504z"/>
<path d="M188.299,280.667h-77.025c-4.2,0-7.606-3.404-7.606-7.606V243.43c0-4.202,3.405-7.606,7.606-7.606h77.025
	c4.2,0,7.606,3.404,7.606,7.606v29.631C195.905,277.262,192.5,280.667,188.299,280.667z M118.881,265.455h61.813v-14.419h-61.813
	C118.881,251.036,118.881,265.455,118.881,265.455z"/>
<path d="M334.228,248.165c-1.946,0-3.893-0.742-5.378-2.227c-2.97-2.971-2.97-7.786,0-10.757l79.159-79.159
	c2.97-2.969,7.786-2.969,10.756,0c2.97,2.971,2.97,7.786,0,10.757l-79.159,79.159C338.122,247.423,336.175,248.165,334.228,248.165z
	"/>
<path d="M355.93,269.866c-1.946,0-3.893-0.742-5.378-2.227c-2.97-2.971-2.97-7.786,0-10.757l79.158-79.159
	c2.97-2.969,7.786-2.969,10.756,0c2.97,2.971,2.97,7.786,0,10.757l-79.158,79.159C359.823,269.123,357.876,269.866,355.93,269.866z"
	/>
<path d="M216.693,175.603H76.081c-4.2,0-7.606-3.404-7.606-7.606c0-4.202,3.405-7.606,7.606-7.606h140.611
	c4.2,0,7.606,3.404,7.606,7.606C224.299,172.199,220.893,175.603,216.693,175.603z"/>
<path d="M385.026,334.065c-68.418,0-124.08-55.662-124.08-124.08s55.662-124.08,124.08-124.08s124.08,55.662,124.08,124.08
	S453.443,334.065,385.026,334.065z M385.026,101.117c-60.03,0-108.868,48.837-108.868,108.868s48.838,108.868,108.868,108.868
	s108.868-48.837,108.868-108.868S445.055,101.117,385.026,101.117z"/>
</svg>