<svg version="1.1" id="Layer_1" xmlns="http://www.w3.org/2000/svg" xmlns:xlink="http://www.w3.org/1999/xlink" x="0px" y="0px"
	 viewBox="0 0 487.091 487.091" style="enable-background:new 0 0 487.091 487.091;" xml:space="preserve">
<g>
	<g>
		<polygon points="336.764,181.502 291.038,227.233 291.038,66.589 271.346,66.589 271.346,227.233 225.62,181.502 211.697,195.425 
			281.192,264.926 350.688,195.425 		"/>
	</g>
</g>
<g>
	<g>
		<path d="M432.37,336.166l54.721-227.212H306.226v19.692h155.865l-45.231,187.827h-271.33l-18.367-76.255l-26.87-111.572h155.221
			v-19.692H95.548L76.163,28.474L3.952,13.666L0,32.954l59.952,12.289l15.344,63.711h-0.003l33.931,140.875l18.21,75.612
			l-32.612,80.263h49.022c-4.56,6.899-7.253,15.139-7.253,24.01c0,24.106,19.606,43.712,43.702,43.712
			c24.101,0,43.707-19.606,43.707-43.712c0-8.87-2.692-17.111-7.253-24.01h74.117c-4.561,6.899-7.253,15.139-7.253,24.01
			c0,24.106,19.606,43.712,43.707,43.712c24.096,0,43.702-19.606,43.702-43.712c0-8.87-2.693-17.111-7.253-24.01h39.662v-19.692
			H124.082l20.245-49.846H432.37z M327.317,405.704c13.24,0,24.01,10.769,24.01,24.01c0,13.24-10.769,24.019-24.01,24.019
			c-13.24,0-24.014-10.779-24.014-24.019C303.303,416.474,314.077,405.704,327.317,405.704z M180.293,405.704
			c13.24,0,24.014,10.769,24.014,24.01c0,13.24-10.774,24.019-24.014,24.019c-13.24,0-24.01-10.779-24.01-24.019
			C156.284,416.474,167.053,405.704,180.293,405.704z"/>
	</g>
</g>
</svg>