<svg version="1.1" id="Layer_1" xmlns="http://www.w3.org/2000/svg" xmlns:xlink="http://www.w3.org/1999/xlink" x="0px" y="0px"
	 viewBox="0 0 512 512" style="enable-background:new 0 0 512 512;" xml:space="preserve">
<g transform="translate(1)">
	<path style="fill:#FFE100;" d="M272.067,98.133h-34.133c-14.507,0-25.6-11.093-25.6-25.6l0,0c0-14.507,11.093-25.6,25.6-25.6
		h34.133c14.507,0,25.6,11.093,25.6,25.6l0,0C297.667,87.04,286.573,98.133,272.067,98.133"/>
	<g>
		<path style="fill:#FDCC00;" d="M212.333,72.533c0-6.827,2.56-12.8,6.827-17.067H152.6V89.6h66.56
			C214.893,85.333,212.333,79.36,212.333,72.533"/>
		<path style="fill:#FDCC00;" d="M290.84,55.467c4.267,4.267,6.827,10.24,6.827,17.067s-2.56,12.8-6.827,17.067h66.56V55.467H290.84
			z"/>
	</g>
	<path style="fill:#FFE100;" d="M357.4,89.6h-66.56c-4.267,5.12-11.093,8.533-18.773,8.533h-34.133
		c-7.68,0-14.507-3.413-18.773-8.533H152.6c-8.533,8.533-119.467,128-145.067,247.467c0,0,51.2,128,247.467,128
		s247.467-128,247.467-128C476.867,217.6,365.933,98.133,357.4,89.6"/>
	<g>
		<path style="fill:#E4667F;" d="M280.6,268.8c0-33.28-26.453-59.733-59.733-59.733s-59.733,26.453-59.733,59.733
			s26.453,59.733,59.733,59.733S280.6,302.08,280.6,268.8"/>
		<path style="fill:#E4667F;" d="M75.8,243.2c42.667,0,76.8-34.133,76.8-76.8c0-20.48-8.533-39.253-21.333-52.907
			c-22.187,26.453-57.173,71.68-85.333,123.733C55.32,240.64,65.56,243.2,75.8,243.2"/>
		<path style="fill:#E4667F;" d="M101.4,388.267c0-47.787-35.84-87.04-81.92-93.013c-5.12,13.653-8.533,28.16-11.947,41.813
			c0,0,20.48,51.2,86.187,88.747C98.84,414.72,101.4,401.92,101.4,388.267"/>
	</g>
	<g>
		<path style="fill:#FFFFFF;" d="M75.8,413.867c-44.373-34.133-42.667-76.8-42.667-76.8C58.733,217.6,169.667,98.133,178.2,89.6
			h-25.6c-8.533,8.533-119.467,128-145.067,247.467L75.8,413.867z"/>
		<path style="fill:#FFFFFF;" d="M71.533,237.227c23.04-42.667,50.347-80.213,71.68-107.52c-3.413-5.973-7.68-11.947-11.947-16.213
			c-22.187,26.453-57.173,71.68-85.333,123.733C55.32,240.64,65.56,243.2,75.8,243.2c4.267,0,8.533-0.853,12.8-0.853
			C82.627,240.64,76.653,239.787,71.533,237.227"/>
		<path style="fill:#FFFFFF;" d="M33.133,337.067c2.56-11.947,5.973-23.893,10.24-35.84c-7.68-3.413-15.36-5.12-23.893-5.973
			c-5.12,13.653-8.533,28.16-11.947,41.813c0,0,20.48,51.2,86.187,88.747c1.707-4.267,3.413-8.533,5.12-13.653
			C49.347,377.173,33.133,337.067,33.133,337.067"/>
	</g>
	<g>
		<path style="fill:#E4667F;" d="M187.587,459.093c20.48,3.413,42.667,5.973,67.413,5.973c71.68,0,123.733-17.067,161.28-38.4
			C398.36,384,355.693,354.133,306.2,354.133C244.76,354.133,194.413,400.213,187.587,459.093"/>
		<path style="fill:#E4667F;" d="M348.867,192c26.453,0,51.2-11.093,68.267-29.867c-29.867-40.96-55.467-69.12-59.733-72.533h-66.56
			c-4.267,5.12-11.093,8.533-18.773,8.533H255C255,150.187,296.813,192,348.867,192"/>
		<path style="fill:#E4667F;" d="M417.133,294.4c0,38.4,23.04,71.68,56.32,86.187c21.333-23.893,29.013-43.52,29.013-43.52
			c-8.533-40.96-27.307-81.067-48.64-116.907C431.64,237.227,417.133,263.68,417.133,294.4"/>
	</g>
	<polygon style="fill:#FFA800;" points="331.8,89.6 357.4,89.6 357.4,55.467 331.8,55.467 	"/>
	<polygon style="fill:#FFFFFF;" points="152.6,89.6 178.2,89.6 178.2,55.467 152.6,55.467 	"/>
	<path style="fill:#FFA800;" d="M502.467,337.067C476.867,217.6,365.933,98.133,357.4,89.6h-25.6
		c8.533,8.533,119.467,128,145.067,247.467c0,0,24.747,32.427-25.6,68.267L502.467,337.067z"/>
	<g>
		<path style="fill:#DD3859;" d="M357.4,89.6h-25.6c4.267,4.267,29.867,32.427,59.733,72.533c-14.507,15.36-33.28,25.6-55.467,28.16
			c4.267,0.853,8.533,0.853,12.8,0.853c26.453,0,51.2-11.093,68.267-29.867C387.267,122.027,361.667,93.867,357.4,89.6"/>
		<path style="fill:#DD3859;" d="M453.827,220.16c-5.973,5.12-11.947,10.24-16.213,16.213
			c17.067,31.573,31.573,66.56,39.253,100.693c0,0-5.973,14.507-20.48,33.28c5.12,4.267,11.093,6.827,17.067,10.24
			c21.333-23.893,29.013-43.52,29.013-43.52C493.933,296.107,475.16,256,453.827,220.16"/>
	</g>
	<path d="M272.067,106.667h-34.133c-18.773,0-34.133-15.36-34.133-34.133S219.16,38.4,237.933,38.4h34.133
		c18.773,0,34.133,15.36,34.133,34.133S290.84,106.667,272.067,106.667z M237.933,55.467c-9.387,0-17.067,7.68-17.067,17.067
		s7.68,17.067,17.067,17.067h34.133c9.387,0,17.067-7.68,17.067-17.067s-7.68-17.067-17.067-17.067H237.933z"/>
	<path d="M219.16,98.133H152.6c-5.12,0-8.533-3.413-8.533-8.533V55.467c0-5.12,3.413-8.533,8.533-8.533h66.56
		c3.413,0,6.827,1.707,7.68,5.12c0.853,3.413,0.853,6.827-1.707,9.387c-1.707,1.707-4.267,5.973-4.267,11.093
		c0,5.12,2.56,9.387,4.267,11.093c2.56,2.56,2.56,5.973,1.707,9.387C225.987,96.427,222.573,98.133,219.16,98.133z M161.133,81.067
		h43.52c-0.853-2.56-0.853-5.973-0.853-8.533c0-2.56,0-5.973,0.853-8.533h-43.52V81.067z"/>
	<path d="M357.4,98.133h-66.56c-3.413,0-6.827-1.707-7.68-5.12c-1.707-3.413-0.853-6.827,1.707-9.387
		c1.707-1.707,4.267-5.973,4.267-11.093c0-5.12-2.56-9.387-4.267-11.093c-2.56-2.56-2.56-5.973-1.707-9.387
		c1.707-3.413,4.267-5.12,7.68-5.12h66.56c5.12,0,8.533,3.413,8.533,8.533V89.6C365.933,93.867,362.52,98.133,357.4,98.133z
		 M305.347,81.067h43.52V64h-43.52c0.853,2.56,0.853,5.973,0.853,8.533C306.2,75.093,306.2,78.507,305.347,81.067z"/>
	<path d="M255,473.6c-199.68,0-253.44-128-255.147-133.12C-1,338.773-1,337.067-1,335.36
		C26.307,208.213,145.773,84.48,146.627,83.627c1.707-1.707,3.413-2.56,5.973-2.56h66.56c2.56,0,5.12,0.853,5.973,2.56
		c3.413,4.267,7.68,5.973,12.8,5.973h34.133c5.12,0,9.387-1.707,12.8-5.973c1.707-1.707,3.413-2.56,5.973-2.56h66.56
		c2.56,0,4.267,0.853,5.973,2.56C364.227,84.48,483.693,208.213,511,335.36c0,1.707,0,3.413,0,5.12
		C508.44,345.6,454.68,473.6,255,473.6z M16.067,336.213C24.6,353.28,79.213,456.533,255,456.533s230.4-103.253,238.933-120.32
		c-24.747-110.08-123.733-220.16-139.947-238.08h-58.88c-6.827,5.12-14.507,8.533-23.04,8.533h-34.133
		c-8.533,0-16.213-3.413-22.187-8.533h-58.88C139.8,116.053,40.813,226.133,16.067,336.213z"/>
	<path d="M220.867,337.067c-37.547,0-68.267-30.72-68.267-68.267s30.72-68.267,68.267-68.267s68.267,30.72,68.267,68.267
		S258.413,337.067,220.867,337.067z M220.867,217.6c-28.16,0-51.2,23.04-51.2,51.2s23.04,51.2,51.2,51.2s51.2-23.04,51.2-51.2
		S249.027,217.6,220.867,217.6z"/>
	<path d="M75.8,251.733c-11.093,0-22.187-2.56-33.28-6.827c-2.56-0.853-4.267-2.56-5.12-5.12c-0.853-2.56-0.853-5.12,0.853-6.827
		c29.867-55.467,66.56-102.4,86.187-125.44c1.707-1.707,3.413-2.56,5.973-3.413c2.56,0,5.12,0.853,6.827,2.56
		c15.36,17.067,23.893,37.547,23.893,59.733C161.133,213.333,122.733,251.733,75.8,251.733z M58.733,232.107
		c5.12,1.707,11.093,2.56,17.067,2.56c37.547,0,68.267-30.72,68.267-68.267c0-14.507-4.267-28.16-12.8-39.253
		C112.493,149.333,83.48,187.733,58.733,232.107z"/>
	<path d="M93.72,434.347c-1.707,0-2.56,0-4.267-0.853c-67.413-38.4-88.747-91.307-89.6-93.013C-1,338.773-1,337.067-1,335.36
		c2.56-13.653,6.827-28.16,12.8-42.667c1.707-3.413,5.12-5.973,9.387-5.12c50.347,5.973,88.747,49.493,88.747,100.693
		c0,14.507-2.56,28.16-8.533,41.813c-0.853,2.56-2.56,4.267-5.12,4.267C95.427,434.347,94.573,434.347,93.72,434.347z
		 M16.067,336.213c5.12,9.387,24.747,46.933,72.533,77.653c2.56-8.533,4.267-17.067,4.267-25.6c0-40.107-28.16-75.093-67.413-83.627
		C22.04,315.733,18.627,325.973,16.067,336.213z"/>
	<path d="M255,473.6c-23.893,0-46.933-1.707-69.12-5.973c-4.267-0.853-7.68-5.12-6.827-9.387c7.68-64,62.293-112.64,127.147-112.64
		c51.2,0,97.28,30.72,117.76,77.653c1.707,4.267,0,8.533-3.413,11.093C374.467,459.947,319,473.6,255,473.6z M196.973,452.267
		c17.92,2.56,37.547,4.267,58.027,4.267c58.027,0,108.373-11.093,150.187-33.28c-18.773-37.547-57.173-60.587-98.987-60.587
		C252.44,362.667,207.213,401.067,196.973,452.267z"/>
	<path d="M348.867,200.533c-56.32,0-102.4-46.08-102.4-102.4c0-5.12,3.413-8.533,8.533-8.533h17.067c5.12,0,9.387-1.707,12.8-5.973
		c1.707-1.707,3.413-2.56,5.973-2.56h66.56c2.56,0,4.267,0.853,5.973,2.56c5.12,5.12,31.573,34.133,60.587,74.24
		c2.56,3.413,1.707,7.68-0.853,11.093C403.48,189.44,377.027,200.533,348.867,200.533z M263.533,106.667
		c4.267,42.667,40.96,76.8,85.333,76.8c21.333,0,40.96-7.68,57.173-22.187c-24.747-33.28-45.227-56.32-52.053-63.147h-58.88
		c-6.827,5.12-14.507,8.533-23.04,8.533H263.533z"/>
	<path d="M473.453,389.12c-0.853,0-2.56,0-3.413-0.853c-37.547-16.213-61.44-52.907-61.44-93.867
		c0-32.427,14.507-61.44,40.107-81.067c1.707-1.707,4.267-1.707,6.827-1.707c2.56,0.853,4.267,1.707,5.973,4.267
		c24.747,42.667,40.96,82.773,49.493,119.467c0,1.707,0,3.413,0,5.12c0,0.853-8.533,21.333-30.72,46.08
		C477.72,388.267,476.013,389.12,473.453,389.12z M452.12,232.96c-17.067,16.213-26.453,37.547-26.453,61.44
		c0,31.573,17.92,60.587,45.227,75.093c12.8-15.36,19.627-29.013,22.187-34.133C486.253,304.64,472.6,269.653,452.12,232.96z"/>
</g>
</svg>