<svg version="1.1" id="Layer_1" xmlns="http://www.w3.org/2000/svg" xmlns:xlink="http://www.w3.org/1999/xlink" x="0px" y="0px"
	 viewBox="0 0 512 512" style="enable-background:new 0 0 512 512;" xml:space="preserve">
<circle style="fill:#72C6EF;" cx="398.728" cy="112" r="32"/>
<polygon style="fill:#FFFFFF;" points="398.728,496 78.728,496 174.728,16 302.728,16 "/>
<polygon style="fill:#FAA85F;" points="398.728,496 78.728,496 104.328,368 373.128,368 "/>
<g>
	<rect x="222.728" y="64" style="fill:#00384D;" width="32" height="32"/>
	<rect x="222.728" y="128" style="fill:#00384D;" width="32" height="32"/>
	<rect x="222.728" y="192" style="fill:#00384D;" width="32" height="32"/>
	<rect x="222.728" y="256" style="fill:#00384D;" width="32" height="32"/>
</g>
<path style="fill:#00384E;" d="M452.792,59.008L425.736,41.92l-15.024,23.776C406.856,64.704,402.888,64,398.728,64
	c-26.464,0-48,21.536-48,48c0,11.712,4.384,22.32,11.392,30.672L348.648,164l-32.8-164h-154.24l-102.4,512h359.024l-60.496-302.48
	l31.856-50.432c2.96,0.56,6,0.912,9.136,0.912c26.464,0,48-21.536,48-48c0-10.64-3.6-20.4-9.488-28.368L452.792,59.008z
	 M353.608,352h-85.856l65.2-103.248L353.608,352z M187.848,32h101.76l34.256,171.248L229.912,352h-106.08L187.848,32z M360.008,384
	l19.2,96H98.232l19.2-96H360.008z M398.728,128c-8.816,0-16-7.168-16-16s7.184-16,16-16c8.816,0,16,7.168,16,16
	S407.544,128,398.728,128z"/>
</svg>