<svg version="1.1" id="Capa_1" xmlns="http://www.w3.org/2000/svg" xmlns:xlink="http://www.w3.org/1999/xlink" x="0px" y="0px"
	 viewBox="0 0 512 512" style="enable-background:new 0 0 512 512;" xml:space="preserve">
<g>
	<path style="fill:#E9D535;" d="M302.545,93.091c-25.704,0-46.545,20.84-46.545,46.545v139.636h93.091V139.636
		C349.091,113.931,328.251,93.091,302.545,93.091z"/>
	<path style="fill:#E9D535;" d="M69.818,325.818L69.818,325.818C69.818,428.642,153.176,512,256,512
		c102.827,0,186.182-83.358,186.182-186.182V46.545C442.182,20.84,421.342,0,395.636,0c-25.704,0-46.545,20.84-46.545,46.545
		v232.727"/>
</g>
<path style="fill:#DD9520;" d="M395.636,0c-25.704,0-46.545,20.84-46.545,46.545v232.727L256,294.788V512
	c102.827,0,186.182-83.358,186.182-186.182V46.545C442.182,20.84,421.342,0,395.636,0z"/>
<polyline style="fill:#EFE370;" points="69.818,325.818 69.818,232.727 302.545,232.727 "/>
<path style="fill:#F4C514;" d="M302.545,232.727H69.818v93.091h232.727c25.706,0,46.545-20.838,46.545-46.545
	C349.091,253.569,328.249,232.727,302.545,232.727z"/>
<path style="fill:#E9D535;" d="M116.364,0C90.66,0,69.818,20.84,69.818,46.545v186.182h93.091V46.545
	C162.909,20.84,142.069,0,116.364,0z"/>
<path style="fill:#DD9520;" d="M209.455,93.091c-25.704,0-46.545,20.84-46.545,46.545v93.091H256v-93.091
	C256,113.931,235.16,93.091,209.455,93.091z"/>
</svg>