<svg version="1.1" id="Layer_1" xmlns="http://www.w3.org/2000/svg" xmlns:xlink="http://www.w3.org/1999/xlink" x="0px" y="0px"
	 viewBox="0 0 512 512" style="enable-background:new 0 0 512 512;" xml:space="preserve">
<path style="fill:#EAEAEA;" d="M469.328,512H42.672C19.2,512,0,492.8,0,469.328V42.672C0,19.2,19.2,0,42.672,0h426.656
	C492.8,0,512,19.2,512,42.672v426.656C512,492.8,492.8,512,469.328,512z"/>
<path d="M360.616,382.608v-29.472c-20.808-0.936-40.976-6.52-52.784-13.344l9.328-36.328c13.04,7.128,31.344,13.648,51.544,13.648
	c17.696,0,29.8-6.824,29.8-19.24c0-11.808-9.936-19.264-32.912-27.024c-33.216-11.176-55.888-26.696-55.888-56.8
	c0-27.328,19.264-48.736,52.48-55.256v-29.496h30.408v27.328c20.808,0.936,34.784,5.256,45.024,10.24l-9,35.088
	c-8.064-3.416-22.344-10.568-44.72-10.568c-20.176,0-26.696,8.696-26.696,17.392c0,10.24,10.872,16.76,37.264,26.696
	c36.928,13.04,51.848,30.104,51.848,58.064c0,27.632-19.568,51.216-55.256,57.432v31.648h-30.44V382.608z"/>
<path d="M247.728,361.528c-11.888,6.632-32.144,13.272-54.504,13.272c-34.248,0-65.672-13.984-85.24-39.832
	c-9.448-11.888-16.416-26.896-19.568-45.416h-22.72v-24.816h19.208c0-1.744,0-3.84,0-5.944c0-3.488,0.36-6.968,0.36-10.48H65.696
	V223.52h23.408c4.536-18.88,12.936-34.936,24.104-47.872c19.928-22.36,47.872-35.632,80.704-35.632
	c21.312,0,39.832,4.896,52.408,10.48l-9.784,39.832c-9.072-3.84-23.384-8.4-38.776-8.4c-16.752,0-32.144,5.608-42.952,18.88
	c-4.896,5.584-8.736,13.624-11.192,22.72h87.008v24.792H138.36c-0.336,3.504-0.336,7.352-0.336,10.832c0,2.104,0,3.488,0,5.584
	h92.592v24.816H142.92c2.432,10.48,6.28,18.52,11.528,24.464c11.168,12.576,27.608,17.8,45.08,17.8
	c16.064,0,32.48-5.224,39.832-9.072L247.728,361.528z"/>
</svg>