<svg version="1.1" id="Layer_1" xmlns="http://www.w3.org/2000/svg" xmlns:xlink="http://www.w3.org/1999/xlink" x="0px" y="0px"
	 viewBox="0 0 512 512" style="enable-background:new 0 0 512 512;" xml:space="preserve">
<path style="fill:#507C5C;" d="M467.163,512H44.837c-7.586,0-13.734-6.149-13.734-13.734V13.734C31.102,6.149,37.251,0,44.837,0
	h422.326c7.586,0,13.734,6.149,13.734,13.734v252.338c0,7.586-6.149,13.734-13.734,13.734s-13.734-6.149-13.734-13.734V27.469
	H58.571v457.062h394.857V349.393c0-7.586,6.149-13.734,13.734-13.734s13.734,6.149,13.734,13.734v148.872
	C480.898,505.851,474.749,512,467.163,512z"/>
<rect x="118.652" y="67.265" style="fill:#CFF09E;" width="274.69" height="54.481"/>
<path style="fill:#507C5C;" d="M393.344,135.48h-274.69c-7.586,0-13.734-6.149-13.734-13.734V67.266
	c0-7.586,6.149-13.734,13.734-13.734h274.69c7.586,0,13.734,6.149,13.734,13.734v54.481
	C407.079,129.331,400.93,135.48,393.344,135.48z M132.389,108.011H379.61v-27.01H132.389V108.011z"/>
<rect x="118.652" y="174.923" style="fill:#CFF09E;" width="178.535" height="54.481"/>
<path style="fill:#507C5C;" d="M297.195,243.143h-178.54c-7.586,0-13.734-6.149-13.734-13.734v-54.481
	c0-7.586,6.149-13.734,13.734-13.734h178.54c7.586,0,13.734,6.149,13.734,13.734v54.481
	C310.929,236.994,304.78,243.143,297.195,243.143z M132.389,215.674H283.46v-27.012H132.389V215.674z"/>
<rect x="118.652" y="282.587" style="fill:#CFF09E;" width="247.221" height="54.481"/>
<g>
	<path style="fill:#507C5C;" d="M365.875,350.806H118.654c-7.586,0-13.734-6.149-13.734-13.734v-54.481
		c0-7.586,6.149-13.734,13.734-13.734h247.221c7.586,0,13.734,6.149,13.734,13.734v54.481
		C379.61,344.658,373.461,350.806,365.875,350.806z M132.389,323.337h219.752v-27.012H132.389V323.337z"/>
	<path style="fill:#507C5C;" d="M269.656,458.47H118.654c-7.586,0-13.734-6.149-13.734-13.734s6.149-13.734,13.734-13.734h137.267
		v-27.012H118.654c-7.586,0-13.734-6.149-13.734-13.734s6.149-13.734,13.734-13.734h151.001c7.586,0,13.734,6.149,13.734,13.734
		v54.481C283.39,452.321,277.241,458.47,269.656,458.47z"/>
</g>
</svg>