<svg version="1.1" id="Layer_1" xmlns="http://www.w3.org/2000/svg" xmlns:xlink="http://www.w3.org/1999/xlink" x="0px" y="0px"
	 viewBox="0 0 512.066 512.066" style="enable-background:new 0 0 512.066 512.066;" xml:space="preserve">
<g transform="translate(0 -1)">
	<g>
		<g>
			<path d="M512.03,94.945c0.008-2.27-0.896-4.437-2.5-6.05L424.197,3.562c-1.604-1.596-3.968-2.859-6.05-2.5
				c-2.27,0.009-4.446,0.922-6.042,2.526L328.41,88.084l-5.999-6.007c-8.064-8.055-18.782-12.501-30.174-12.501
				c-11.401,0-22.11,4.446-30.174,12.501l-18.099,18.099c-0.179,0.188-0.247,0.427-0.41,0.623c-0.418,0.495-0.759,1.015-1.05,1.579
				c-0.205,0.401-0.393,0.776-0.521,1.186c-0.196,0.589-0.29,1.178-0.35,1.792c-0.043,0.427-0.111,0.836-0.085,1.271
				c0.026,0.614,0.179,1.203,0.35,1.801c0.111,0.427,0.179,0.845,0.367,1.254c0.051,0.12,0.043,0.239,0.102,0.35l12.066,24.132
				c5.572,11.145,3.396,24.559-5.419,33.365l-35.226,35.226c-9.975,9.984-9.975,26.223,0,36.207l60.339,60.331
				c4.838,4.838,11.273,7.501,18.108,7.501s13.269-2.662,18.099-7.501l35.226-35.217c8.815-8.806,22.212-10.991,33.365-5.41
				l24.141,12.066c0.111,0.051,0.23,0.051,0.341,0.094c0.418,0.188,0.845,0.256,1.28,0.375c0.589,0.162,1.169,0.316,1.775,0.35
				c0.145,0,0.273,0.077,0.418,0.077c0.299,0,0.572-0.137,0.87-0.171c0.614-0.06,1.195-0.154,1.775-0.341
				c0.418-0.137,0.794-0.324,1.186-0.521c0.572-0.29,1.084-0.64,1.587-1.058c0.188-0.162,0.435-0.222,0.614-0.41l18.099-18.099
				c16.64-16.631,16.64-43.708,0-60.339l-5.999-6.007l84.489-83.686C511.117,99.399,512.03,97.223,512.03,94.945z M322.411,238.962
				l-24.141,24.132c-1.664,1.664-3.849,2.5-6.033,2.5c-2.185,0-4.369-0.836-6.033-2.5l-36.207-36.198
				c-3.328-3.336-3.328-8.738,0-12.066l24.141-24.141c3.2-3.2,8.866-3.2,12.066,0l36.207,36.207
				c1.596,1.596,2.492,3.763,2.492,6.033C324.903,235.199,324.007,237.366,322.411,238.962z M418.949,238.962l-11.887,11.887
				c-1.126-1.203-2.261-2.415-3.354-3.661c-1.323-1.502-2.654-2.995-3.934-4.565c-1.809-2.21-3.558-4.54-5.299-6.886
				c-1.143-1.545-2.313-3.046-3.43-4.651c-1.894-2.722-3.721-5.606-5.538-8.508c-0.879-1.399-1.792-2.731-2.654-4.181
				c-2.645-4.437-5.222-9.062-7.714-13.935c-6.306-12.297-16.452-25.762-28.595-37.905c-12.134-12.134-25.6-22.298-37.922-28.595
				c-4.872-2.492-9.489-5.069-13.935-7.714c-1.434-0.862-2.748-1.766-4.147-2.637c-2.918-1.826-5.82-3.669-8.559-5.572
				c-1.57-1.101-3.038-2.244-4.557-3.371c-2.381-1.758-4.745-3.541-6.989-5.376c-1.536-1.263-2.995-2.56-4.471-3.849
				c-1.271-1.118-2.492-2.27-3.721-3.413l11.887-11.887c9.677-9.668,26.539-9.668,36.207,0l12.075,12.066l84.471,84.48
				l12.066,12.066C428.933,212.739,428.933,228.978,418.949,238.962z"/>
			<polygon points="147.42,317.404 195.693,365.677 219.825,341.536 171.56,293.263 			"/>
			<path d="M294.734,347.57c0-2.27-0.896-4.437-2.5-6.033L171.555,220.859c-3.328-3.328-8.73-3.328-12.066,0l-84.471,84.48
				c-1.604,1.596-2.5,3.763-2.5,6.033c0,2.261,0.896,4.429,2.5,6.033l12.032,12.032L2.561,413.132
				c-1.613,1.596-2.526,3.772-2.526,6.05c-0.009,2.261,0.896,4.437,2.5,6.05l85.333,85.333c1.596,1.596,3.763,2.5,6.033,2.5h0.017
				c2.27-0.008,4.446-0.922,6.042-2.526l83.695-84.497l12.041,12.032c1.664,1.673,3.849,2.5,6.033,2.5
				c2.185,0,4.369-0.828,6.033-2.5l84.471-84.471C293.838,352.007,294.734,349.84,294.734,347.57z M93.868,492.432L20.66,419.216
				l78.455-77.705l62.123,62.114l10.351,10.342L93.868,492.432z M237.928,347.57l-36.207,36.207c-1.596,1.604-3.772,2.5-6.033,2.5
				c-2.261,0-4.429-0.896-6.033-2.5l-60.339-60.339c-3.328-3.336-3.328-8.738,0-12.066l36.207-36.207c3.2-3.2,8.866-3.2,12.066,0
				l60.339,60.339C241.264,338.841,241.264,344.234,237.928,347.57z"/>
			<path d="M155.398,117.196c0.35,0.461,0.751,0.879,1.186,1.246c1.485,1.297,3.43,2.082,5.564,2.091h0.017h42.667
				c4.71,0,8.533-3.823,8.533-8.533c0-4.719-3.823-8.533-8.533-8.533h-22.067l53.7-53.7c3.336-3.336,3.336-8.738,0-12.066
				c-3.337-3.337-8.73-3.337-12.066,0l-53.7,53.7V69.332c0-4.719-3.823-8.533-8.533-8.533c-4.71,0-8.533,3.814-8.533,8.533v42.607
				c0,0.213,0,0.444,0.017,0.657C153.777,114.32,154.4,115.907,155.398,117.196z"/>
			<path d="M356.666,396.929c-0.35-0.461-0.751-0.879-1.186-1.246c-1.485-1.297-3.43-2.082-5.564-2.091h-0.017h-42.667
				c-4.71,0-8.533,3.823-8.533,8.533c0,4.719,3.823,8.533,8.533,8.533h22.067l-53.7,53.7c-3.337,3.337-3.337,8.738,0,12.066
				c1.664,1.672,3.849,2.5,6.033,2.5c2.185,0,4.369-0.828,6.033-2.5l53.7-53.7v22.067c0,4.719,3.823,8.533,8.533,8.533
				s8.533-3.814,8.533-8.533v-42.607c0-0.213,0-0.444-0.017-0.657C358.287,399.804,357.664,398.217,356.666,396.929z"/>
			<polygon points="268.099,220.862 292.24,244.994 304.306,232.928 280.174,208.787 			"/>
		</g>
	</g>
</g>
</svg>