<svg version="1.1" id="Layer_1" xmlns="http://www.w3.org/2000/svg" xmlns:xlink="http://www.w3.org/1999/xlink" x="0px" y="0px"
	 viewBox="0 0 512 512" style="enable-background:new 0 0 512 512;" xml:space="preserve">
<g>
	<g>
		<path d="M359.756,51.64C332.25,18.34,295.402,0,256,0s-76.25,18.34-103.756,51.64c-26.741,32.376-41.469,75.228-41.469,120.664
			s14.727,88.288,41.469,120.663c23.964,29.011,55.019,46.662,88.676,50.728c1.2,6.776,2.946,14.093,4.838,22.004
			c4.039,16.887,8.617,36.028,8.617,54.256c0,20.5-5.116,41.746-9.226,58.818c-3.266,13.567-5.846,24.282-5.846,33.228h33.391
			c0-4.982,2.389-14.906,4.92-25.412c4.522-18.788,10.153-42.171,10.153-66.633c0-22.166-5.286-44.267-9.533-62.025
			c-1.23-5.14-2.429-10.154-3.396-14.748c32.207-4.888,61.847-22.286,84.916-50.215c26.741-32.375,41.469-75.227,41.469-120.663
			C401.224,126.868,386.497,84.015,359.756,51.64z M256,311.214c-61.665,0-111.833-62.315-111.833-138.911
			c0-76.596,50.168-138.911,111.833-138.911s111.833,62.315,111.833,138.912C367.833,248.899,317.665,311.214,256,311.214z"/>
	</g>
</g>
<g>
	<g>
		<path d="M256,83.732c-48.839,0-88.572,39.732-88.572,88.572c0,48.838,39.732,88.57,88.572,88.57s88.572-39.732,88.572-88.57
			C344.572,123.464,304.839,83.732,256,83.732z M239.304,224.895c-3.373-1.073-6.607-2.458-9.666-4.128l9.666-7.776V224.895z
			 M239.304,170.133l-32.852,26.43c-3.602-7.327-5.634-15.559-5.634-24.26c0.001-24.608,16.196-45.5,38.486-52.592V170.133z
			 M272.696,224.894V212.99l9.666,7.776C279.303,222.435,276.068,223.821,272.696,224.894z M305.546,196.563l-32.85-26.43v-50.422
			c22.29,7.092,38.485,27.984,38.485,52.592C311.18,181.004,309.149,189.236,305.546,196.563z"/>
	</g>
</g>
</svg>