<svg version="1.1" id="Layer_1" xmlns="http://www.w3.org/2000/svg" xmlns:xlink="http://www.w3.org/1999/xlink" x="0px" y="0px"
	 viewBox="0 0 512 512" style="enable-background:new 0 0 512 512;" xml:space="preserve">
<g>
	<g>
		<path d="M197.866,45.227c-3.413-3.413-8.533-3.413-11.947,0l-17.067,17.067c-3.413,3.413-3.413,8.533,0,11.947
			c1.707,1.707,3.413,2.56,5.973,2.56s4.267-0.853,5.973-2.56l17.067-17.067C201.28,53.76,201.28,48.64,197.866,45.227z"/>
	</g>
</g>
<g>
	<g>
		<path d="M422.293,448c-3.413-17.067-17.067-29.867-34.133-29.867c-87.04,0-119.467-63.147-119.467-102.4V26.453
			c0-14.507-12.8-26.453-27.307-26.453H115.093c-14.507,0-25.6,11.093-25.6,25.6v0.853c0,58.88,13.653,123.733,40.96,197.973
			c11.947,31.573,13.653,56.32,5.973,74.24c-24.747,58.027-21.333,85.333-20.48,87.04c0,2.56,1.707,5.12,4.267,5.973
			c0,0,49.493,25.6,72.533,43.52c42.667,33.28,95.573,51.2,151.04,51.2c0.853,0,0.853,0,1.707,0c0.853,0,4.267,0,9.387,0
			c12.8,0,34.133-0.853,48.64-7.68C422.293,470.187,423.146,455.68,422.293,448z M395.84,464.213
			c-12.8,5.12-40.107,5.973-50.347,5.12c-0.853,0-0.853,0-1.707,0c-52.053,0-100.693-16.213-140.8-47.787
			c-20.48-15.36-58.027-35.84-70.827-42.667c0-9.387,2.56-33.28,19.627-73.387c9.387-22.187,7.68-52.053-5.12-87.04
			c-27.307-72.533-40.107-135.68-40.107-192V25.6c0-5.12,3.413-8.533,8.533-8.533h126.293c5.973,0,10.24,4.267,10.24,9.387v290.133
			c0,46.08,36.693,119.467,136.533,119.467c8.533,0,15.36,5.973,17.067,15.36C405.226,453.973,406.08,459.093,395.84,464.213z"/>
	</g>
</g>
<g>
	<g>
		<path d="M408.64,469.333c-0.853-2.56-3.413-4.267-5.973-5.12c-1.707,0-4.267,0-5.973,0.853h-0.853
			c-2.56,0.853-4.267,3.413-5.12,5.973c-24.747,32.427-168.96,26.453-242.347,17.067l-16.213-104.96c0-4.267-5.12-7.68-9.387-6.827
			c-4.267,0-7.68,5.12-6.827,9.387l17.067,110.933c0,3.413,3.413,5.973,6.827,6.827c0.853,0,63.147,8.533,128.853,8.533
			c60.587,0,123.733-7.68,139.947-34.987C409.493,474.453,409.493,471.893,408.64,469.333z"/>
	</g>
</g>
<g>
	<g>
		<path d="M354.026,469.333c-84.48,0-153.6-69.12-153.6-153.6V8.533c0-5.12-3.413-8.533-8.533-8.533s-8.533,3.413-8.533,8.533v307.2
			c0,93.867,76.8,170.667,170.667,170.667c5.12,0,8.533-3.413,8.533-8.533S359.146,469.333,354.026,469.333z"/>
	</g>
</g>
</svg>