<svg version="1.1" id="Layer_1" xmlns="http://www.w3.org/2000/svg" xmlns:xlink="http://www.w3.org/1999/xlink" x="0px" y="0px"
	 viewBox="0 0 512 512" style="enable-background:new 0 0 512 512;" xml:space="preserve">
<path style="fill:#FFDBCC;" d="M373.504,37.896c-18.067,0-32.716,14.648-32.716,32.716
	c-0.001,72.158-58.706,130.863-130.863,130.863v65.431c108.235,0,196.293-88.056,196.294-196.294
	C406.219,52.544,391.573,37.896,373.504,37.896z"/>
<g>
	<path style="fill:#FFC1A6;" d="M422.032,397.768h-49.073l32.716,65.431h16.358c18.068,0,32.716-14.648,32.716-32.716
		S440.1,397.768,422.032,397.768z"/>
	<path style="fill:#FFC1A6;" d="M487.463,299.621c0-18.069-14.647-32.716-32.716-32.716l-81.789-21.81v109.052l81.789-21.81
		C472.816,332.337,487.463,317.69,487.463,299.621z"/>
</g>
<g>
	<path style="fill:#FEA680;" d="M471.105,365.052c0-18.069-14.648-32.716-32.716-32.716h-65.431v65.431h65.431
		C456.458,397.768,471.105,383.121,471.105,365.052z"/>
	<path style="fill:#FEA680;" d="M471.651,201.474h-98.692v65.431h98.692c18.069,0,32.716-14.648,32.716-32.716
		S489.72,201.474,471.651,201.474z"/>
</g>
<polygon style="fill:#FFDBCC;" points="166.305,201.474 122.684,332.337 166.305,463.199 405.674,463.199 405.674,201.474 "/>
<rect x="79.063" y="201.474" style="fill:#ABECEC;" width="87.242" height="261.725"/>
<polygon style="fill:#027372;" points="79.063,190.569 46.347,332.337 79.063,474.104 111.778,474.104 111.778,190.569 "/>
<rect x="8.179" y="190.569" style="fill:#02ACAB;" width="70.884" height="283.536"/>
<path d="M512,234.19c0-22.55-18.345-40.895-40.895-40.895h-97.711c26.551-35.301,41.004-78.243,41.004-122.684
	c0-22.55-18.345-40.895-40.895-40.895c-22.55,0-40.895,18.345-40.895,40.895c-0.001,67.647-55.036,122.684-122.684,122.684h-89.968
	v-2.726c0-4.518-3.661-8.179-8.179-8.179H8.179c-4.518,0-8.179,3.661-8.179,8.179v283.536c0,4.518,3.661,8.179,8.179,8.179h103.6
	c4.518,0,8.179-3.661,8.179-8.179v-2.726h302.075c22.55,0,40.895-18.345,40.895-40.895c0-10.387-3.899-19.876-10.302-27.096
	c15.552-5.794,26.66-20.79,26.66-38.335c0-10.387-3.899-19.876-10.302-27.096c15.552-5.794,26.66-20.79,26.66-38.335
	c0-10.387-3.899-19.876-10.302-27.096C500.892,266.731,512,251.735,512,234.19z M111.778,258.726c-4.518,0-8.179,3.661-8.179,8.179
	v199.02H16.358V198.748H103.6v35.442c0,4.518,3.661,8.179,8.179,8.179s8.179-3.661,8.179-8.179v-24.537h38.168V455.02h-38.168
	V266.905C119.957,262.387,116.297,258.726,111.778,258.726z M471.105,258.726h-65.431c-4.518,0-8.179,3.661-8.179,8.179
	s3.661,8.179,8.179,8.179h49.073c13.529,0,24.537,11.008,24.537,24.537s-11.008,24.537-24.537,24.537h-49.073
	c-4.518,0-8.179,3.661-8.179,8.179s3.661,8.179,8.179,8.179h32.716c13.529,0,24.537,11.008,24.537,24.537
	s-11.008,24.537-24.537,24.537h-32.716c-4.518,0-8.179,3.661-8.179,8.179s3.661,8.179,8.179,8.179h16.358
	c13.529,0,24.537,11.008,24.537,24.537s-11.008,24.537-24.537,24.537H174.483V209.653h35.442
	c76.667,0,139.04-62.373,139.042-139.042c0-13.529,11.008-24.537,24.537-24.537s24.537,11.008,24.537,24.537
	c0,46.305-17.059,90.842-48.033,125.403c-2.155,2.404-2.694,5.847-1.377,8.794c1.315,2.946,4.241,4.843,7.468,4.843h115.008
	c13.529,0,24.537,11.008,24.537,24.537S484.634,258.726,471.105,258.726z"/>
<circle cx="59.979" cy="441.389" r="8.179"/>
</svg>