<svg version="1.1" id="Layer_1" xmlns="http://www.w3.org/2000/svg" xmlns:xlink="http://www.w3.org/1999/xlink" x="0px" y="0px"
	 viewBox="0 0 512.002 512.002" style="enable-background:new 0 0 512.002 512.002;" xml:space="preserve">
<g>
	<circle style="fill:#564531;" cx="204.066" cy="245.837" r="24.635"/>
	<circle style="fill:#564531;" cx="308.486" cy="245.837" r="24.635"/>
</g>
<path style="fill:#2B8E4A;" d="M323.63,49.306l124.286,75.582c7.169,4.356,8.226,14.423,2.016,20.063
	c-28.438,25.825-80.595,18.029-130.447-12.26c-0.698-0.424-1.392-0.851-2.081-1.281H192.847c-0.69,0.43-1.384,0.856-2.081,1.281
	c-49.852,30.29-102.009,38.085-130.447,12.26c-6.21-5.639-5.152-15.707,2.016-20.063l128.86-78.8L323.63,49.306z"/>
<path style="fill:#33A854;" d="M275.484,49.537c21.593,19.345,58.633,31.438,100.075,31.438c58.333,0,106.954-20.422,117.849-57.258
	c2.379-8.045-3.753-16.099-12.142-16.099H255.43H32.649c-10.232,0-17.443,10.387-13.496,19.826
	C32.75,59.957,79.598,80.975,135.301,80.975c39.47,0,75.689-10.324,97.588-27.783L275.484,49.537z"/>
<path style="fill:#AA8B65;" d="M230.929,160.527v59.701c0,6.473,4.114,11.771,9.143,11.771c-5.028,0-9.143,5.297-9.143,11.771
	v10.507c0,6.473,4.114,11.771,9.143,11.771c-5.028,0-9.143,5.297-9.143,11.771v10.507c0,6.473,4.114,11.771,9.143,11.771
	c-5.028,0-9.143,5.297-9.143,11.771v10.507c0,6.473,4.114,11.771,9.143,11.771c-5.028,0-9.143,5.297-9.143,11.771v10.507
	c0,6.473,4.114,11.771,9.143,11.771c-5.028,0-9.143,5.297-9.143,11.771v10.507c0,6.473,4.114,11.771,9.143,11.771
	c-5.028,0-9.143,5.297-9.143,11.771v10.507c0,6.473,4.114,11.771,9.143,11.771c-5.028,0-9.143,5.297-9.143,11.771v10.507
	c0,6.473,4.114,11.771,9.143,11.771c-5.028,0-9.143,5.297-9.143,11.771v10.507c0,6.473,4.114,11.771,9.143,11.771h30.718
	c5.029,0,9.143-5.297,9.143-11.771v-10.507c0-6.474-4.114-11.771-9.143-11.771c5.029,0,9.143-5.297,9.143-11.771V448.06
	c0-6.474-4.114-11.771-9.143-11.771c5.029,0,9.143-5.297,9.143-11.771v-10.507c0-6.474-4.114-11.771-9.143-11.771
	c5.029,0,9.143-5.297,9.143-11.771v-10.507c0-6.474-4.114-11.771-9.143-11.771c5.029,0,9.143-5.297,9.143-11.771v-10.507
	c0-6.474-4.114-11.771-9.143-11.771c5.029,0,9.143-5.297,9.143-11.771v-10.507c0-6.474-4.114-11.771-9.143-11.771
	c5.029,0,9.143-5.297,9.143-11.771v-10.508c0-6.474-4.114-11.771-9.143-11.771c5.029,0,9.143-5.297,9.143-11.771v-10.507
	c0-6.474-4.114-11.771-9.143-11.771c5.029,0,9.143-5.297,9.143-11.771v-59.701h-49.004V160.527z"/>
<path style="opacity:0.2;fill:#564531;enable-background:new    ;" d="M279.804,220.228v-59.701h-15.84v59.701
	c0,6.473-4.114,11.771-9.143,11.771c5.028,0,9.143,5.297,9.143,11.771v10.507c0,6.473-4.114,11.771-9.143,11.771
	c5.028,0,9.143,5.297,9.143,11.771v10.507c0,6.473-4.114,11.771-9.143,11.771c5.028,0,9.143,5.297,9.143,11.771v10.507
	c0,6.473-4.114,11.771-9.143,11.771c5.028,0,9.143,5.297,9.143,11.771v10.507c0,6.473-4.114,11.771-9.143,11.771
	c5.028,0,9.143,5.297,9.143,11.771v10.507c0,6.473-4.114,11.771-9.143,11.771c5.028,0,9.143,5.297,9.143,11.771v10.507
	c0,6.473-4.114,11.771-9.143,11.771c5.028,0,9.143,5.297,9.143,11.771v10.507c0,6.473-4.114,11.771-9.143,11.771
	c5.028,0,9.143,5.297,9.143,11.771v10.507c0,6.473-4.114,11.771-9.143,11.771h15.84c5.029,0,9.143-5.297,9.143-11.771v-10.507
	c0-6.474-4.114-11.771-9.143-11.771c5.029,0,9.143-5.297,9.143-11.771V448.06c0-6.474-4.114-11.771-9.143-11.771
	c5.029,0,9.143-5.297,9.143-11.771v-10.507c0-6.474-4.114-11.771-9.143-11.771c5.029,0,9.143-5.297,9.143-11.771v-10.507
	c0-6.474-4.114-11.771-9.143-11.771c5.029,0,9.143-5.297,9.143-11.771v-10.507c0-6.474-4.114-11.771-9.143-11.771
	c5.029,0,9.143-5.297,9.143-11.771v-10.507c0-6.474-4.114-11.771-9.143-11.771c5.029,0,9.143-5.297,9.143-11.771v-10.508
	c0-6.474-4.114-11.771-9.143-11.771c5.029,0,9.143-5.297,9.143-11.771v-10.507c0-6.474-4.114-11.771-9.143-11.771
	C275.69,231.998,279.804,226.701,279.804,220.228z"/>
<path style="fill:#33A854;" d="M356.561,208.034L276.977,52.587L256.208,7.798l0.016-0.179l-0.052,0.102l-0.328-0.708l-0.146,1.635
	l-22.807,44.547l-79.585,155.447c-3.823,7.467,0.553,16.595,8.797,18.144c32.585,6.12,67.092-18.349,93.022-58.548v-0.027
	c25.886,39.85,60.214,64.059,92.64,57.969C356.008,224.629,360.385,215.501,356.561,208.034z"/>
<path d="M497.525,8.153C493.654,2.971,487.728,0,481.267,0H255.43H32.649c-7.453,0-14.376,3.714-18.518,9.935
	c-4.06,6.099-4.81,13.744-2.006,20.449c7.388,17.669,23.344,32.52,46.144,42.946c15.176,6.941,32.678,11.601,51.53,13.801
	l-51.421,31.244c-5.522,3.354-9.043,8.972-9.662,15.41c-0.613,6.385,1.749,12.509,6.478,16.804
	c12.753,11.581,30.067,17.554,50.573,17.554c4.069,0,8.264-0.235,12.573-0.708c17.775-1.952,36.953-7.867,56.354-17.296
	l-28.173,55.028c-2.945,5.752-3,12.381-0.151,18.188c2.824,5.758,8.045,9.737,14.325,10.916c3.732,0.701,7.504,1.046,11.31,1.046
	c1.41,0,2.826-0.064,4.243-0.158c-1.412,3.624-2.196,7.558-2.196,11.675c0,17.782,14.467,32.248,32.248,32.248
	c6.385,0,12.337-1.873,17.351-5.087c-0.215,1.237-0.34,2.511-0.34,3.821v10.507c0,4.423,1.287,8.505,3.45,11.771
	c-2.164,3.266-3.45,7.348-3.45,11.771v10.507c0,4.423,1.287,8.505,3.45,11.771c-2.163,3.266-3.45,7.347-3.45,11.77v10.507
	c0,4.423,1.287,8.505,3.45,11.771c-2.164,3.266-3.45,7.348-3.45,11.771v10.507c0,4.423,1.287,8.505,3.45,11.771
	c-2.164,3.266-3.45,7.348-3.45,11.771v10.507c0,4.423,1.287,8.505,3.45,11.771c-2.163,3.266-3.45,7.347-3.45,11.77v10.507
	c0,4.423,1.287,8.505,3.45,11.771c-2.164,3.266-3.45,7.348-3.45,11.771v10.507c0,10.691,7.519,19.39,16.762,19.39h30.719
	c9.242,0,16.762-8.699,16.762-19.39v-10.507c0-4.423-1.287-8.505-3.45-11.771c2.164-3.266,3.45-7.348,3.45-11.771v-10.507
	c0-4.423-1.287-8.505-3.45-11.77c2.163-3.266,3.45-7.348,3.45-11.771v-10.507c0-4.423-1.287-8.505-3.45-11.771
	c2.164-3.266,3.45-7.348,3.45-11.771v-10.507c0-4.423-1.287-8.505-3.45-11.771c2.164-3.266,3.45-7.348,3.45-11.771v-10.507
	c0-4.423-1.287-8.505-3.45-11.77c2.163-3.266,3.45-7.348,3.45-11.771v-10.507c0-4.423-1.287-8.505-3.45-11.771
	c2.164-3.266,3.45-7.348,3.45-11.771v-10.507c0-1.77-0.214-3.481-0.6-5.112c5.373,4.004,12.029,6.378,19.23,6.378
	c17.782,0,32.248-14.467,32.248-32.248c0-4.081-0.77-7.984-2.159-11.581c0.709,0.024,1.419,0.049,2.126,0.049
	c3.755,0,7.478-0.34,11.155-1.031c6.279-1.179,11.5-5.159,14.324-10.915c2.848-5.808,2.794-12.436-0.151-18.189l-28.174-55.03
	c19.402,9.43,38.58,15.346,56.359,17.298c4.311,0.473,8.504,0.708,12.574,0.708c20.503-0.001,37.82-5.974,50.572-17.554
	c4.73-4.295,7.091-10.42,6.478-16.804c-0.618-6.438-4.139-12.055-9.661-15.411l-51.146-31.076
	c20.534-2.148,39.164-6.954,54.769-14.235c23.727-11.072,39.364-27.389,45.22-47.188C502.526,19.751,501.363,13.29,497.525,8.153z
	 M26.183,24.506c-1.2-2.87,0.043-5.24,0.633-6.126c1.328-1.997,3.455-3.142,5.833-3.142h211.113l-16.877,32.965
	c-5.224,3.987-11.302,7.566-18.069,10.688V42.075c0-4.208-3.411-7.619-7.619-7.619c-4.208,0-7.619,3.411-7.619,7.619v22.713
	c-13.771,4.421-29.375,7.247-45.809,8.202V46.087c0-4.208-3.411-7.619-7.619-7.619c-4.208,0-7.619,3.411-7.619,7.619v27.237
	C80.735,72.653,38.188,53.214,26.183,24.506z M65.44,139.31c-1.556-1.413-1.642-3.155-1.554-4.067
	c0.154-1.608,1.031-3.008,2.406-3.843l70.467-42.816c0.878-0.005,1.754-0.01,2.629-0.026c0.251,0.025,0.506,0.039,0.764,0.039
	c0.367,0,0.724-0.035,1.077-0.085c26.946-0.701,52.44-6.156,72.87-15.33l-25.724,50.242l-13.36-21.988
	c-2.185-3.595-6.871-4.741-10.467-2.555c-3.596,2.185-4.74,6.871-2.555,10.467l13.992,23.028
	c-14.935,8.031-29.547,13.72-43.248,17.041l-12.184-20.053c-2.185-3.596-6.87-4.74-10.467-2.555
	c-3.596,2.185-4.74,6.871-2.555,10.467l9.107,14.988c-3.668,0.394-7.254,0.617-10.718,0.617
	C89.463,152.879,75.461,148.411,65.44,139.31z M163.509,219.297c-2.066-0.388-3.053-1.827-3.456-2.65
	c-0.711-1.45-0.699-3.102,0.035-4.534l86.503-168.96l0.899,122.844c-6.764,10.246-13.944,19.159-21.35,26.65l-20.905-10.703
	c-3.746-1.919-8.337-0.437-10.254,3.31c-1.918,3.745-0.436,8.336,3.31,10.254l15.666,8.02
	C197.091,216.62,179.599,222.32,163.509,219.297z M223.31,215.439v4.017c-0.995-0.62-2.022-1.192-3.084-1.703
	C221.257,217.003,222.285,216.233,223.31,215.439z M206.3,263.845c-9.379,0-17.011-7.631-17.011-17.011
	c0-9.379,7.631-17.011,17.011-17.011c9.379,0,17.011,7.631,17.011,17.011C223.31,256.214,215.679,263.845,206.3,263.845z
	 M270.698,239.616c0.498,0.254,1.616,1.749,1.616,4.152v10.507c0,2.402-1.118,3.898-1.616,4.152
	c-4.165,0.05-7.526,3.442-7.526,7.619s3.361,7.569,7.526,7.619c0.498,0.254,1.616,1.749,1.616,4.152v10.507
	c0,2.404-1.118,3.898-1.616,4.152c-4.165,0.05-7.526,3.442-7.526,7.619c0,4.177,3.361,7.569,7.526,7.619
	c0.498,0.254,1.616,1.749,1.616,4.152v10.507c0,2.404-1.118,3.898-1.616,4.152c-4.165,0.05-7.526,3.442-7.526,7.619
	c0,4.177,3.361,7.569,7.526,7.619c0.498,0.254,1.616,1.748,1.616,4.152v10.507c0,2.404-1.118,3.898-1.616,4.152
	c-4.165,0.05-7.526,3.442-7.526,7.619s3.361,7.569,7.526,7.619c0.498,0.254,1.616,1.749,1.616,4.152v10.507
	c0,2.404-1.118,3.898-1.616,4.152c-4.165,0.05-7.526,3.442-7.526,7.619c0,4.177,3.361,7.569,7.526,7.619
	c0.498,0.254,1.616,1.749,1.616,4.152v10.507c0,2.402-1.118,3.898-1.616,4.152c-4.165,0.05-7.526,3.442-7.526,7.619
	c0,4.177,3.361,7.569,7.526,7.619c0.498,0.254,1.616,1.748,1.616,4.152v10.507c0,2.404-1.118,3.898-1.616,4.152
	c-4.165,0.05-7.526,3.442-7.526,7.619c0,4.177,3.361,7.569,7.526,7.619c0.498,0.254,1.616,1.749,1.616,4.152v10.507
	c0,2.401-1.117,3.896-1.615,4.152h-30.537c-0.498-0.255-1.615-1.75-1.615-4.152v-10.507c0-2.404,1.118-3.898,1.616-4.152
	c4.165-0.05,7.526-3.442,7.526-7.619c0-4.177-3.361-7.569-7.526-7.619c-0.498-0.254-1.616-1.749-1.616-4.152v-10.507
	c0-2.404,1.118-3.898,1.616-4.152c4.165-0.05,7.526-3.442,7.526-7.619c0-4.177-3.361-7.569-7.526-7.619
	c-0.498-0.254-1.616-1.749-1.616-4.152V414.01c0-2.404,1.118-3.898,1.616-4.152c4.165-0.05,7.526-3.442,7.526-7.619
	c0-4.177-3.361-7.569-7.526-7.619c-0.498-0.254-1.616-1.749-1.616-4.152v-10.507c0-2.404,1.118-3.898,1.616-4.152
	c4.165-0.05,7.526-3.442,7.526-7.619s-3.361-7.569-7.526-7.619c-0.498-0.254-1.616-1.749-1.616-4.152v-10.507
	c0-2.404,1.118-3.898,1.616-4.152c4.165-0.05,7.526-3.442,7.526-7.619c0-4.177-3.361-7.569-7.526-7.619
	c-0.498-0.254-1.616-1.749-1.616-4.152v-10.507c0-2.404,1.118-3.898,1.616-4.152c4.165-0.05,7.526-3.442,7.526-7.619
	c0-4.177-3.361-7.569-7.526-7.619c-0.498-0.254-1.616-1.749-1.616-4.152v-10.507c0-2.404,1.118-3.898,1.616-4.152
	c4.165-0.05,7.526-3.442,7.526-7.619s-3.361-7.569-7.526-7.619c-0.498-0.254-1.616-1.749-1.616-4.152v-10.507
	c0-2.404,1.118-3.898,1.616-4.152c4.165-0.05,7.526-3.442,7.526-7.619s-3.361-7.569-7.526-7.619
	c-0.498-0.254-1.616-1.749-1.616-4.152v-18.538c5.73-5.941,11.286-12.626,16.607-20c5.504,7.559,11.245,14.397,17.159,20.449v18.09
	c0,2.403-1.118,3.898-1.616,4.152c-4.165,0.05-7.526,3.442-7.526,7.619S266.533,239.567,270.698,239.616z M306.182,263.845
	c-9.379,0-17.011-7.631-17.011-17.011c0-9.379,7.631-17.011,17.011-17.011c9.379,0,17.01,7.631,17.01,17.011
	C323.192,256.214,315.561,263.845,306.182,263.845z M287.54,220.546c0.001-0.107,0.011-0.211,0.011-0.318v-4.506
	c1.177,0.903,2.359,1.78,3.544,2.624C289.86,219.001,288.674,219.739,287.54,220.546z M350.194,216.647
	c-0.403,0.823-1.39,2.262-3.455,2.649c-13.662,2.565-28.25-1.141-43.366-11.015c-2.287-1.493-4.562-3.135-6.825-4.886l15.41-7.889
	c3.745-1.917,5.228-6.509,3.31-10.254c-1.917-3.745-6.509-5.226-10.254-3.31l-20.718,10.607
	c-7.571-7.585-14.837-16.556-21.569-26.645l-0.924-126.375l88.358,172.582C350.893,213.543,350.906,215.196,350.194,216.647z
	 M446.365,135.241c0.087,0.912,0.002,2.654-1.554,4.069c-12.137,11.023-30.104,15.25-51.209,12.976l9.119-15.009
	c2.185-3.596,1.041-8.282-2.555-10.467c-3.595-2.184-8.282-1.04-10.467,2.555l-12.191,20.065
	c-13.695-3.321-28.308-9.038-43.234-17.064l13.985-23.017c2.185-3.596,1.041-8.282-2.555-10.467
	c-3.596-2.184-8.282-1.04-10.467,2.555l-13.363,21.991l-26.523-51.805c21.724,10.594,49.126,16.676,78.131,16.955l70.479,42.822
	C445.335,132.233,446.21,133.634,446.365,135.241z M486.102,21.556c-4.65,15.722-17.809,28.664-37.027,37.68V41.675
	c0-4.208-3.411-7.619-7.619-7.619s-7.619,3.411-7.619,7.619v23.478c-13.428,4.273-28.886,6.975-45.809,7.867V46.087
	c0-4.208-3.411-7.619-7.619-7.619s-7.619,3.411-7.619,7.619v27.245c-16.187-0.218-31.737-2.35-45.809-6.134V44.297
	c0-4.208-3.411-7.619-7.619-7.619c-4.208,0-7.619,3.411-7.619,7.619v17.93c-11.786-4.585-22.05-10.479-30.151-17.478l-15.11-29.512
	h214.784c1.608,0,3.085,0.742,4.051,2.036C485.867,18.008,486.698,19.541,486.102,21.556z"/>
</svg>