<svg version="1.1" id="Layer_1" xmlns="http://www.w3.org/2000/svg" xmlns:xlink="http://www.w3.org/1999/xlink" x="0px" y="0px"
	 viewBox="0 0 512 512" style="enable-background:new 0 0 512 512;" xml:space="preserve">
<g>
	<g>
		<path d="M495.432,136.818h-26.188V59.324c0-4.428-3.588-8.017-8.017-8.017h-68.409c-4.428,0-8.017,3.588-8.017,8.017
			c0,4.428,3.588,8.017,8.017,8.017h60.393v69.478h-308.91v-34.739c0-9.136-7.432-16.568-16.568-16.568H58.789V67.34h299.825
			c4.428,0,8.017-3.588,8.017-8.017c0-4.428-3.588-8.017-8.017-8.017H50.772c-4.428,0-8.017,3.588-8.017,8.017v26.188H16.568
			C7.432,85.511,0,92.943,0,102.079v94.063c0,4.428,3.588,8.017,8.017,8.017c4.428,0,8.017-3.588,8.017-8.017v-94.063
			c0-0.294,0.241-0.534,0.534-0.534h111.165c0.294,0,0.534,0.241,0.534,0.534v42.756c0,4.428,3.588,8.017,8.017,8.017h359.148
			c0.294,0,0.534,0.24,0.534,0.534v290.739c0,0.294-0.241,0.534-0.534,0.534H16.568c-0.294,0-0.534-0.241-0.534-0.534V230.347
			c0-4.428-3.588-8.017-8.017-8.017c-4.428,0-8.017,3.588-8.017,8.017v213.779c0,9.136,7.432,16.568,16.568,16.568h478.864
			c9.136,0,16.568-7.432,16.568-16.568V153.386C512,144.25,504.568,136.818,495.432,136.818z"/>
	</g>
</g>
<g>
	<g>
		<path d="M380.965,290.895c1.835-6.157,2.767-12.12,2.767-17.793c0-22.882-9.643-55.562-36.82-72.359
			c-16.667-10.3-45.841-17.834-90.913,3.583c-45.072-21.416-74.245-13.882-90.913-3.583c-27.178,16.797-36.82,49.477-36.82,72.359
			c0,27.206,21.04,59.786,62.536,96.836c30.055,26.835,59.618,45.926,60.862,46.726c2.613,1.68,6.056,1.68,8.67,0
			c0.937-0.602,21.974-14.183,46.591-34.492c10.825,11.478,26.154,18.663,43.137,18.663c32.711,0,59.324-26.612,59.324-59.324
			C409.386,320.114,397.997,301.332,380.965,290.895z M255.971,400.315c-34.852-23.272-111.67-83.664-111.67-127.212
			c0-18.759,7.651-45.393,29.216-58.721c19.555-12.084,46.838-9.998,78.898,6.033c2.256,1.13,4.915,1.13,7.171,0
			c32.059-16.031,59.343-18.116,78.898-6.033c21.564,13.328,29.215,39.962,29.215,58.721c0,3.558-0.532,7.348-1.569,11.314
			c-5.115-1.441-10.499-2.229-16.068-2.229c-32.711,0-59.324,26.612-59.324,59.324c0,9.958,2.478,19.344,6.831,27.592
			C279.743,383.87,263.448,395.258,255.971,400.315z M350.063,384.802c-23.871,0-43.29-19.42-43.29-43.29s19.42-43.29,43.29-43.29
			s43.29,19.42,43.29,43.29S373.933,384.802,350.063,384.802z"/>
	</g>
</g>
<g>
	<g>
		<path d="M367.165,333.495h-9.086v-9.086c0-4.428-3.588-8.017-8.017-8.017c-4.428,0-8.017,3.588-8.017,8.017v9.086h-9.086
			c-4.428,0-8.017,3.588-8.017,8.017c0,4.428,3.588,8.017,8.017,8.017h9.086v9.086c0,4.428,3.588,8.017,8.017,8.017
			c4.428,0,8.017-3.588,8.017-8.017v-9.086h9.086c4.428,0,8.017-3.588,8.017-8.017C375.182,337.083,371.593,333.495,367.165,333.495
			z"/>
	</g>
</g>
</svg>