<svg version="1.1" id="Layer_1" xmlns="http://www.w3.org/2000/svg" xmlns:xlink="http://www.w3.org/1999/xlink" x="0px" y="0px"
	 viewBox="0 0 512 512" style="enable-background:new 0 0 512 512;" xml:space="preserve">
<g>
	<g>
		<path d="M512,256c0-38.083-25.08-70.411-59.588-81.357c16.66-32.14,11.534-72.733-15.393-99.663
			c-16.119-16.117-37.547-24.993-60.342-24.993c-13.922,0-27.327,3.328-39.331,9.577C326.395,25.069,294.074,0,256,0
			s-70.395,25.069-81.349,59.566c-12.004-6.25-25.409-9.578-39.331-9.578c-22.795,0-44.223,8.876-60.34,24.993
			C58.861,91.1,49.985,112.53,49.987,135.323c0,13.922,3.328,27.327,9.577,39.331C25.069,185.603,0,217.926,0,256
			c0,38.084,25.08,70.412,59.589,81.355c-16.662,32.141-11.539,72.735,15.393,99.663c16.117,16.117,37.545,24.993,60.34,24.993
			c13.922,0,27.327-3.328,39.331-9.579C185.605,486.931,217.926,512,256,512s70.395-25.069,81.349-59.566
			c12.004,6.25,25.409,9.578,39.332,9.578c22.792,0,44.221-8.876,60.34-24.995c26.928-26.928,32.053-67.522,15.391-99.662
			C486.92,326.411,512,294.083,512,256z M349.251,107.894c7.328-7.328,17.068-11.362,27.428-11.362
			c10.361,0,20.101,4.036,27.429,11.362c15.123,15.124,15.123,39.731,0,54.855c-7.326,7.326-17.067,11.36-27.429,11.36
			c-10.353,0-20.087-4.029-27.411-11.345c-0.005-0.005-0.011-0.009-0.016-0.016c-0.005-0.005-0.011-0.009-0.017-0.016
			C334.13,147.608,334.133,123.012,349.251,107.894z M256,46.545c21.388,0,38.788,17.4,38.788,38.788s-17.4,38.788-38.788,38.788
			s-38.788-17.4-38.788-38.788C217.212,63.946,234.612,46.545,256,46.545z M107.894,107.892c7.326-7.326,17.067-11.36,27.428-11.36
			s20.101,4.036,27.428,11.36c15.12,15.121,15.123,39.723,0.008,54.848c-0.003,0.002-0.005,0.005-0.008,0.006
			c-0.003,0.002-0.005,0.005-0.008,0.008c-7.326,7.322-17.062,11.352-27.42,11.352c-10.361,0-20.101-4.034-27.428-11.36
			c-7.326-7.326-11.36-17.067-11.36-27.428C96.534,124.961,100.568,115.22,107.894,107.892z M46.545,256
			c0-21.388,17.4-38.788,38.788-38.788s38.788,17.4,38.788,38.788s-17.4,38.788-38.788,38.788
			C63.946,294.788,46.545,277.388,46.545,256z M162.749,404.108c-7.328,7.326-17.068,11.36-27.428,11.36
			c-10.361,0-20.101-4.036-27.428-11.36c-15.124-15.124-15.124-39.731,0-54.855c7.326-7.326,17.067-11.36,27.428-11.36
			s20.101,4.036,27.428,11.36C177.872,364.376,177.872,388.984,162.749,404.108z M256,465.455c-21.388,0-38.788-17.4-38.788-38.788
			c0-21.383,17.391-38.779,38.772-38.788c0.005,0,0.011,0.002,0.016,0.002c0.005,0,0.011-0.002,0.016-0.002
			c21.381,0.009,38.772,17.405,38.772,38.788C294.788,448.054,277.388,465.455,256,465.455z M316.338,316.342
			c-16.114,16.112-37.536,24.989-60.323,24.992c-0.005,0-0.011,0-0.016,0c-0.005,0-0.011,0-0.016,0
			c-22.787-0.003-44.209-8.879-60.324-24.995c-16.116-16.117-24.993-37.545-24.993-60.338c0-22.793,8.878-44.221,24.993-60.34
			c16.119-16.117,37.548-24.993,60.342-24.993c22.792,0,44.221,8.876,60.338,24.995c16.111,16.109,24.987,37.526,24.993,60.309
			c0,0.009,0,0.02,0,0.031c0,0.011,0,0.02,0,0.031C341.326,278.815,332.449,300.231,316.338,316.342z M404.108,404.106
			c-7.328,7.326-17.067,11.362-27.428,11.362c-10.361,0-20.101-4.034-27.428-11.362c-15.124-15.123-15.124-39.73-0.002-54.852
			c7.326-7.326,17.067-11.36,27.428-11.36c10.363,0,20.103,4.036,27.429,11.36C419.23,364.375,419.23,388.983,404.108,404.106z
			 M426.667,294.788c-21.377,0-38.769-17.383-38.788-38.757c0-0.009,0.002-0.02,0.002-0.031c0-0.011-0.002-0.02-0.002-0.031
			c0.019-21.374,17.411-38.757,38.788-38.757c21.388,0,38.788,17.4,38.788,38.788S448.054,294.788,426.667,294.788z"/>
	</g>
</g>
<g>
	<g>
		<path d="M272.46,239.538c-4.343-4.329-10.332-6.811-16.46-6.811c-6.128,0-12.133,2.482-16.462,6.811
			c-4.329,4.344-6.811,10.333-6.811,16.462c0,6.128,2.482,12.117,6.811,16.462c4.344,4.329,10.333,6.811,16.462,6.811
			c6.128,0,12.117-2.482,16.46-6.811c4.329-4.344,6.813-10.333,6.813-16.462C279.273,249.872,276.789,243.883,272.46,239.538z"/>
	</g>
</g>
</svg>