<svg version="1.1" id="Layer_1" xmlns="http://www.w3.org/2000/svg" xmlns:xlink="http://www.w3.org/1999/xlink" x="0px" y="0px"
	 viewBox="0 0 512 512" style="enable-background:new 0 0 512 512;" xml:space="preserve">
<g>
	<g>
		<g>
			<path d="M298.667,25.6H256c-4.71,0-8.533,3.814-8.533,8.533s3.823,8.533,8.533,8.533h42.667c4.71,0,8.533-3.814,8.533-8.533
				S303.377,25.6,298.667,25.6z"/>
			<path d="M230.4,25.6h-8.533c-4.71,0-8.533,3.814-8.533,8.533s3.823,8.533,8.533,8.533h8.533c4.71,0,8.533-3.814,8.533-8.533
				S235.11,25.6,230.4,25.6z"/>
			<path d="M375.467,206.333c0,10.735,8.568,15.531,17.067,15.531c9.89,0,17.067-7.177,17.067-17.067v-17.067h-17.067
				C383.121,187.731,375.467,196.076,375.467,206.333z"/>
			<path d="M477.602,93.867H409.6V59.733V33.809C409.6,15.164,394.436,0,375.799,0H153.267c-18.637,0-33.801,15.164-33.801,33.809
				v25.924V76.8c-4.71,0-8.533,3.814-8.533,8.533v8.533c0,4.719,3.823,8.533,8.533,8.533v8.533c-4.71,0-8.533,3.814-8.533,8.533V128
				c0,4.719,3.823,8.533,8.533,8.533V179.2H34.398C15.428,179.2,0,194.637,0,213.598v118.938c0,18.961,15.428,34.398,34.398,34.398
				h85.069V435.2v42.991c0,18.645,15.164,33.809,33.809,33.809h222.524c18.637,0,33.801-15.164,33.801-33.809V435.2V281.6h68.002
				c18.97,0,34.398-15.437,34.398-34.398V128.265C512,109.303,496.572,93.867,477.602,93.867z M136.533,33.809
				c0-9.233,7.509-16.742,16.734-16.742h222.532c9.224,0,16.734,7.509,16.734,16.742V51.2h-256V33.809z M34.133,238.933
				c0-14.114,11.486-25.6,25.6-25.6s25.6,11.486,25.6,25.6s-11.486,25.6-25.6,25.6S34.133,253.047,34.133,238.933z M125.5,309.7
				c3.336,3.337,3.336,8.73,0,12.066c-1.664,1.664-3.849,2.5-6.033,2.5s-4.369-0.836-6.033-2.5l-28.1-28.1l-28.1,28.1
				c-1.664,1.664-3.849,2.5-6.033,2.5c-2.185,0-4.369-0.836-6.033-2.5c-3.337-3.337-3.337-8.73,0-12.066L79.3,275.567
				c3.336-3.337,8.73-3.337,12.066,0l15.3,15.3l32.367-32.367c3.336-3.336,8.73-3.336,12.066,0l34.133,34.133
				c3.336,3.337,3.336,8.73,0,12.066c-1.664,1.664-3.849,2.5-6.033,2.5c-2.185,0-4.369-0.836-6.033-2.5l-28.1-28.1l-26.334,26.334
				L125.5,309.7z M242.193,494.933h-88.917c-9.233,0-16.742-7.509-16.742-16.742v-34.458h105.66
				c-7.168,6.263-11.793,15.36-11.793,25.6C230.4,479.573,235.025,488.67,242.193,494.933z M264.533,486.4
				c-9.412,0-17.067-7.654-17.067-17.067c0-9.412,7.654-17.067,17.067-17.067c9.412,0,17.067,7.654,17.067,17.067
				C281.6,478.746,273.946,486.4,264.533,486.4z M392.533,478.191c0,9.233-7.509,16.742-16.734,16.742h-88.926
				c7.168-6.263,11.793-15.36,11.793-25.6c0-10.24-4.625-19.337-11.793-25.6h105.66V478.191z M392.533,426.667h-256v-59.733h11.025
				l14.925,37.299c1.289,3.243,4.437,5.367,7.919,5.367c3.49,0,6.63-2.125,7.927-5.367l15.13-37.828
				c16.119-2.833,28.407-16.947,28.407-33.869V213.598c0-18.961-15.428-34.398-34.398-34.398h-50.935V68.267h256v25.6h-68.002
				c-18.97,0-34.398,15.437-34.398,34.398v118.938c0,16.922,12.288,31.036,28.407,33.869l15.13,37.828
				c1.297,3.243,4.437,5.367,7.927,5.367c3.482,0,6.63-2.125,7.919-5.367l14.925-37.299h28.092V426.667z M426.667,179.2v8.533V204.8
				c0,19.14-14.993,34.133-34.133,34.133c-19.78,0-34.133-13.705-34.133-32.597c0-19.669,15.309-35.669,34.133-35.669H409.6v-25.6
				c0-4.719,3.823-8.533,8.533-8.533s8.533,3.814,8.533,8.533V179.2z"/>
			<path d="M68.267,238.933c0-4.71-3.831-8.533-8.533-8.533s-8.533,3.823-8.533,8.533s3.831,8.533,8.533,8.533
				S68.267,243.644,68.267,238.933z"/>
		</g>
	</g>
</g>
</svg>