<svg version="1.1" id="Layer_1" xmlns="http://www.w3.org/2000/svg" xmlns:xlink="http://www.w3.org/1999/xlink" x="0px" y="0px"
	 viewBox="0 0 512 512" style="enable-background:new 0 0 512 512;" xml:space="preserve">
<g>
	<g>
		<g>
			<path d="M112.18,362.427c-17.446,0-31.64,14.195-31.64,31.641c0,17.446,14.195,31.64,31.64,31.64
				c17.446,0,31.641-14.195,31.641-31.64C143.82,376.621,129.626,362.427,112.18,362.427z M112.18,408.449
				c-7.931,0-14.382-6.451-14.382-14.382c0-7.931,6.451-14.382,14.382-14.382c7.931,0,14.382,6.451,14.382,14.382
				C126.562,401.998,120.111,408.449,112.18,408.449z"/>
			<path d="M330.786,362.427c-17.446,0-31.64,14.195-31.64,31.641c0,17.446,14.195,31.64,31.64,31.64
				c17.446,0,31.64-14.195,31.64-31.64C362.427,376.621,348.232,362.427,330.786,362.427z M330.786,408.449
				c-7.931,0-14.382-6.451-14.382-14.382c0-7.931,6.451-14.382,14.382-14.382c7.931,0,14.382,6.451,14.382,14.382
				C345.169,401.998,338.717,408.449,330.786,408.449z"/>
			<path d="M428.234,158.552c3.371,3.369,8.834,3.369,12.204,0l69.034-69.034c3.37-3.371,3.37-8.834,0-12.204l-34.517-34.517
				c-3.371-3.369-8.834-3.369-12.204,0l-80.539,80.539c-1.618,1.619-2.527,3.813-2.527,6.103v48.898h-28.764V48.899
				c0-4.767-3.862-8.629-8.629-8.629H135.191c-4.767,0-8.629,3.862-8.629,8.629v129.438H43.146c-4.767,0-8.629,3.862-8.629,8.629
				v152.449H8.629c-4.767,0-8.629,3.862-8.629,8.629v46.023c0,4.767,3.862,8.629,8.629,8.629h26.379
				c4.308,38.776,37.267,69.034,77.172,69.034c39.905,0,72.864-30.258,77.172-69.034h64.262
				c4.308,38.776,37.267,69.034,77.172,69.034c39.905,0,72.864-30.258,77.172-69.034h26.38c4.767,0,8.629-3.862,8.629-8.629V186.971
				c0-4.767-3.862-8.629-8.629-8.629s-8.629,3.862-8.629,8.629v198.467h-17.757c-1.333-11.97-5.423-23.425-11.94-33.504
				c0.593-1.17,0.933-2.489,0.933-3.889V133.013l71.91-71.91l22.314,22.313l-62.932,62.931
				C424.866,149.718,424.866,155.181,428.234,158.552z M143.82,57.528h63.281v71.91c0,4.767,3.862,8.629,8.629,8.629h46.022
				c4.767,0,8.629-3.862,8.629-8.629V83.42c0-4.767-3.862-8.629-8.629-8.629s-8.629,3.862-8.629,8.629v37.389H224.36V57.528h109.303
				v120.809H143.82V57.528z M51.775,195.595h83.416h48.899v71.91c0,4.767,3.862,8.629,8.629,8.629h46.022
				c4.767,0,8.629-3.862,8.629-8.629v-46.018c0-4.767-3.862-8.629-8.629-8.629s-8.629,3.862-8.629,8.629v37.389h-28.764v-63.281
				h140.944h37.393V333.74c-13.74-11.125-31.001-17.336-48.899-17.336c-21.53,0-41.037,8.811-55.118,23.011H167.297
				c-14.081-14.2-33.588-23.011-55.118-23.011c-21.529,0-41.037,8.811-55.118,23.011h-5.287V195.595z M35.007,385.438H17.258
				v-28.764h25.888h0.991C39.331,365.384,36.155,375.107,35.007,385.438z M112.18,454.472c-33.306,0-60.404-27.098-60.404-60.404
				s27.098-60.405,60.404-60.405c33.307,0,60.405,27.098,60.405,60.405S145.486,454.472,112.18,454.472z M253.615,385.438h-64.262
				c-1.147-10.331-4.324-20.054-9.13-28.764h82.522C257.939,365.384,254.762,375.108,253.615,385.438z M330.786,454.472
				c-33.306,0-60.404-27.098-60.404-60.404s27.098-60.405,60.404-60.405c17.161,0,33.572,7.339,45.025,20.137
				c9.918,11.081,15.38,25.381,15.38,40.267C391.191,427.374,364.093,454.472,330.786,454.472z"/>
		</g>
	</g>
</g>
</svg>