<svg version="1.1" id="Layer_1" xmlns="http://www.w3.org/2000/svg" xmlns:xlink="http://www.w3.org/1999/xlink" x="0px" y="0px"
	 viewBox="0 0 511.999 511.999" style="enable-background:new 0 0 511.999 511.999;" xml:space="preserve">
<g>
	<g>
		<path d="M121.213,10.156C104.83-2.132,83.617-3.355,65.896,6.984C48.077,17.362,38.634,36.492,41.257,56.922
			c2.13,16.602,7.089,30.333,14.664,41.605c18.42-30.239,49.197-45.558,70.535-56.084c10.451-5.183,12.054-6.02,22.908-11.173
			L121.213,10.156z"/>
	</g>
</g>
<g>
	<g>
		<path d="M446.13,6.974c-17.764-10.345-38.988-9.094-55.36,3.171L364.314,29.99c15.435,7.695,26.637,13.698,45.743,23.252
			c19.992,9.992,36.179,25.054,47.362,43.203c6.832-10.951,11.351-24.094,13.34-39.827C473.326,36.318,463.883,17.292,446.13,6.974z
			"/>
	</g>
</g>
<g>
	<g>
		<path d="M395.11,83.129C280.905,26.025,267.95,9.577,141.262,72.401c-31.667,15.622-67.566,33.322-67.566,85.45V261.36
			c0,40.348,28.748,74.1,66.837,81.862v69.522c0,30.298,20.593,55.812,48.594,63.446c15.54,22.182,41.046,35.809,68.371,35.809
			c27.302,0,52.797-13.614,68.34-35.779c27.967-7.595,48.402-33.137,48.402-63.475v-69.522c38.089-7.762,67.06-41.514,67.06-81.862
			V157.852C441.3,126,423.6,97.368,395.11,83.129z M156.241,211.39c-9.228,0-16.709-7.481-16.709-16.709s7.481-16.709,16.709-16.709
			s16.709,7.481,16.709,16.709S165.469,211.39,156.241,211.39z M257.498,478.58c-9.375,0-18.385-2.71-26.16-7.475
			c6.477-4.274,11.893-10.188,15.532-17.465l10.628-21.245l10.617,21.24c3.637,7.277,9.052,13.19,15.544,17.466
			C275.885,475.868,266.875,478.58,257.498,478.58z M341.044,412.744c0,17.873-14.545,32.418-32.581,32.418
			c-4.46,0-8.464-2.475-10.454-6.468l-24.025-47.609v-39.261l28.746-28.523c6.527-6.521,6.527-17.106,0-23.628
			c-6.527-6.527-17.101-6.527-23.628,0l-21.605,21.605l-21.605-21.605c-6.527-6.527-17.101-6.527-23.628,0
			c-6.527,6.521-6.527,17.106,0,23.628l28.523,28.523v39.26L216.973,438.7c-1.991,3.987-5.994,6.462-10.617,6.462
			c-17.873,0-32.63-14.545-32.63-32.418v-84.547h0.002c0-46.07,37.699-83.546,83.769-83.546c46.07,0,83.546,37.477,83.546,83.546
			V412.744z M356.752,211.39c-9.228,0-16.709-7.481-16.709-16.709s7.482-16.709,16.709-16.709c9.228,0,16.709,7.481,16.709,16.709
			S365.98,211.39,356.752,211.39z"/>
	</g>
</g>
</svg>