<svg version="1.1" id="Layer_1" xmlns="http://www.w3.org/2000/svg" xmlns:xlink="http://www.w3.org/1999/xlink" x="0px" y="0px"
	 viewBox="0 0 512 512" style="enable-background:new 0 0 512 512;" xml:space="preserve">
<g>
	<g>
		<path d="M426.667,469.333c-30.299,0-63.017-43.419-63.978-83.529l42.301-232.655c1.118-6.149-0.508-12.067-3.924-16.617
			c6.093-10.319,9.601-22.345,9.601-35.199c0-38.299-31.034-69.333-69.333-69.333c-6.868,0-13.576,1.024-19.961,2.973
			C309.447,14.027,287.001,0,261.333,0c-25.668,0-48.114,14.027-60.039,34.973C194.909,33.024,188.201,32,181.333,32
			C143.034,32,112,63.034,112,101.333c0,10.348,2.282,20.156,6.344,28.974c-8.081,4.112-13.088,13.191-11.333,22.842l42.301,232.655
			c-0.961,40.11-33.68,83.529-63.978,83.529c-28.444,0-28.444,42.667,0,42.667h341.333C455.111,512,455.111,469.333,426.667,469.333
			z M181.333,74.667c6.635,0,12.896,2.533,17.897,7.122c13.17,12.084,34.471,3.585,35.705-14.246
			c0.97-14.016,12.459-24.876,26.398-24.876c13.938,0,25.427,10.86,26.398,24.876c1.234,17.831,22.535,26.33,35.705,14.246
			c5.002-4.589,11.262-7.122,17.897-7.122c14.735,0,26.667,11.931,26.667,26.667C368,116.069,356.069,128,341.333,128h-160
			c-14.735,0-26.667-11.931-26.667-26.667C154.667,86.598,166.598,74.667,181.333,74.667z M350.284,469.333H161.716
			C180.334,445.309,192,414.152,192,384l-0.344-3.816l-38.094-209.517h204.876l-38.094,209.517L320,384
			C320,414.152,331.666,445.309,350.284,469.333z"/>
	</g>
</g>
</svg>