<svg version="1.1" id="Layer_1" xmlns="http://www.w3.org/2000/svg" xmlns:xlink="http://www.w3.org/1999/xlink" x="0px" y="0px"
	 viewBox="0 0 512 512" style="enable-background:new 0 0 512 512;" xml:space="preserve">
<g>
	<path style="fill:#3A3838;" d="M422.952,286.394l-9.143-31.834c30.127-8.652,52.71-27.577,69.041-57.851L512,212.432
		C491.507,250.425,461.547,275.309,422.952,286.394z"/>
	<path style="fill:#3A3838;" d="M386.952,256.386l-13.519-30.236c26.499-11.849,46.664-34.588,61.647-69.519l30.438,13.056
		C447.359,212.027,420.925,241.197,386.952,256.386z"/>
	<path style="fill:#3A3838;" d="M343.93,230.206l-16.081-28.956c26.201-14.552,46.952-41.73,58.431-76.528l31.454,10.376
		C403.64,177.824,377.429,211.601,343.93,230.206z"/>
	<path style="fill:#3A3838;" d="M292.313,215.989l-17.508-28.115c24.67-15.363,43.811-44.002,53.899-80.644l31.933,8.793
		C348.332,160.712,324.068,196.214,292.313,215.989z"/>
	<path style="fill:#3A3838;" d="M244.57,204.612l-14.185-29.929c11.416-5.411,31.397-37.048,36.975-63.237l32.395,6.899
		c-3.319,15.583-10.79,33.748-20.496,49.837C271.554,180.954,259.281,197.641,244.57,204.612z"/>
</g>
<path style="fill:#DFDFE0;" d="M230.375,404.77c-50.154,0-104.092-18.113-155.982-52.382c-38.766-25.6-62.788-51.067-63.791-52.139
	L0,288.928l10.602-11.321c1.004-1.071,25.025-26.538,63.791-52.139c51.89-34.268,105.827-52.382,155.982-52.382
	s104.092,18.114,155.982,52.382c38.766,25.601,62.788,51.068,63.791,52.139l10.602,11.321l-10.602,11.321
	c-1.004,1.071-25.025,26.538-63.791,52.139C334.467,386.657,280.529,404.77,230.375,404.77z"/>
<path style="fill:#CECED1;" d="M230.375,404.77c0-39.714,0-174.564,0-231.683c50.154,0,104.092,18.114,155.982,52.382
	c38.766,25.601,62.788,51.068,63.791,52.139l10.602,11.321l-10.602,11.321c-1.004,1.071-25.025,26.538-63.791,52.139
	C334.467,386.657,280.529,404.77,230.375,404.77z"/>
<path style="fill:#92E0D3;" d="M230.375,404.77c-69.963,0-126.88-51.966-126.88-115.841s56.919-115.842,126.88-115.842
	s126.88,51.966,126.88,115.841S300.338,404.77,230.375,404.77z"/>
<path style="fill:#6DB2A6;" d="M230.375,404.77c0-73.488,0-198.262,0-231.683c69.963,0,126.88,51.966,126.88,115.842
	C357.255,352.804,300.338,404.77,230.375,404.77z"/>
<circle style="fill:#3A3838;" cx="230.379" cy="288.926" r="42.351"/>
<path style="fill:#211915;" d="M272.728,288.928c0,23.391-18.962,42.353-42.353,42.353c0-32.469,0-61.357,0-84.706
	C253.766,246.575,272.728,265.537,272.728,288.928z"/>
</svg>