<svg version="1.1" id="Layer_1" xmlns="http://www.w3.org/2000/svg" xmlns:xlink="http://www.w3.org/1999/xlink" x="0px" y="0px"
	 viewBox="0 0 512 512" style="enable-background:new 0 0 512 512;" xml:space="preserve">
<g>
	<path style="fill:#ABB8B9;" d="M162.648,373.333c11.782,0,21.333,9.551,21.333,21.333c0,11.781-9.551,21.332-21.333,21.332
		s-21.333-9.551-21.333-21.332C141.315,382.885,150.866,373.333,162.648,373.333L162.648,373.333z M320.908,231.72l-43.668,25.213
		l0.019,0.037l-43.982,25.395c-10.064,5.824-22.939,2.391-28.769-7.67c-1.928-3.327-2.842-6.964-2.838-10.551h-0.044v-50.788v-50.79
		c0-11.653,9.445-21.1,21.099-21.1c4.367,0,8.423,1.324,11.789,3.598l42.745,24.679l1.084,0.672l42.82,24.72
		c10.062,5.785,13.532,18.629,7.751,28.689C326.935,227.26,324.137,229.925,320.908,231.72L320.908,231.72z M490.665,53.334H21.333
		c-5.865,0-10.665,4.8-10.665,10.666v330.665v53.333c0,5.868,4.8,10.666,10.665,10.666h469.332c5.869,0,10.668-4.798,10.668-10.666
		v-53.333V64.001C501.333,58.135,496.534,53.334,490.665,53.334z"/>
	<path style="fill:#D12D4E;" d="M204.507,274.695c5.83,10.06,18.705,13.493,28.769,7.67l43.982-25.395l-0.019-0.037l43.668-25.213
		c3.229-1.795,6.027-4.46,8.005-7.895c5.782-10.061,2.311-22.903-7.751-28.689l-42.82-24.72l-1.084-0.672l-42.745-24.679
		c-3.365-2.274-7.421-3.598-11.789-3.598c-11.655,0-21.099,9.446-21.099,21.1v50.79v50.788h0.044
		C201.666,267.73,202.58,271.367,204.507,274.695z"/>
	<circle style="fill:#ED8C18;" cx="162.647" cy="394.665" r="21.333"/>
</g>
<g>
	<path style="fill:#000003;" d="M490.665,42.667H21.333C9.57,42.667,0,52.237,0,64.001v383.999c0,11.763,9.57,21.334,21.333,21.334
		h469.332c11.763,0,21.335-9.57,21.335-21.334V64.001C512,52.237,502.428,42.667,490.665,42.667z M21.335,447.999L21.333,64.002
		l469.332-0.001v330.665l0.002,53.332L21.335,447.999z"/>
	<path style="fill:#000003;" d="M53.329,256.476c5.89,0,10.667-4.776,10.667-10.667v-0.254c0-5.892-4.778-10.667-10.667-10.667
		c-5.892,0-10.667,4.776-10.667,10.667v0.254C42.661,251.7,47.437,256.476,53.329,256.476z"/>
	<path style="fill:#000003;" d="M53.333,265.785c-5.893,0-10.667,4.776-10.667,10.667v54.214c0,5.892,4.775,10.668,10.667,10.668
		c5.892,0,10.667-4.776,10.667-10.668v-54.214C64.001,270.561,59.226,265.785,53.333,265.785z"/>
	<path style="fill:#000003;" d="M458.663,191.781c5.889,0,10.667-4.776,10.667-10.667v-0.256c0-5.892-4.778-10.667-10.667-10.667
		c-5.892,0-10.668,4.776-10.668,10.667v0.256C447.995,187.006,452.77,191.781,458.663,191.781z"/>
	<path style="fill:#000003;" d="M458.667,85.333c-5.892,0-10.667,4.776-10.667,10.667v54.212c0,5.892,4.776,10.667,10.667,10.667
		s10.668-4.776,10.668-10.667V96.001C469.334,90.109,464.558,85.333,458.667,85.333z"/>
	<path style="fill:#000003;" d="M195.276,280.042c5.655,9.762,16.18,15.826,27.471,15.826c5.557,0,11.045-1.477,15.861-4.266
		l43.984-25.395c0.273-0.158,0.538-0.327,0.794-0.507l42.788-24.703c4.98-2.785,9.122-6.882,11.986-11.858
		c4.215-7.336,5.321-15.875,3.115-24.045c-2.206-8.168-7.463-14.988-14.78-19.193l-42.576-24.583
		c-0.446-0.288-0.894-0.564-1.327-0.812l-42.451-24.511c-5.178-3.401-11.19-5.197-17.416-5.197
		c-17.518,0-31.769,14.252-31.769,31.77v101.577c0,0.406,0.022,0.809,0.067,1.204C191.217,270.497,192.675,275.55,195.276,280.042z
		 M212.292,162.568c0-5.754,4.68-10.435,10.434-10.435c2.09,0,4.103,0.612,5.815,1.77c0.208,0.14,0.421,0.273,0.638,0.399
		l42.786,24.705c0.181,0.103,0.354,0.215,0.527,0.329c0.169,0.111,0.339,0.218,0.516,0.318l42.839,24.736
		c2.396,1.376,4.112,3.603,4.831,6.27c0.721,2.668,0.361,5.454-1.012,7.844c-0.944,1.64-2.304,2.985-3.934,3.889
		c-0.052,0.029-0.105,0.059-0.157,0.089l-43.669,25.213c-0.275,0.158-0.54,0.327-0.796,0.507l-43.181,24.932
		c-1.607,0.929-3.351,1.401-5.183,1.401c-3.705,0-7.157-1.986-9.007-5.182c-0.933-1.612-1.406-3.358-1.402-5.19
		c0-0.334-0.017-0.665-0.046-0.994V162.568H212.292z"/>
	<path style="fill:#000003;" d="M458.667,383.999H192.815c-4.405-12.415-16.259-21.333-30.164-21.333s-25.762,8.918-30.164,21.333
		H53.333c-5.893,0-10.667,4.776-10.667,10.667s4.775,10.667,10.667,10.667h79.152c4.402,12.415,16.259,21.332,30.164,21.332
		c13.905,0,25.76-8.918,30.164-21.332h265.852c5.892,0,10.667-4.776,10.667-10.667C469.334,388.774,464.558,383.999,458.667,383.999
		z M162.65,405.331c-5.882,0-10.665-4.784-10.665-10.664s4.783-10.665,10.665-10.665c5.874,0,10.653,4.774,10.663,10.644
		c0,0.007,0,0.014,0,0.021c0,0.006,0,0.014,0,0.021C173.303,400.558,168.524,405.331,162.65,405.331z"/>
</g>
</svg>