<svg version="1.1" id="Layer_1" xmlns="http://www.w3.org/2000/svg" xmlns:xlink="http://www.w3.org/1999/xlink" x="0px" y="0px"
	 viewBox="0 0 392.548 392.548" style="enable-background:new 0 0 392.548 392.548;" xml:space="preserve">
<path style="fill:#FFFFFF;" d="M158.14,142.495c-75.184,0-136.339,44.283-136.339,98.78c0,21.463,9.503,42.02,27.539,59.345
	c3.232,3.103,4.267,7.952,2.457,12.154l-21.204,50.23l76.865-27.992c2.004-0.776,4.267-0.84,6.335-0.323
	c14.287,3.556,29.156,5.43,44.218,5.43c75.184,0,136.339-44.283,136.339-98.78S233.324,142.495,158.14,142.495z"/>
<path style="fill:#56ACE0;" d="M80.694,300.361l-16.226-15.58c-9.503-9.115-20.881-24.113-20.881-43.572
	c0-41.697,52.493-76.994,114.489-76.994s114.489,35.232,114.489,76.994s-52.428,76.929-114.424,76.929
	c-13.317,0-26.376-1.616-38.853-4.719l-9.762-2.392l-39.434,14.287L80.694,300.361z"/>
<path style="fill:#FFC10D;" d="M343.158,179.925c18.036-17.325,27.539-37.818,27.539-59.345c0-54.497-61.091-98.78-136.339-98.78
	S98.019,66.083,98.019,120.58c0,1.745,0.323,6.206,0.453,8.986c18.36-5.689,38.465-8.857,59.604-8.857
	c79.968,0,146.23,45.511,156.638,104.339c0,0.065,0,0.129,0.065,0.259l47.063,17.067l-21.204-50.23
	C338.956,187.877,339.926,183.093,343.158,179.925z"/>
<g>
	<path style="fill:#194F82;" d="M363.651,190.268c18.941-20.428,28.897-44.347,28.897-69.624c0-66.521-70.917-120.63-158.125-120.63
		S76.298,54.123,76.298,120.58c0,5.56,0.517,11.184,1.616,16.743c-46.61,21.075-77.899,59.733-77.899,103.952
		c0,25.341,9.956,49.196,28.897,69.624L0.855,377.42c-1.681,4.008-0.84,8.598,2.133,11.766c3.491,3.426,7.434,4.008,11.572,2.715
		l97.293-35.297c14.998,3.491,30.513,5.236,46.222,5.236c83.846,0,152.695-50.101,157.802-113.067l61.996,22.497
		c4.396,1.487,8.275,0.388,11.572-2.715c3.038-3.168,3.879-7.758,2.133-11.766L363.651,190.268z M158.14,339.99
		c-15.063,0-29.931-1.745-44.218-5.43c-2.069-0.517-4.331-0.388-6.335,0.323l-76.929,27.992l21.204-50.23
		c1.745-4.202,0.776-8.986-2.457-12.154c-18.036-17.325-27.539-37.818-27.539-59.345c0-54.497,61.091-98.78,136.339-98.78
		s136.339,44.283,136.339,98.78S233.324,339.99,158.14,339.99z M314.843,225.178c0-0.065,0-0.129-0.065-0.259
		c-10.473-58.764-76.8-104.275-156.638-104.275c-21.075,0-41.18,3.168-59.604,8.857c-0.259-2.78-0.453-7.176-0.453-8.986
		c0-54.497,61.091-98.78,136.339-98.78s136.339,44.283,136.339,98.78c0,21.463-9.503,42.02-27.539,59.345
		c-3.232,3.103-4.267,7.952-2.457,12.154l21.204,50.23L314.843,225.178z"/>
	<path style="fill:#194F82;" d="M98.536,231.513H81.857c-6.012,0-10.925,4.848-10.925,10.925s4.848,10.925,10.925,10.925h16.679
		c6.012,0,10.925-4.848,10.925-10.925S104.548,231.513,98.536,231.513z"/>
	<path style="fill:#194F82;" d="M166.544,231.513h-16.679c-6.012,0-10.925,4.848-10.925,10.925s4.848,10.925,10.925,10.925h16.679
		c6.012,0,10.925-4.848,10.925-10.925S172.492,231.513,166.544,231.513z"/>
	<path style="fill:#194F82;" d="M234.423,231.513h-16.679c-6.012,0-10.925,4.848-10.925,10.925s4.848,10.925,10.925,10.925h16.679
		c6.012,0,10.925-4.848,10.925-10.925S240.5,231.513,234.423,231.513z"/>
	<path style="fill:#194F82;" d="M251.166,101.25h-16.743c-6.012,0-10.925,4.848-10.925,10.925c0,6.012,4.848,10.925,10.925,10.925
		h16.679c6.012,0,10.925-4.848,10.925-10.925C262.092,106.099,257.179,101.25,251.166,101.25z"/>
	<path style="fill:#194F82;" d="M319.175,101.25h-16.679c-6.012,0-10.925,4.848-10.925,10.925c0,6.012,4.848,10.925,10.925,10.925
		h16.679c6.012,0,10.925-4.848,10.925-10.925C330.035,106.099,325.187,101.25,319.175,101.25z"/>
</g>
</svg>