<svg version="1.1" id="Layer_1" xmlns="http://www.w3.org/2000/svg" xmlns:xlink="http://www.w3.org/1999/xlink" x="0px" y="0px"
	 viewBox="0 0 512.008 512.008" style="enable-background:new 0 0 512.008 512.008;" xml:space="preserve">
<rect x="70.636" style="fill:#FFFFFF;" width="370.72" height="494.344"/>
<rect x="70.628" width="370.72" height="59.488"/>
<g>
	<rect x="105.812" y="21.616" style="fill:#FFFFFF;" width="110.072" height="5.888"/>
	<rect x="105.812" y="31.992" style="fill:#FFFFFF;" width="84.296" height="5.888"/>
	<rect x="268.388" y="31.992" style="fill:#FFFFFF;" width="21.6" height="5.888"/>
	<rect x="297.412" y="31.992" style="fill:#FFFFFF;" width="21.6" height="5.888"/>
	<rect x="326.372" y="31.992" style="fill:#FFFFFF;" width="21.6" height="5.888"/>
	<rect x="355.332" y="31.992" style="fill:#FFFFFF;" width="21.6" height="5.888"/>
	<rect x="384.372" y="31.992" style="fill:#FFFFFF;" width="21.6" height="5.888"/>
</g>
<rect x="70.66" y="494.352" width="370.72" height="17.656"/>
<g>
	<rect x="267.74" y="224.4" style="fill:#32BEA6;" width="138.392" height="105.536"/>
	<rect x="105.812" y="224.4" style="fill:#32BEA6;" width="138.392" height="105.536"/>
	<rect x="267.74" y="353.52" style="fill:#32BEA6;" width="138.392" height="105.536"/>
	<rect x="105.812" y="353.52" style="fill:#32BEA6;" width="138.392" height="105.536"/>
	<rect x="267.74" y="94.8" style="fill:#32BEA6;" width="138.392" height="106.088"/>
	<rect x="105.812" y="94.8" style="fill:#32BEA6;" width="138.392" height="106.088"/>
</g>
</svg>