<svg version="1.1" id="Layer_1" xmlns="http://www.w3.org/2000/svg" xmlns:xlink="http://www.w3.org/1999/xlink" x="0px" y="0px"
	 viewBox="0 0 512 512" style="enable-background:new 0 0 512 512;" xml:space="preserve">
<path style="fill:#808285;" d="M112.607,321.694H20.287c-9.64,0-17.455-7.815-17.455-17.455V17.455C2.832,7.815,10.647,0,20.287,0
	h286.785c9.64,0,17.455,7.815,17.455,17.455v95.153c0,9.64-7.815,17.455-17.455,17.455h-177.01V304.24
	C130.062,313.879,122.248,321.694,112.607,321.694z"/>
<path style="fill:#414042;" d="M307.072,0H163.678v130.062h143.394c9.64,0,17.455-7.815,17.455-17.455V17.455
	C324.527,7.815,316.712,0,307.072,0z"/>
<path style="fill:#703996;" d="M112.607,238.499H68.581c-9.64,0-17.455-7.815-17.455-17.455V64.812
	c0-9.64,7.815-17.455,17.455-17.455h190.195c9.64,0,17.455,7.815,17.455,17.455v47.795c0,9.64-7.815,17.455-17.455,17.455H130.062
	v90.982C130.062,230.684,122.248,238.499,112.607,238.499z"/>
<path style="fill:#573285;" d="M258.776,47.358h-95.098v82.704h95.098c9.64,0,17.455-7.815,17.455-17.455V64.812
	C276.231,55.173,268.416,47.358,258.776,47.358z"/>
<path style="fill:#BCBEC0;" d="M204.928,416.848h-92.321c-9.64,0-17.455-7.815-17.455-17.455V112.607
	c0-9.64,7.815-17.455,17.455-17.455h286.784c9.64,0,17.455,7.815,17.455,17.455v95.152c0,9.64-7.815,17.455-17.455,17.455H222.383
	v174.179C222.383,409.033,214.569,416.848,204.928,416.848z"/>
<path style="fill:#808285;" d="M399.393,95.153H264.726v130.061h134.666c9.64,0,17.455-7.815,17.455-17.455v-95.152
	C416.847,102.968,409.032,95.153,399.393,95.153z"/>
<path style="fill:#834496;" d="M204.928,333.648h-44.03c-9.64,0-17.455-7.815-17.455-17.455V159.963
	c0-9.64,7.815-17.455,17.455-17.455h190.195c9.64,0,17.455,7.815,17.455,17.455v47.798c0,9.64-7.815,17.455-17.455,17.455H222.383
	v90.98C222.383,325.834,214.569,333.648,204.928,333.648z"/>
<path style="fill:#703996;" d="M351.095,142.508h-86.369v82.707h86.369c9.64,0,17.455-7.815,17.455-17.455v-47.798
	C368.549,150.323,360.734,142.508,351.095,142.508z"/>
<path style="fill:#F1F2F2;" d="M491.713,512H204.928c-9.64,0-17.455-7.815-17.455-17.455V207.76c0-9.64,7.815-17.455,17.455-17.455
	h286.785c9.64,0,17.455,7.815,17.455,17.455v286.785C509.168,504.185,501.354,512,491.713,512z"/>
<path style="fill:#BCBEC0;" d="M491.713,190.306H348.321V512h143.393c9.64,0,17.455-7.815,17.455-17.455V207.76
	C509.168,198.121,501.354,190.306,491.713,190.306z"/>
<path style="fill:#E65C7B;" d="M443.413,428.799H253.217c-9.64,0-17.455-7.815-17.455-17.455V255.112
	c0-9.64,7.815-17.455,17.455-17.455h190.195c9.64,0,17.455,7.815,17.455,17.455v156.232
	C460.867,420.984,453.052,428.799,443.413,428.799z"/>
<path style="fill:#834496;" d="M443.413,237.658h-95.091v191.141h95.091c9.64,0,17.455-7.815,17.455-17.455V255.112
	C460.867,245.473,453.052,237.658,443.413,237.658z"/>
</svg>