<svg version="1.1" id="Layer_1" xmlns="http://www.w3.org/2000/svg" xmlns:xlink="http://www.w3.org/1999/xlink" x="0px" y="0px"
	 viewBox="0 0 511.999 511.999" style="enable-background:new 0 0 511.999 511.999;" xml:space="preserve">
<g>
	<g>
		<path d="M312.222,145.449c-1.484-1.6-3.566-2.51-5.748-2.51h-92.066c-2.182,0-4.265,0.91-5.748,2.51
			c-1.483,1.601-2.232,3.746-2.067,5.921l8.438,110.788c0.311,4.086,3.718,7.242,7.815,7.242h75.197
			c4.097,0,7.503-3.157,7.815-7.242l8.431-110.788C314.454,149.195,313.706,147.049,312.222,145.449z M290.78,253.728h-60.671
			l-7.244-95.115h75.154L290.78,253.728z"/>
	</g>
</g>
<g>
	<g>
		<path d="M454.269,496.327h-69.822c-1.559-58.573-20.298-102.96-36.138-130.286c-14.88-25.673-29.728-41.173-34.881-46.179v-16.318
			h24.523c4.081,0,7.48-3.134,7.811-7.201l14.471-177.902h26.996c3.319,0,6.278-2.091,7.386-5.219
			c1.109-3.128,0.126-6.616-2.452-8.706l-73.885-59.886c-3.362-2.725-8.297-2.209-11.023,1.154
			c-2.725,3.362-2.209,8.297,1.154,11.023l8.707,7.057H203.765l56.675-45.937l24.093,19.528c3.363,2.725,8.298,2.21,11.023-1.154
			c2.725-3.362,2.209-8.298-1.154-11.023L265.376,1.748c-2.877-2.331-6.992-2.331-9.869,0L128.719,104.514
			c-2.578,2.09-3.561,5.578-2.452,8.706s4.068,5.219,7.386,5.219h26.996l4.758,58.455c0.351,4.314,4.129,7.531,8.446,7.175
			c4.313-0.351,7.526-4.133,7.175-8.446l-4.655-57.184h168.135l-13.781,169.43h-25.134h-90.144h-25.282l-6.527-80.189
			c-0.351-4.314-4.139-7.534-8.446-7.175c-4.313,0.351-7.526,4.133-7.175,8.446l7.114,87.39c0.331,4.069,3.729,7.201,7.811,7.201
			h24.67v17.043c-5.729,5.675-19.921,20.92-34.141,45.453c-15.839,27.326-34.579,71.714-36.138,130.286H57.73
			c-4.328,0-7.837,3.509-7.837,7.837s3.509,7.837,7.837,7.837h79.485h73.143h100.164h74.041h69.705
			c4.328,0.001,7.837-3.508,7.837-7.836C462.106,499.836,458.597,496.327,454.269,496.327z M167.873,102.766h-12.106l28.66-23.23
			h152.025l28.662,23.23h-12.106H167.873z M223.285,303.543h74.471V316.1h-74.471V303.543z M326.006,496.327
			c-0.806-16.977-4.174-36.191-10.04-57.253c-1.162-4.169-5.478-6.61-9.653-5.447c-4.169,1.161-6.608,5.483-5.446,9.652
			c5.471,19.639,8.63,37.435,9.44,53.048h-99.734c2.42-46.448,25.133-99.607,32.144-115.022h35.455
			c2.91,6.379,8.52,19.228,14.244,35.365c1.446,4.079,5.926,6.213,10.005,4.767s6.213-5.926,4.767-10.005
			c-8.522-24.029-16.649-40.709-16.991-41.408l-2.149-4.392h-55.211l-2.149,4.392c-1.406,2.873-33.074,68.199-35.812,126.304
			h-41.875c1.54-54.783,18.969-96.278,33.698-121.849c13.352-23.182,26.861-37.677,31.901-42.702h84.584
			c11.064,11.045,62.908,67.86,65.6,164.551H326.006z"/>
	</g>
</g>
</svg>