<svg version="1.1" id="Layer_1" xmlns="http://www.w3.org/2000/svg" xmlns:xlink="http://www.w3.org/1999/xlink" x="0px" y="0px"
	 viewBox="0 0 512.001 512.001" style="enable-background:new 0 0 512.001 512.001;" xml:space="preserve">
<g>
	<g>
		<g>
			<path d="M445.608,150.787l-6.381-55.668c-0.619-5.388-5.178-9.452-10.599-9.452H267.076l1.292-34.553l71.28-30.642
				c5.413-2.328,7.914-8.602,5.588-14.014c-2.328-5.413-8.599-7.913-14.014-5.588l-77.477,33.307
				c-3.784,1.627-6.293,5.286-6.446,9.401l-1.573,42.089H83.376c-5.421,0-9.979,4.065-10.599,9.45l-6.383,55.669
				c-0.347,3.021,0.612,6.046,2.637,8.317c2.025,2.269,4.92,3.567,7.961,3.567h7.374l33.157,339.699
				c0.533,5.465,5.128,9.632,10.617,9.632h255.722c5.491,0,10.084-4.167,10.617-9.632l29.507-302.317
				c0.211-0.84,0.336-1.712,0.336-2.617c0-0.186-0.019-0.367-0.027-0.55l3.339-34.215h7.374c3.041,0,5.938-1.298,7.961-3.567
				C444.994,156.833,445.953,153.808,445.608,150.787z M403.847,186.767h-72.975c-5.892,0-10.667,4.776-10.667,10.667
				c0,5.89,4.776,10.667,10.667,10.667h70.893l-27.58,282.564H137.817l-2.547-26.096h68.868c5.892,0,10.667-4.777,10.667-10.667
				c0-5.892-4.776-10.668-10.667-10.668h-70.951l-27.386-280.566h300.398L403.847,186.767z M417.958,141.335H94.043h-5.091
				L92.889,107h326.224l3.935,34.334H417.958z"/>
			<path d="M237.606,443.238h-0.409c-5.891,0-10.667,4.776-10.667,10.667c0,5.89,4.777,10.667,10.667,10.667h0.409
				c5.891,0,10.667-4.778,10.667-10.667C248.273,448.014,243.496,443.238,237.606,443.238z"/>
			<path d="M299.693,208.106h0.409c5.892,0,10.667-4.778,10.667-10.667c0-5.892-4.776-10.668-10.667-10.668h-0.409
				c-5.892,0-10.667,4.776-10.667,10.668C289.025,203.329,293.8,208.106,299.693,208.106z"/>
			<path d="M267.642,398.667c9.241,0,17.852-2.24,25.607-6.634c0.097-0.052,0.194-0.1,0.289-0.155
				c0.028-0.017,0.059-0.029,0.085-0.046c14.543-8.394,23.975-23.283,26.56-41.926c2.448-17.649-1.604-36.724-11.411-53.709
				c-14.565-25.229-39.851-41.533-64.414-41.533c-9.39,0-18.13,2.3-25.985,6.834c-0.016,0.008-0.03,0.019-0.046,0.029
				c-0.084,0.048-0.164,0.1-0.246,0.153c-14.371,8.425-23.697,23.231-26.263,41.745c-2.447,17.65,1.605,36.725,11.411,53.71
				C217.796,382.363,243.079,398.667,267.642,398.667z M244.359,276.001c17.08,0,35.112,12.115,45.936,30.864
				c7.445,12.895,10.554,27.139,8.755,40.11c-0.702,5.067-2.138,9.661-4.211,13.664c-5.62-14.089-16.176-24.089-26.491-33.859
				c-13.361-12.655-27.134-25.702-32.627-49.604C238.458,276.403,241.341,276.001,244.359,276.001z M212.95,306.355
				c0.761-5.482,2.378-10.405,4.734-14.628c8.108,24.118,23.295,38.515,35.992,50.544c11.982,11.349,21.07,19.978,23.369,33.661
				c-2.962,0.923-6.104,1.401-9.403,1.401c-17.08,0-35.11-12.115-45.936-30.865C214.262,333.572,211.152,319.327,212.95,306.355z"/>
		</g>
	</g>
</g>
</svg>