<svg version="1.1" id="Layer_1" xmlns="http://www.w3.org/2000/svg" xmlns:xlink="http://www.w3.org/1999/xlink" x="0px" y="0px"
	 viewBox="0 0 512.001 512.001" style="enable-background:new 0 0 512.001 512.001;" xml:space="preserve">
<g>
	<g>
		<circle style="fill:#009FD3;" cx="159.959" cy="160.002" r="149.335"/>
		<path style="fill:#009FD3;" d="M289.743,319.948l30.171-30.169c4.148-4.149,10.933-4.149,15.082,0l163.189,163.19
			c4.15,4.145,4.15,10.933,0.002,15.079l-30.171,30.174c-4.15,4.149-10.936,4.149-15.085,0l-163.19-163.19
			C285.593,330.886,285.593,324.098,289.743,319.948z"/>
	</g>
	
		<rect x="263.856" y="257.453" transform="matrix(0.7071 -0.7071 0.7071 0.7071 -118.1539 285.199)" style="fill:#FF9600;" width="42.665" height="55.541"/>
	<path style="fill:#00E58B;" d="M318.41,363.704l45.255-45.257l-28.669-28.668c-4.148-4.149-10.933-4.149-15.082,0l-30.171,30.169
		c-4.15,4.15-4.15,10.938-0.002,15.084L318.41,363.704z"/>
</g>
<g>
	<path style="fill:#000003;" d="M88.539,224.153c-3.939-4.383-10.686-4.739-15.063-0.799c-4.381,3.938-4.739,10.684-0.8,15.064
		c1.386,1.539,2.837,3.071,4.317,4.552c2.083,2.082,4.813,3.124,7.544,3.124c2.73,0,5.458-1.042,7.541-3.124
		c4.166-4.165,4.166-10.92,0-15.086C90.863,226.668,89.672,225.412,88.539,224.153z"/>
	<path style="fill:#000003;" d="M76.992,77.031c-17.185,17.185-28.466,38.885-32.621,62.753
		c-4.061,23.324-1.077,47.013,8.623,68.506c1.781,3.945,5.665,6.282,9.729,6.282c1.467,0,2.958-0.305,4.381-0.948
		c5.369-2.422,7.759-8.74,5.333-14.111c-16.326-36.167-8.431-79.326,19.64-107.396c4.166-4.165,4.166-10.919,0-15.086
		C87.914,72.868,81.162,72.867,76.992,77.031z"/>
	<path style="fill:#000003;" d="M275.551,180.215c4.059-23.322,1.079-47.012-8.621-68.506c-2.422-5.37-8.739-7.756-14.111-5.336
		c-5.369,2.422-7.758,8.74-5.336,14.111c16.323,36.169,8.429,79.329-19.64,107.398c-4.164,4.165-4.164,10.92,0,15.086
		c2.083,2.082,4.813,3.124,7.544,3.124c2.73,0,5.458-1.042,7.541-3.124C260.115,225.782,271.395,204.082,275.551,180.215z"/>
	<path style="fill:#000003;" d="M231.384,95.85c2.107,2.342,5.014,3.535,7.934,3.535c2.542,0,5.091-0.903,7.13-2.736
		c4.381-3.938,4.739-10.684,0.8-15.064c-1.404-1.562-2.859-3.094-4.323-4.556c-4.169-4.162-10.921-4.157-15.084,0.012
		c-4.162,4.169-4.158,10.922,0.011,15.085C229.044,93.318,230.234,94.572,231.384,95.85z"/>
	<path style="fill:#000003;" d="M505.726,445.427L371.229,310.928c-0.009-0.009-0.015-0.017-0.021-0.023
		c-0.009-0.006-0.017-0.014-0.022-0.022l-28.646-28.643c-4.021-4.023-9.377-6.238-15.084-6.238c-1.888,0-3.727,0.265-5.502,0.734
		l-28.501-28.501c41.063-62.091,34.282-146.735-20.354-201.372C242.878,16.643,202.698,0,159.96,0S77.042,16.643,46.823,46.862
		c-62.381,62.384-62.381,163.89,0,226.275C77.042,303.357,117.222,320,159.959,320c31.865,0,62.305-9.257,88.259-26.49
		l28.477,28.479c-0.469,1.775-0.734,3.616-0.734,5.502c0,5.707,2.214,11.064,6.234,15.084l28.65,28.65
		c0.009,0.007,0.013,0.015,0.021,0.022c0.006,0.009,0.015,0.013,0.021,0.019l134.5,134.498c4.021,4.021,9.379,6.236,15.086,6.236
		c5.705,0,11.063-2.214,15.084-6.237l30.169-30.17c4.022-4.021,6.238-9.378,6.238-15.087
		C511.964,454.798,509.747,449.441,505.726,445.427z M348.579,318.448l-30.167,30.169l-21.128-21.127l0,0l30.169-30.167
		L348.579,318.448z M61.909,258.052c-54.066-54.066-54.066-142.039,0-196.104c26.19-26.19,61.011-40.614,98.051-40.614
		c37.038,0,71.861,14.424,98.053,40.614c54.031,54.03,54.066,141.926,0.102,196.001l-0.21,0.208
		c-26.179,26.122-60.956,40.509-97.944,40.509C122.92,298.666,88.099,284.242,61.909,258.052z M272.97,273.264
		c0.044-0.042,0.087-0.083,0.129-0.126c0.042-0.041,0.081-0.083,0.123-0.124l7.419-7.421l24.186,24.187l-15.084,15.085
		l-24.186-24.187L272.97,273.264z M460.501,490.663c-0.004,0.001-0.015,0.003-0.027,0.003v0.013L333.497,363.703l30.167-30.17
		l126.978,126.973L460.501,490.663z"/>
</g>
</svg>