<svg version="1.1" id="Layer_1" xmlns="http://www.w3.org/2000/svg" xmlns:xlink="http://www.w3.org/1999/xlink" x="0px" y="0px"
	 viewBox="0 0 511.996 511.996" style="enable-background:new 0 0 511.996 511.996;" xml:space="preserve">
<g>
	<g>
		<g>
			<path d="M405.331,341.329h-42.667v-42.667c0-11.782-9.551-21.333-21.333-21.333c-11.782,0-21.333,9.551-21.333,21.333v42.667
				h-42.667c-11.782,0-21.333,9.551-21.333,21.333s9.551,21.333,21.333,21.333h42.667v42.667c0,11.782,9.551,21.333,21.333,21.333
				c11.782,0,21.333-9.551,21.333-21.333v-42.667h42.667c11.782,0,21.333-9.551,21.333-21.333S417.113,341.329,405.331,341.329z"/>
			<path d="M446.578,256.723c0.931-7.663,1.42-14.865,1.42-22.061v-85.333c0-11.782-9.551-21.333-21.333-21.333
				c-11.782,0-21.333,9.551-21.333,21.333v78.377c-13.337-6.335-27.763-10.748-42.92-12.889c-0.157-0.022-0.315-0.044-0.472-0.066
				c-1.136-0.157-2.275-0.3-3.419-0.431c-0.265-0.031-0.53-0.062-0.795-0.091c-1.04-0.114-2.084-0.214-3.13-0.307
				c-0.339-0.03-0.676-0.063-1.015-0.09c-0.986-0.08-1.975-0.146-2.966-0.207c-0.38-0.023-0.758-0.052-1.139-0.072
				c-0.995-0.053-1.995-0.091-2.995-0.125c-0.362-0.012-0.723-0.031-1.086-0.041c-1.349-0.036-2.703-0.057-4.061-0.057V106.667
				C341.333,47.759,293.574,0,234.667,0S128,47.759,128,106.667v21.287c0,0.014-0.002,0.028-0.002,0.042
				c0,0.014,0.002,0.028,0.002,0.042v85.249c0,0.014-0.002,0.028-0.002,0.042s0.002,0.028,0.002,0.042v21.295
				c0,44.336,27.39,82.585,66.946,98.343c-1.931,9.584-2.948,19.499-2.948,29.653c0,0.924,0.012,1.818,0.034,2.716
				c0.052,2.883,0.177,5.749,0.389,8.59c-0.293,4.005-0.424,6.832-0.424,10.027c0,5.341,0.292,10.651,0.869,15.92
				C118.74,381.1,63.998,313.645,63.998,234.662v-85.333c0-11.782-9.551-21.333-21.333-21.333c-11.782,0-21.333,9.551-21.333,21.333
				v85.333c0,111.207,86.498,203.924,196.855,212.486c26.919,39.163,72.027,64.847,123.145,64.847
				c82.481,0,149.333-66.853,149.333-149.333C490.665,321.246,473.805,283.773,446.578,256.723z M170.667,234.667v-0.004h21.331
				c11.782,0,21.333-9.551,21.333-21.333c0-11.782-9.551-21.333-21.333-21.333h-21.331v-42.667h21.331
				c11.782,0,21.333-9.551,21.333-21.333c0-11.782-9.551-21.333-21.333-21.333h-21.331c0.002-35.341,28.658-63.996,64-63.996
				s63.998,28.654,64,63.996h-21.335c-11.782,0-21.333,9.551-21.333,21.333c0,11.782,9.551,21.333,21.333,21.333h21.336v42.667
				h-21.336c-11.782,0-21.333,9.551-21.333,21.333c0,8.454,4.93,15.737,12.061,19.19c-24.878,14.036-45.324,34.996-58.729,60.268
				C186.361,283.003,170.667,260.556,170.667,234.667z M341.331,469.329c-55.554,0-101.172-42.457-106.199-96.697v-0.978
				c-0.268-3.401-0.404-5.582-0.449-7.525c-0.007-0.489-0.019-0.976-0.019-1.466c0-12.267,2.077-24.047,5.887-35.016
				c0.311-0.637,0.601-1.289,0.852-1.965c13.167-35.555,44.432-61.668,81.994-68.04c0.709-0.12,1.4-0.284,2.081-0.471
				c5.173-0.771,10.465-1.174,15.853-1.174c1.463,0,2.919,0.038,4.372,0.096c0.206,0.008,0.413,0.014,0.619,0.023
				c1.405,0.065,2.805,0.159,4.2,0.278c0.206,0.018,0.412,0.036,0.618,0.055c1.436,0.131,2.868,0.287,4.291,0.476
				c0.076,0.01,0.152,0.022,0.228,0.032c20.138,2.712,38.893,11.11,54.421,24.231c0.4,0.338,0.807,0.657,1.219,0.96
				c22.485,19.555,36.699,48.373,36.699,80.516C447.998,421.579,400.248,469.329,341.331,469.329z"/>
		</g>
	</g>
</g>
</svg>