<svg version="1.1" id="Layer_1" xmlns="http://www.w3.org/2000/svg" xmlns:xlink="http://www.w3.org/1999/xlink" x="0px" y="0px"
	 viewBox="0 0 392.574 392.574" style="enable-background:new 0 0 392.574 392.574;" xml:space="preserve">
<g>
	<path style="fill:#FFFFFF;" d="M325.689,173.798c0-83.782-68.137-151.984-151.984-151.984
		c-83.782,0-151.984,68.137-151.984,151.984c0,83.782,68.137,151.984,151.984,151.984
		C257.552,325.717,325.689,257.58,325.689,173.798z"/>
	<path style="fill:#FFFFFF;" d="M309.139,282.533c-7.887,9.826-16.873,18.747-26.764,26.764l60.121,60.121
		c1.939,1.939,5.107,1.939,7.111,0l19.653-19.653c1.939-1.939,1.939-5.172,0-7.111L309.139,282.533z"/>
</g>
<path style="fill:#194F82;" d="M384.711,327.204l-62.772-62.772c16.226-26.44,25.6-57.406,25.6-90.634
	c0-95.806-77.964-173.77-173.77-173.77S0,77.992,0,173.798s77.964,173.77,173.77,173.77c33.228,0,64.194-9.374,90.634-25.6
	l62.772,62.772c11.507,10.408,27.604,10.408,37.947,0l19.653-19.653C395.184,354.614,395.184,337.612,384.711,327.204z
	 M369.261,349.701l-19.653,19.653c-1.939,1.939-5.107,1.939-7.111,0l-60.121-60.121c9.826-7.887,18.747-16.873,26.764-26.764
	l60.121,60.121C371.2,344.594,371.2,347.762,369.261,349.701z M21.786,173.798c0-83.782,68.137-151.984,151.984-151.984
	c83.782,0,151.984,68.137,151.984,151.984c0,83.782-68.137,151.984-151.984,151.984C89.923,325.717,21.786,257.58,21.786,173.798z"
	/>
<path style="fill:#FFC10D;" d="M173.77,303.931c-71.758,0-130.133-58.44-130.133-130.133S101.947,43.6,173.77,43.6
	s130.133,58.44,130.133,130.133S245.592,303.931,173.77,303.931z"/>
<path style="fill:#194F82;" d="M173.77,43.6c-6.012,0-10.925,4.848-10.925,10.925c0,6.012,4.848,10.925,10.925,10.925
	c59.733,0,108.347,48.614,108.347,108.347c0,6.012,4.848,10.925,10.925,10.925c6.077,0,10.925-4.848,10.925-10.925
	C303.903,102.04,245.592,43.6,173.77,43.6z"/>
<path style="fill:#56ACE0;" d="M227.62,161.451c0-18.941-16.291-34.133-35.685-32.323c-10.15,1.034-19.006,7.046-24.566,15.515
	c-4.008,6.077-12.929,6.077-16.937,0l0,0c-5.56-8.469-14.481-14.545-24.566-15.515c-19.329-1.875-35.685,13.317-35.685,32.323
	c0,22.303,39.564,64.453,68.59,89.859C188.057,225.58,227.62,183.172,227.62,161.451z"/>
<path style="fill:#194F82;" d="M195.232,107.212c-13.576,0-26.44,5.042-36.267,13.899c-9.826-8.857-22.626-13.899-36.267-13.899
	c-29.931,0-54.238,24.372-54.238,54.238c0,42.279,74.925,105.568,83.523,112.679l0.517,0.388c3.814,3.103,9.18,3.103,12.994-0.065
	l0.453-0.388c8.598-7.176,83.459-71.37,83.459-112.614C249.535,131.519,225.164,107.212,195.232,107.212z M90.311,161.451
	c0-18.941,16.291-34.133,35.685-32.323c10.149,1.034,19.006,7.046,24.566,15.515l0,0c4.008,6.077,12.929,6.077,16.937,0
	c5.56-8.469,14.481-14.545,24.566-15.515c19.329-1.875,35.685,13.317,35.685,32.323c0,21.657-39.628,64.129-68.719,89.859
	C129.875,225.968,90.311,183.754,90.311,161.451z"/>
</svg>