<svg version="1.1" id="Layer_1" xmlns="http://www.w3.org/2000/svg" xmlns:xlink="http://www.w3.org/1999/xlink" x="0px" y="0px"
	 viewBox="0 0 503.726 503.726" style="enable-background:new 0 0 503.726 503.726;" xml:space="preserve">
<g>
	<g>
		<path d="M486.795,242.283c-6.062-30.375-15.635-51.572-28.066-65.246c-13.068-14.375-27.269-18.833-39.056-17.57
			c-0.025,0.003-0.297,0.006-0.749,0.009c-2.634-9.638-11.45-16.727-21.922-16.727h-2.451c-18.779,0-22.723-5.061-27.298-29.47
			c0.076,0.403-1.447-7.845-1.922-10.303c-0.816-4.216-1.594-7.865-2.466-11.465c-3.435-14.18-15.631-24.303-30.047-24.303h-13.809
			v-8.393c0-4.636-3.758-8.393-8.393-8.393H193.107c-4.636,0-8.393,3.758-8.393,8.393v8.393h-13.806
			c-14.416,0-26.612,10.123-30.048,24.303c-0.749,3.092-1.449,6.221-2.247,9.99c-0.353,1.668-1.617,7.759-1.907,9.13
			c-5.539,26.172-10.248,32.117-29.983,32.117c-10.494,0-19.325,7.118-21.939,16.787h-0.154
			c-12.365-1.332-26.566,3.127-39.634,17.502c-12.431,13.674-22.004,34.871-27.987,64.787L0.144,359.791L0,360.799l0.101,1.014
			c0.374,3.743,2.089,9.457,6.033,16.418c6.229,10.992,16.386,21.798,31.237,31.698c40.911,27.274,110.154,43.377,214.492,43.377
			s173.581-16.103,214.492-43.377c14.851-9.901,25.008-20.706,31.237-31.698c3.944-6.961,5.659-12.675,6.033-16.418l0.101-1.014
			L486.795,242.283z M243.47,369.371h16.787v21.704l-8.393,8.393l-8.393-8.393V369.371z M277.042,352.584h-8.392h-33.574h-8.395
			v-50.361h50.361V352.584z M106.724,159.535h111.564v100.721H105.33c-2.516,0-4.549-2.034-4.549-4.549v-90.229
			C100.781,162.198,103.444,159.535,106.724,159.535z M268.648,285.437h-33.572v-8.393v-16.787V159.535h33.572V285.437z
			 M397.002,159.535c3.279,0,5.943,2.663,5.943,5.943v90.229c0,2.516-2.034,4.549-4.549,4.549H285.437V159.535H397.002z
			 M302.222,67.207v16.787H201.501v-8.36c0-0.011,0.002-0.022,0.002-0.034s-0.002-0.022-0.002-0.034v-8.36H302.222z
			 M153.129,114.107c0.299-1.415,1.563-7.505,1.907-9.129c0.767-3.621,1.433-6.601,2.139-9.513
			c1.653-6.821,7.254-11.47,13.733-11.47h13.806v8.393c0,4.636,3.758,8.393,8.393,8.393h117.508c4.636,0,8.393-3.758,8.393-8.393
			v-8.393h13.809c6.479,0,12.08,4.649,13.733,11.469c0.804,3.319,1.53,6.722,2.3,10.702c0.459,2.373,1.967,10.544,1.904,10.205
			c2.091,11.158,4.604,19.826,8.256,26.378h-73.575H268.65h-33.574h-16.789h-74.974
			C147.552,135.753,150.538,126.348,153.129,114.107z M482.987,369.954c-4.919,8.68-13.253,17.547-25.944,26.007
			c-37.778,25.185-103.879,40.557-205.18,40.557S84.46,421.146,46.683,395.961c-12.69-8.46-21.025-17.327-25.944-26.007
			c-2.332-4.115-3.433-7.236-3.804-9.004l16.613-116.294c5.348-26.674,13.677-45.117,23.869-56.328
			c9.191-10.11,18.069-12.897,24.847-12.171c0.15,0.016,1.73,0.164,1.73,0.164v79.385c0,11.787,9.549,21.336,21.336,21.336h112.957
			v8.393c-4.636,0-8.393,3.758-8.393,8.393v67.148c0,4.636,3.758,8.393,8.393,8.393h8.395v25.18c0,2.226,0.884,4.361,2.458,5.935
			l16.787,16.787c3.278,3.278,8.592,3.278,11.87,0l16.787-16.787c1.574-1.574,2.458-3.709,2.458-5.935v-25.18h8.392
			c4.636,0,8.393-3.758,8.393-8.393V293.83c0-4.635-3.757-8.393-8.392-8.393v-8.394h112.959c11.787,0,21.336-9.549,21.336-21.336
			v-79.385l1.646-0.163c6.861-0.727,15.739,2.06,24.93,12.17c10.163,11.18,18.474,29.551,23.902,56.56l16.58,116.062
			C486.42,362.718,485.319,365.839,482.987,369.954z"/>
	</g>
</g>
</svg>