<svg version="1.1" id="Layer_1" xmlns="http://www.w3.org/2000/svg" xmlns:xlink="http://www.w3.org/1999/xlink" x="0px" y="0px"
	 viewBox="0 0 511.479 511.479" style="enable-background:new 0 0 511.479 511.479;" xml:space="preserve">
<g>
	<g>
		<g>
			<path d="M511.479,85.977c0-8.414-3.285-16.333-9.233-22.281l-51.968-51.968c-12.288-12.297-32.29-12.297-44.578,0l-25.984,25.984
				l-11.264-11.273c-7.091-7.091-18.645-7.1-25.737,0l-22.537,22.537c-7.091,7.1-7.091,18.645,0,25.737l11.051,11.051
				l-75.494,70.229L180.25,85.763L191.3,74.713c7.091-7.091,7.091-18.637,0-25.737l-22.537-22.537c-7.091-7.1-18.645-7.091-25.737,0
				l-11.264,11.273l-25.984-25.984c-12.288-12.288-32.282-12.297-44.578,0L9.233,63.696C3.285,69.644,0,77.563,0,85.977
				c0,8.422,3.285,16.341,9.233,22.298l25.984,25.975l-11.264,11.264c-7.1,7.1-7.1,18.645,0,25.745l22.528,22.537
				c3.55,3.541,8.209,5.316,12.868,5.316c4.668,0,9.327-1.775,12.877-5.325l11.614-11.622l52.429,46.404v-35.328
				c0-4.71,3.823-8.533,8.533-8.533h8.533v-17.067c0-4.71,3.823-8.533,8.533-8.533h17.067c4.719,0,8.533,3.823,8.533,8.533
				s-3.814,8.533-8.533,8.533h-8.533v17.067c0,4.71-3.814,8.533-8.533,8.533h-8.533v41.899l34.133,30.208v98.56h-15.932
				c-10.035,0-18.202,8.166-18.202,18.202v31.863c0,10.044,8.166,18.202,18.202,18.202h15.932v50.065
				c0,10.044,8.166,18.202,18.202,18.202h100.139c10.035,0,18.193-8.158,18.193-18.202v-50.065h15.94
				c10.035,0,18.193-8.158,18.193-18.202v-31.863c0-10.035-8.158-18.202-18.193-18.202h-15.94v-98.56l34.133-30.208v-41.899h-8.533
				c-4.71,0-8.533-3.823-8.533-8.533v-17.067h-8.533c-4.71,0-8.533-3.823-8.533-8.533s3.823-8.533,8.533-8.533h17.067
				c4.719,0,8.533,3.823,8.533,8.533v17.067h8.533c4.719,0,8.533,3.823,8.533,8.533v35.328l52.437-46.404l11.614,11.622
				c3.55,3.55,8.209,5.325,12.868,5.325c4.668,0,9.327-1.775,12.877-5.325l22.537-22.528c7.091-7.1,7.091-18.645-0.009-25.745
				l-11.264-11.264l25.984-25.975C508.194,102.318,511.479,94.399,511.479,85.977z M179.234,62.646l-17.306,17.297l-84.471,84.48
				L60.16,181.721c-0.444,0.444-1.169,0.444-1.613,0l-22.528-22.528c-0.444-0.444-0.444-1.169,0-1.604l17.297-17.306l84.48-84.471
				l17.297-17.306c0.222-0.213,0.512-0.324,0.802-0.324c0.29,0,0.58,0.111,0.802,0.324l22.536,22.537
				C179.669,61.486,179.669,62.203,179.234,62.646z M339.942,389.507c0.623,0,1.126,0.512,1.126,1.135v31.863
				c0,0.631-0.503,1.135-1.126,1.135h-24.474H196.002h-24.465c-0.623,0-1.135-0.503-1.135-1.135v-31.863
				c0-0.623,0.512-1.135,1.135-1.135h24.465h119.467H339.942z M475.46,159.193l-22.528,22.528c-0.444,0.444-1.169,0.444-1.613,0
				l-17.297-17.297l-84.471-84.48l-17.306-17.297c-0.435-0.444-0.435-1.161,0-1.604l22.536-22.537
				c0.222-0.213,0.512-0.324,0.802-0.324c0.29,0,0.58,0.111,0.802,0.324l17.297,17.306l84.48,84.471l17.297,17.306
				C475.904,158.023,475.904,158.749,475.46,159.193z"/>
			<path d="M151.352,285.668l-25.054-37.436c-3.166-4.736-11.017-4.736-14.182,0L87.233,285.42
				c-16.23,22.477-15.88,48.853,0.888,65.613c8.303,8.303,19.345,12.877,31.087,12.877s22.784-4.574,31.087-12.877
				C162.036,339.291,171.781,318.453,151.352,285.668z"/>
			<path d="M399.365,248.229c-3.166-4.736-11.017-4.736-14.182,0l-25.207,37.675c-20.275,32.546-10.539,53.385,1.212,65.126
				c8.303,8.303,19.345,12.877,31.087,12.877c11.742,0,22.784-4.574,31.087-12.877c16.759-16.759,17.118-43.127,1.058-65.365
				L399.365,248.229z"/>
		</g>
	</g>
</g>
</svg>