<svg version="1.1" id="Layer_1" xmlns="http://www.w3.org/2000/svg" xmlns:xlink="http://www.w3.org/1999/xlink" x="0px" y="0px"
	 viewBox="0 0 512 512" style="enable-background:new 0 0 512 512;" xml:space="preserve">
<g transform="translate(1 1)">
	<g>
		<path style="fill:#FFE100;" d="M339.156,67.267c-5.12,0-8.533-3.413-8.533-8.533V24.6c0-5.12,3.413-8.533,8.533-8.533
			c5.12,0,8.533,3.413,8.533,8.533v34.133C347.689,63.853,344.276,67.267,339.156,67.267z"/>
		<path style="fill:#FFE100;" d="M373.289,67.267c-5.12,0-8.533-3.413-8.533-8.533V24.6c0-5.12,3.413-8.533,8.533-8.533
			s8.533,3.413,8.533,8.533v34.133C381.822,63.853,378.409,67.267,373.289,67.267z"/>
		<path style="fill:#FFE100;" d="M407.422,67.267c-5.12,0-8.533-3.413-8.533-8.533V24.6c0-5.12,3.413-8.533,8.533-8.533
			s8.533,3.413,8.533,8.533v34.133C415.956,63.853,412.542,67.267,407.422,67.267z"/>
		<path style="fill:#FFE100;" d="M441.556,67.267c-5.12,0-8.533-3.413-8.533-8.533V24.6c0-5.12,3.413-8.533,8.533-8.533
			s8.533,3.413,8.533,8.533v34.133C450.089,63.853,446.676,67.267,441.556,67.267z"/>
		<path style="fill:#FFE100;" d="M475.689,67.267c-5.12,0-8.533-3.413-8.533-8.533V24.6c0-5.12,3.413-8.533,8.533-8.533
			s8.533,3.413,8.533,8.533v34.133C484.222,63.853,480.809,67.267,475.689,67.267z"/>
		<path style="fill:#FFE100;" d="M176.169,502.467h-99.84c-5.973,0-10.24-4.267-10.24-9.387V434.2h119.467v58.88
			C185.556,498.2,181.289,502.467,176.169,502.467"/>
		<polygon style="fill:#FFE100;" points="66.089,383 185.556,383 185.556,127 66.089,127 		"/>
		<path style="fill:#FFE100;" d="M185.556,75.8H66.089V16.92c0-5.12,4.267-9.387,10.24-9.387h99.84c5.12,0,9.387,4.267,9.387,9.387
			V75.8z"/>
		<path style="fill:#FFE100;" d="M210.302,127H42.196c-5.973,0-10.24-4.267-10.24-9.387V85.187c0-5.12,4.267-9.387,10.24-9.387
			h168.107c5.12,0,9.387,4.267,9.387,9.387v31.573C219.689,122.733,215.422,127,210.302,127"/>
		<path style="fill:#FFE100;" d="M210.302,434.2H42.196c-5.973,0-10.24-4.267-10.24-9.387V393.24c0-5.973,4.267-10.24,10.24-10.24
			h168.107c5.12,0,9.387,4.267,9.387,9.387v31.573C219.689,429.933,215.422,434.2,210.302,434.2"/>
	</g>
	<g>
		<path style="fill:#FFFFFF;" d="M91.689,493.08V434.2h-25.6v58.88c0,5.12,4.267,9.387,10.24,9.387h25.6
			C95.956,502.467,91.689,498.2,91.689,493.08"/>
		<polygon style="fill:#FFFFFF;" points="66.089,383 91.689,383 91.689,127 66.089,127 		"/>
		<path style="fill:#FFFFFF;" d="M101.929,7.533h-25.6c-5.973,0-10.24,4.267-10.24,9.387V75.8h25.6V16.92
			C91.689,11.8,95.956,7.533,101.929,7.533"/>
		<path style="fill:#FFFFFF;" d="M57.556,117.613V85.187c0-5.12,4.267-9.387,10.24-9.387h-25.6c-5.973,0-10.24,4.267-10.24,9.387
			v31.573c0,5.973,4.267,10.24,10.24,10.24h25.6C61.822,127,57.556,122.733,57.556,117.613"/>
		<path style="fill:#FFFFFF;" d="M57.556,424.813V393.24c0-5.973,4.267-10.24,10.24-10.24h-25.6c-5.973,0-10.24,4.267-10.24,9.387
			v31.573c0,5.973,4.267,10.24,10.24,10.24h25.6C61.822,434.2,57.556,429.933,57.556,424.813"/>
	</g>
	<path style="fill:#FFE100;" d="M322.089,66.413V101.4c0,4.267,3.413,7.68,7.68,7.68h137.387c4.267,0,7.68-3.413,7.68-7.68V66.413
		c0.853-4.267-2.56-7.68-6.827-7.68H330.622C325.502,58.733,322.089,62.147,322.089,66.413"/>
	<path style="fill:#FFA800;" d="M468.009,58.733h-25.6c4.267,0,7.68,3.413,7.68,7.68V101.4c0,4.267-3.413,7.68-7.68,7.68h25.6
		c4.267,0,7.68-3.413,7.68-7.68V66.413C475.689,62.147,472.276,58.733,468.009,58.733"/>
	<path style="fill:#FFE100;" d="M347.689,109.933c-4.267,52.907-48.64,93.867-101.547,93.867h-59.733v102.4h59.733
		c110.08,0,199.68-87.04,203.947-196.267H347.689z"/>
	<path style="fill:#FFA800;" d="M432.169,109.933c-12.8,100.693-98.987,179.2-203.093,179.2h-42.667V306.2h59.733
		c110.08,0,199.68-87.04,203.947-196.267H432.169z"/>
	<g>
		<path style="fill:#63D3FD;" d="M322.942,415.427L322.942,415.427c13.653,13.653,36.693,13.653,50.347,0
			c13.653-13.653,13.653-35.84,0-54.613l-25.6-37.547l-24.747,37.547C309.289,383,309.289,401.773,322.942,415.427"/>
		<path style="fill:#63D3FD;" d="M416.809,492.227L416.809,492.227c13.653,13.653,36.693,13.653,50.347,0
			c13.653-13.653,13.653-35.84,0-54.613l-25.6-37.547l-24.747,37.547C403.156,459.8,403.156,478.573,416.809,492.227"/>
	</g>
	<path style="fill:#3DB9F9;" d="M449.236,492.227c13.653-13.653,13.653-35.84,0-54.613l-16.213-23.893l9.387-13.653l24.747,37.547
		c13.653,18.773,13.653,40.96,0,54.613c-9.387,9.387-22.187,11.947-34.133,9.387C438.996,499.907,444.969,496.493,449.236,492.227"
		/>
	<path style="fill:#FFFFFF;" d="M342.569,415.427c-13.653-13.653-13.653-35.84,0-54.613l16.213-23.893l-9.387-13.653l-24.747,37.547
		c-13.653,18.773-13.653,40.96,0,54.613c9.387,9.387,22.187,11.947,34.133,9.387C352.809,423.107,346.836,419.693,342.569,415.427"
		/>
	<path d="M176.169,511h-99.84c-10.24,0-18.773-8.533-18.773-17.92V434.2c0-5.12,3.413-8.533,8.533-8.533h119.467
		c5.12,0,8.533,3.413,8.533,8.533v58.88C194.089,502.467,186.409,511,176.169,511z M74.622,442.733v50.347
		c0,0,0.853,0.853,1.707,0.853h99.84c0.853,0,0.853-0.853,0.853-0.853v-50.347H74.622z"/>
	<path d="M185.556,391.533H66.089c-5.12,0-8.533-3.413-8.533-8.533V127c0-5.12,3.413-8.533,8.533-8.533h119.467
		c5.12,0,8.533,3.413,8.533,8.533v256C194.089,388.12,190.676,391.533,185.556,391.533z M74.622,374.467h102.4V135.533h-102.4
		V374.467z"/>
	<path d="M185.556,84.333H66.089c-4.267,0-8.533-3.413-8.533-8.533V16.92C57.556,7.533,66.089-1,76.329-1h99.84
		c10.24,0,17.92,8.533,17.92,17.92V75.8C194.089,80.92,190.676,84.333,185.556,84.333z M74.622,67.267h102.4V16.92
		c0,0,0-0.853-0.853-0.853h-99.84c-0.853,0-1.707,0.853-1.707,0.853V67.267z"/>
	<path d="M210.302,135.533H42.196c-10.24,0-18.773-8.533-18.773-17.92V85.187c0-9.387,8.533-17.92,18.773-17.92h168.107
		c10.24,0,17.92,8.533,17.92,17.92v31.573C228.222,127,220.542,135.533,210.302,135.533z M42.196,84.333
		c-0.853,0-1.707,0.853-1.707,0.853v31.573c0,0.853,0.853,1.707,1.707,1.707h168.107c0.853,0,0.853-0.853,0.853-0.853V85.187
		c0,0,0-0.853-0.853-0.853H42.196z"/>
	<path d="M210.302,442.733H42.196c-10.24,0-18.773-8.533-18.773-17.92V393.24c0-10.24,8.533-18.773,18.773-18.773h168.107
		c10.24,0,17.92,8.533,17.92,17.92v31.573C228.222,434.2,220.542,442.733,210.302,442.733z M42.196,391.533
		c-0.853,0-1.707,0.853-1.707,0.853v31.573c0,0.853,0.853,1.707,1.707,1.707h168.107c0.853,0,0.853-0.853,0.853-0.853V393.24
		c0-0.853-0.853-0.853-0.853-0.853H42.196V391.533z"/>
	<path d="M468.009,118.467H330.622c-9.387,0-16.213-7.68-16.213-16.213v-35.84c-0.853-8.533,6.827-16.213,16.213-16.213h137.387
		c9.387,0,16.213,7.68,16.213,16.213V101.4C484.222,110.787,477.396,118.467,468.009,118.467z M467.156,66.413l-136.533,0.853
		l0.853,34.987l135.68-0.853V66.413z"/>
	<path d="M245.289,314.733h-68.267V195.267h68.267c48.64,0,89.6-37.547,93.867-86.187l0.853-7.68h119.467v8.533
		C453.502,225.133,360.489,314.733,245.289,314.733z M194.089,297.667h51.2c102.4,0,186.88-77.653,195.413-179.2h-85.333
		c-8.533,52.907-54.613,93.867-109.227,93.867h-51.2v85.333H194.089z"/>
	<path d="M330.622,67.267c-5.12,0-8.533-3.413-8.533-8.533V24.6c0-5.12,3.413-8.533,8.533-8.533c5.12,0,8.533,3.413,8.533,8.533
		v34.133C339.156,63.853,335.742,67.267,330.622,67.267z"/>
	<path d="M364.756,67.267c-5.12,0-8.533-3.413-8.533-8.533V24.6c0-5.12,3.413-8.533,8.533-8.533c5.12,0,8.533,3.413,8.533,8.533
		v34.133C373.289,63.853,369.876,67.267,364.756,67.267z"/>
	<path d="M398.889,67.267c-5.12,0-8.533-3.413-8.533-8.533V24.6c0-5.12,3.413-8.533,8.533-8.533c5.12,0,8.533,3.413,8.533,8.533
		v34.133C407.422,63.853,404.009,67.267,398.889,67.267z"/>
	<path d="M433.022,67.267c-5.12,0-8.533-3.413-8.533-8.533V24.6c0-5.12,3.413-8.533,8.533-8.533s8.533,3.413,8.533,8.533v34.133
		C441.556,63.853,438.142,67.267,433.022,67.267z"/>
	<path d="M467.156,67.267c-5.12,0-8.533-3.413-8.533-8.533V24.6c0-5.12,3.413-8.533,8.533-8.533s8.533,3.413,8.533,8.533v34.133
		C475.689,63.853,472.276,67.267,467.156,67.267z"/>
	<path d="M339.156,289.133c-5.12,0-8.533-3.413-8.533-8.533v-17.067h-8.533c-5.12,0-8.533-3.413-8.533-8.533v-17.067h-8.533
		c-5.12,0-8.533-3.413-8.533-8.533c0-5.12,3.413-8.533,8.533-8.533h17.067c5.12,0,8.533,3.413,8.533,8.533v17.067h8.533
		c5.12,0,8.533,3.413,8.533,8.533v25.6C347.689,285.72,344.276,289.133,339.156,289.133z"/>
	<path d="M347.689,434.2c-11.947,0-23.04-4.267-30.72-12.8c-11.947-11.947-21.333-32.427-0.853-64.853l25.6-37.547
		c3.413-5.12,11.093-5.12,14.507,0l24.747,37.547c16.213,22.187,15.36,48.64-0.853,65.707
		C370.729,429.933,359.636,434.2,347.689,434.2z M347.689,338.627l-17.92,26.453c-17.067,27.307-5.12,40.107-0.853,43.52
		c10.24,10.24,28.16,10.24,38.4,0c11.093-11.093,10.24-28.16-0.853-43.52L347.689,338.627z"/>
	<path d="M441.556,511c-11.947,0-23.04-4.267-30.72-12.8c-11.947-11.947-21.333-32.427-0.853-64.853l25.6-37.547
		c3.413-5.12,11.093-5.12,14.507,0l24.747,37.547c16.213,22.187,15.36,48.64-0.853,65.707C464.596,506.733,453.502,511,441.556,511z
		 M441.556,415.427l-17.92,26.453c-17.067,27.307-5.12,40.107-0.853,43.52c10.24,10.24,28.16,10.24,38.4,0
		c11.093-11.093,10.24-28.16-0.853-43.52L441.556,415.427z"/>
</g>
</svg>