<svg version="1.1" id="Layer_1" xmlns="http://www.w3.org/2000/svg" xmlns:xlink="http://www.w3.org/1999/xlink" x="0px" y="0px"
	 viewBox="0 0 511.447 511.447" style="enable-background:new 0 0 511.447 511.447;" xml:space="preserve">
<g>
	<polygon style="fill:#C2E95D;" points="487.068,405.402 458.977,444.727 430.886,405.402 	"/>
	<polygon style="fill:#C2E95D;" points="458.977,66.72 487.068,106.045 430.886,106.045 	"/>
	<polygon style="fill:#C2E95D;" points="56.944,60.755 16.57,96.081 16.57,60.755 	"/>
	<polygon style="fill:#C2E95D;" points="371.159,60.755 371.159,96.081 330.751,60.755 	"/>
	<rect x="175.638" y="60.755" style="fill:#C2E95D;" width="36.453" height="389.937"/>
</g>
<g>
	<path style="fill:#535757;" d="M509.901,109.514c1.812,2.53,2.044,5.844,0.63,8.605c-1.425,2.762-4.264,4.496-7.368,4.496h-35.901
		v266.218h35.901c3.104,0,5.943,1.734,7.368,4.496c1.414,2.762,1.182,6.076-0.63,8.605l-44.186,61.86
		c-1.546,2.176-4.065,3.469-6.738,3.469c-2.673,0-5.192-1.292-6.738-3.469l-44.186-61.86c-1.812-2.53-2.044-5.844-0.63-8.605
		c1.425-2.762,4.264-4.496,7.368-4.496h35.901V122.615h-35.901c-3.104,0-5.943-1.734-7.368-4.496
		c-1.414-2.762-1.182-6.076,0.63-8.605l44.186-61.86c1.546-2.176,4.065-3.469,6.738-3.469c2.673,0,5.192,1.292,6.738,3.469
		L509.901,109.514z M487.068,106.045L458.977,66.72l-28.091,39.325H487.068z M458.977,444.727l28.091-39.325h-56.182
		L458.977,444.727z"/>
	<path style="fill:#535757;" d="M387.728,52.47v61.86c0,3.248-1.9,6.197-4.86,7.545c-1.094,0.497-2.264,0.74-3.424,0.74
		c-1.966,0-3.91-0.696-5.457-2.044l-68.41-59.816H228.66v389.937h18.227c4.573,0,8.285,3.712,8.285,8.285s-3.712,8.285-8.285,8.285
		H140.841c-4.573,0-8.285-3.712-8.285-8.285s3.712-8.285,8.285-8.285h18.227V60.755H82.119l-68.377,59.816
		c-2.452,2.132-5.921,2.65-8.881,1.303C1.9,120.527,0,117.577,0,114.33V52.47c0-4.573,3.712-8.285,8.285-8.285h371.159
		C384.017,44.185,387.728,47.897,387.728,52.47z M371.159,96.081V60.755h-40.408L371.159,96.081z M212.091,450.692V60.755h-36.453
		v389.937H212.091z M16.57,96.081l40.375-35.326H16.57V96.081z"/>
</g>
</svg>