<svg version="1.1" id="Layer_1" xmlns="http://www.w3.org/2000/svg" xmlns:xlink="http://www.w3.org/1999/xlink" x="0px" y="0px"
	 viewBox="0 0 496 496" style="enable-background:new 0 0 496 496;" xml:space="preserve">
<g>
	<g>
		<g>
			<path d="M0,384h496V112H0V384z M240,295.28c-22.664-3.824-40-23.536-40-47.28c0-23.744,17.336-43.448,40-47.28V295.28z M480,328
				h-64V168h64V328z M256,200.72c22.664,3.824,40,23.536,40,47.28s-17.336,43.448-40,47.28V200.72z M256,311.448
				c31.52-3.96,56-30.872,56-63.448s-24.48-59.488-56-63.448V128h224v24h-80v192h80v24H256V311.448z M16,168h64v160H16V168z M16,344
				h80V152H16v-24h224v56.552c-31.52,3.96-56,30.872-56,63.448s24.48,59.488,56,63.448V368H16V344z"/>
			<path d="M40,48c10.416,0,19.216-6.712,22.528-16H80V16H62.528C59.216,6.712,50.416,0,40,0S20.784,6.712,17.472,16H0v16h17.472
				C20.784,41.288,29.584,48,40,48z M40,16c4.416,0,8,3.584,8,8s-3.584,8-8,8s-8-3.584-8-8S35.584,16,40,16z"/>
			<path d="M73.472,64H56v16h17.472C76.784,89.288,85.584,96,96,96s19.216-6.712,22.528-16H136V64h-17.472
				C115.216,54.712,106.416,48,96,48S76.784,54.712,73.472,64z M96,64c4.416,0,8,3.584,8,8s-3.584,8-8,8s-8-3.584-8-8
				S91.584,64,96,64z"/>
			<path d="M177.472,64H160v16h17.472c3.312,9.288,12.112,16,22.528,16s19.216-6.712,22.528-16H240V64h-17.472
				c-3.312-9.288-12.112-16-22.528-16S180.784,54.712,177.472,64z M200,64c4.416,0,8,3.584,8,8s-3.584,8-8,8s-8-3.584-8-8
				S195.584,64,200,64z"/>
			<path d="M281.472,64H264v16h17.472c3.312,9.288,12.112,16,22.528,16s19.216-6.712,22.528-16H344V64h-17.472
				c-3.312-9.288-12.112-16-22.528-16C293.584,48,284.784,54.712,281.472,64z M304,64c4.416,0,8,3.584,8,8s-3.584,8-8,8
				c-4.416,0-8-3.584-8-8S299.584,64,304,64z"/>
			<path d="M385.472,64H368v16h17.472c3.312,9.288,12.112,16,22.528,16s19.216-6.712,22.528-16H448V64h-17.472
				c-3.312-9.288-12.112-16-22.528-16C397.584,48,388.784,54.712,385.472,64z M408,64c4.416,0,8,3.584,8,8s-3.584,8-8,8
				c-4.416,0-8-3.584-8-8S403.584,64,408,64z"/>
			<path d="M144,48c10.416,0,19.216-6.712,22.528-16H184V16h-17.472C163.216,6.712,154.416,0,144,0s-19.216,6.712-22.528,16H104v16
				h17.472C124.784,41.288,133.584,48,144,48z M144,16c4.416,0,8,3.584,8,8s-3.584,8-8,8s-8-3.584-8-8S139.584,16,144,16z"/>
			<path d="M248,48c10.416,0,19.216-6.712,22.528-16H288V16h-17.472C267.216,6.712,258.416,0,248,0
				c-10.416,0-19.216,6.712-22.528,16H208v16h17.472C228.784,41.288,237.584,48,248,48z M248,16c4.416,0,8,3.584,8,8s-3.584,8-8,8
				c-4.416,0-8-3.584-8-8S243.584,16,248,16z"/>
			<path d="M352,48c10.416,0,19.216-6.712,22.528-16H392V16h-17.472C371.216,6.712,362.416,0,352,0
				c-10.416,0-19.216,6.712-22.528,16H312v16h17.472C332.784,41.288,341.584,48,352,48z M352,16c4.416,0,8,3.584,8,8s-3.584,8-8,8
				c-4.416,0-8-3.584-8-8S347.584,16,352,16z"/>
			<path d="M478.528,16C475.216,6.712,466.416,0,456,0c-10.416,0-19.216,6.712-22.528,16H416v16h17.472
				c3.312,9.288,12.112,16,22.528,16c10.416,0,19.216-6.712,22.528-16H496V16H478.528z M456,32c-4.416,0-8-3.584-8-8s3.584-8,8-8
				c4.416,0,8,3.584,8,8S460.416,32,456,32z"/>
			<path d="M456,448c-10.416,0-19.216,6.712-22.528,16H416v16h17.472c3.312,9.288,12.112,16,22.528,16s19.216-6.712,22.528-16H496
				v-16h-17.472C475.216,454.712,466.416,448,456,448z M456,480c-4.416,0-8-3.584-8-8c0-4.416,3.584-8,8-8c4.416,0,8,3.584,8,8
				C464,476.416,460.416,480,456,480z"/>
			<path d="M422.528,432H440v-16h-17.472c-3.312-9.288-12.112-16-22.528-16s-19.216,6.712-22.528,16H360v16h17.472
				c3.312,9.288,12.112,16,22.528,16S419.216,441.288,422.528,432z M400,432c-4.416,0-8-3.584-8-8c0-4.416,3.584-8,8-8
				c4.416,0,8,3.584,8,8C408,428.416,404.416,432,400,432z"/>
			<path d="M318.528,432H336v-16h-17.472c-3.312-9.288-12.112-16-22.528-16s-19.216,6.712-22.528,16H256v16h17.472
				c3.312,9.288,12.112,16,22.528,16S315.216,441.288,318.528,432z M296,432c-4.416,0-8-3.584-8-8c0-4.416,3.584-8,8-8
				c4.416,0,8,3.584,8,8C304,428.416,300.416,432,296,432z"/>
			<path d="M214.528,432H232v-16h-17.472c-3.312-9.288-12.112-16-22.528-16s-19.216,6.712-22.528,16H152v16h17.472
				c3.312,9.288,12.112,16,22.528,16S211.216,441.288,214.528,432z M192,432c-4.416,0-8-3.584-8-8c0-4.416,3.584-8,8-8s8,3.584,8,8
				C200,428.416,196.416,432,192,432z"/>
			<path d="M110.528,432H128v-16h-17.472c-3.312-9.288-12.112-16-22.528-16s-19.216,6.712-22.528,16H48v16h17.472
				c3.312,9.288,12.112,16,22.528,16S107.216,441.288,110.528,432z M88,432c-4.416,0-8-3.584-8-8c0-4.416,3.584-8,8-8s8,3.584,8,8
				C96,428.416,92.416,432,88,432z"/>
			<path d="M352,448c-10.416,0-19.216,6.712-22.528,16H312v16h17.472c3.312,9.288,12.112,16,22.528,16s19.216-6.712,22.528-16H392
				v-16h-17.472C371.216,454.712,362.416,448,352,448z M352,480c-4.416,0-8-3.584-8-8c0-4.416,3.584-8,8-8c4.416,0,8,3.584,8,8
				C360,476.416,356.416,480,352,480z"/>
			<path d="M248,448c-10.416,0-19.216,6.712-22.528,16H208v16h17.472c3.312,9.288,12.112,16,22.528,16s19.216-6.712,22.528-16H288
				v-16h-17.472C267.216,454.712,258.416,448,248,448z M248,480c-4.416,0-8-3.584-8-8c0-4.416,3.584-8,8-8s8,3.584,8,8
				C256,476.416,252.416,480,248,480z"/>
			<path d="M144,448c-10.416,0-19.216,6.712-22.528,16H104v16h17.472c3.312,9.288,12.112,16,22.528,16s19.216-6.712,22.528-16H184
				v-16h-17.472C163.216,454.712,154.416,448,144,448z M144,480c-4.416,0-8-3.584-8-8c0-4.416,3.584-8,8-8s8,3.584,8,8
				C152,476.416,148.416,480,144,480z"/>
			<path d="M40,448c-10.416,0-19.216,6.712-22.528,16H0v16h17.472c3.312,9.288,12.112,16,22.528,16s19.216-6.712,22.528-16H80v-16
				H62.528C59.216,454.712,50.416,448,40,448z M40,480c-4.416,0-8-3.584-8-8c0-4.416,3.584-8,8-8s8,3.584,8,8
				C48,476.416,44.416,480,40,480z"/>
		</g>
	</g>
</g>
</svg>