<svg version="1.1" id="Layer_1" xmlns="http://www.w3.org/2000/svg" xmlns:xlink="http://www.w3.org/1999/xlink" x="0px" y="0px"
	 viewBox="0 0 511.999 511.999" style="enable-background:new 0 0 511.999 511.999;" xml:space="preserve">
<path style="fill:#77757E;" d="M400.664,477.105h-294.39c-4.276,0-7.741-3.465-7.741-7.741s3.465-7.741,7.741-7.741h294.39
	c4.276,0,7.741,3.465,7.741,7.741S404.939,477.105,400.664,477.105z"/>
<g>
	<path style="fill:#3E3B43;" d="M340.766,484.804H162.206l-9.016-88.679c-0.699-6.872,4.695-12.843,11.603-12.843h173.384
		c6.908,0,12.302,5.971,11.603,12.843L340.766,484.804z"/>
	<path style="fill:#3E3B43;" d="M0,387.41V49.902c0-12.489,10.218-22.707,22.707-22.707h73.285
		c12.489,0,22.707,10.218,22.707,22.707V387.41H0z"/>
</g>
<g>
	<circle style="fill:#77757E;" cx="59.348" cy="91.56" r="37.157"/>
	<circle style="fill:#77757E;" cx="59.348" cy="187.693" r="37.157"/>
</g>
<circle style="fill:#3E3B43;" cx="59.348" cy="187.693" r="14.895"/>
<g>
	<circle style="fill:#77757E;" cx="201.504" cy="434.528" r="14.895"/>
	<circle style="fill:#77757E;" cx="301.466" cy="434.528" r="14.895"/>
	<circle style="fill:#77757E;" cx="251.49" cy="434.528" r="14.895"/>
</g>
<g>
	<circle style="fill:#3E3B43;" cx="59.348" cy="91.56" r="14.895"/>
	<rect x="41.327" y="387.411" style="fill:#3E3B43;" width="36.052" height="70.042"/>
	<rect x="12.427" y="457.452" style="fill:#3E3B43;" width="93.852" height="27.352"/>
	<path style="fill:#3E3B43;" d="M388.238,387.41V49.902c0-12.489,10.218-22.707,22.707-22.707h73.285
		c12.489,0,22.707,10.218,22.707,22.707V387.41H388.238z"/>
</g>
<g>
	<path style="fill:#2F2D30;" d="M489.293,27.195h-5.987v331.522H393.3v28.693h118.699V49.902
		C512,37.413,501.782,27.195,489.293,27.195z"/>
	<path style="opacity:0.41;fill:#2F2D30;enable-background:new    ;" d="M98.529,27.195h-5.987v331.522H2.537v28.693h118.699V49.902
		C121.236,37.413,111.018,27.195,98.529,27.195z"/>
</g>
<g>
	<circle style="fill:#77757E;" cx="447.586" cy="91.56" r="37.157"/>
	<circle style="fill:#77757E;" cx="447.586" cy="187.693" r="37.157"/>
</g>
<g>
	<circle style="fill:#3E3B43;" cx="447.586" cy="187.693" r="14.895"/>
	<circle style="fill:#3E3B43;" cx="447.586" cy="91.56" r="14.895"/>
	<rect x="429.564" y="387.411" style="fill:#3E3B43;" width="36.052" height="70.042"/>
	<rect x="400.665" y="457.452" style="fill:#3E3B43;" width="93.852" height="27.352"/>
</g>
<rect x="183.885" y="361.464" style="fill:#3C66B1;" width="39.221" height="21.819"/>
</svg>