<svg version="1.1" id="Layer_1" xmlns="http://www.w3.org/2000/svg" xmlns:xlink="http://www.w3.org/1999/xlink" x="0px" y="0px"
	 viewBox="0 0 512 512" style="enable-background:new 0 0 512 512;" xml:space="preserve">
<g>
	<g>
		<path d="M369.367,260.508l-36.941-10.554v-75.045l22.603,11.301c4.176,2.088,9.364,0.066,11.058-4.268
			c1.487-3.804-0.236-8.248-3.886-10.072l-98.183-49.091V84.443h17.637c4.428,0,8.017-3.589,8.017-8.017s-3.588-8.017-8.017-8.017
			h-17.637V50.772c0-4.427-3.588-8.017-8.017-8.017c-4.428,0-8.017,3.589-8.017,8.017v17.637h-17.637
			c-4.428,0-8.017,3.589-8.017,8.017s3.588,8.017,8.017,8.017h17.637v38.336l-98.182,49.091c-3.959,1.98-5.565,6.795-3.585,10.755
			c1.98,3.961,6.794,5.566,10.756,3.585l22.602-11.301v75.045L5.814,299.599C2.373,300.581,0,303.727,0,307.307v196.676
			C0,508.411,3.588,512,8.017,512h188.125c4.428,0,8.017-3.589,8.017-8.017v-42.756c0-4.427-3.588-8.017-8.017-8.017
			s-8.017,3.589-8.017,8.017v34.739H16.033V313.354l172.681-49.337h134.572l41.676,11.907c4.253,1.216,8.694-1.248,9.91-5.506
			C376.089,266.161,373.623,261.724,369.367,260.508z M316.393,247.983H195.608v-81.092L256,136.695l60.393,30.196V247.983z"/>
	</g>
</g>
<g>
	<g>
		<path d="M506.186,299.599l-94.063-26.875c-4.256-1.216-8.695,1.247-9.911,5.506c-1.216,4.257,1.25,8.694,5.506,9.911
			l88.248,25.213v182.613H323.875V384.267c0-37.426-30.448-67.875-67.875-67.875s-67.875,30.448-67.875,67.875v34.205
			c0,4.427,3.588,8.017,8.017,8.017s8.017-3.589,8.017-8.017v-34.205c0-28.585,23.256-51.841,51.841-51.841
			s51.841,23.256,51.841,51.841v119.716c0,4.427,3.588,8.017,8.017,8.017h188.125c4.428,0,8.017-3.589,8.017-8.017V307.307
			C512,303.727,509.627,300.581,506.186,299.599z"/>
	</g>
</g>
<g>
	<g>
		<path d="M256,153.921c-23.281,0-42.221,18.941-42.221,42.221s18.941,42.221,42.221,42.221s42.221-18.941,42.221-42.221
			S279.281,153.921,256,153.921z M256,222.33c-14.441,0-26.188-11.748-26.188-26.188s11.747-26.188,26.188-26.188
			s26.188,11.748,26.188,26.188S270.441,222.33,256,222.33z"/>
	</g>
</g>
<g>
	<g>
		<path d="M409.921,316.393c-27.995,0-50.772,22.777-50.772,50.772v102.614c0,4.427,3.588,8.017,8.017,8.017h85.511
			c4.428,0,8.017-3.589,8.017-8.017V367.165C460.693,339.17,437.916,316.393,409.921,316.393z M444.66,461.762h-69.478v-94.597
			c0-19.155,15.583-34.739,34.739-34.739c19.156,0,34.739,15.584,34.739,34.739V461.762z"/>
	</g>
</g>
<g>
	<g>
		<path d="M102.079,316.393c-27.995,0-50.772,22.777-50.772,50.772v102.614c0,4.427,3.588,8.017,8.017,8.017h85.511
			c4.428,0,8.017-3.589,8.017-8.017V367.165C152.852,339.17,130.075,316.393,102.079,316.393z M136.818,461.762H67.34v-94.597
			c0-19.155,15.583-34.739,34.739-34.739s34.739,15.584,34.739,34.739V461.762z"/>
	</g>
</g>
<g>
	<g>
		<path d="M324.409,68.409h-8.551c-4.428,0-8.017,3.589-8.017,8.017s3.588,8.017,8.017,8.017h8.551c4.428,0,8.017-3.589,8.017-8.017
			S328.838,68.409,324.409,68.409z"/>
	</g>
</g>
<g>
	<g>
		<path d="M310.042,22.385c-3.131-3.13-8.207-3.131-11.337,0l-6.047,6.047c-4.94,4.937-1.345,13.685,5.667,13.685
			c2.051,0,4.103-0.782,5.668-2.347l6.047-6.047C313.173,30.592,313.173,25.516,310.042,22.385z"/>
	</g>
</g>
<g>
	<g>
		<path d="M256,0c-4.428,0-8.017,3.589-8.017,8.017v8.551c0,4.427,3.588,8.017,8.017,8.017c4.428,0,8.017-3.589,8.017-8.017V8.017
			C264.017,3.589,260.428,0,256,0z"/>
	</g>
</g>
<g>
	<g>
		<path d="M219.343,28.43l-6.047-6.047c-3.13-3.131-8.206-3.13-11.337,0c-3.131,3.131-3.131,8.207,0.001,11.338l6.046,6.048
			c3.26,3.261,8.766,3.04,11.763-0.461C222.456,36.17,222.263,31.35,219.343,28.43z"/>
	</g>
</g>
<g>
	<g>
		<path d="M196.142,68.409h-8.551c-4.428,0-8.017,3.589-8.017,8.017s3.588,8.017,8.017,8.017h8.551c4.428,0,8.017-3.589,8.017-8.017
			S200.57,68.409,196.142,68.409z"/>
	</g>
</g>
<g>
	<g>
		<path d="M219.344,113.084c-3.132-3.13-8.208-3.131-11.338-0.001l-6.047,6.047c-2.919,2.918-3.114,7.74-0.427,10.878
			c2.997,3.501,8.503,3.721,11.763,0.461l6.047-6.047C222.475,121.291,222.475,116.214,219.344,113.084z"/>
	</g>
</g>
<g>
	<g>
		<path d="M310.041,119.129l-6.047-6.047c-3.13-3.131-8.206-3.13-11.337,0c-3.131,3.131-3.131,8.207,0.001,11.338l6.046,6.048
			c3.26,3.261,8.766,3.04,11.763-0.461C313.154,126.869,312.96,122.048,310.041,119.129z"/>
	</g>
</g>
<g>
	<g>
		<path d="M257.069,282.188H256c-4.428,0-8.017,3.589-8.017,8.017s3.588,8.017,8.017,8.017h1.069c4.428,0,8.017-3.589,8.017-8.017
			S261.497,282.188,257.069,282.188z"/>
	</g>
</g>
<g>
	<g>
		<path d="M299.825,282.188h-1.069c-4.428,0-8.017,3.589-8.017,8.017s3.588,8.017,8.017,8.017h1.069
			c4.428,0,8.017-3.589,8.017-8.017S304.253,282.188,299.825,282.188z"/>
	</g>
</g>
<g>
	<g>
		<path d="M214.313,282.188h-1.069c-4.428,0-8.017,3.589-8.017,8.017s3.588,8.017,8.017,8.017h1.069
			c4.428,0,8.017-3.589,8.017-8.017S218.742,282.188,214.313,282.188z"/>
	</g>
</g>
<g>
	<g>
		<path d="M124.85,361.497c-3.132-3.131-8.207-3.131-11.338,0l-34.205,34.205c-3.13,3.13-3.13,8.207,0,11.337
			c3.089,3.088,8.249,3.088,11.338,0l34.205-34.205C127.981,369.703,127.981,364.626,124.85,361.497z"/>
	</g>
</g>
<g>
	<g>
		<path d="M116.3,412.803c-3.132-3.131-8.207-3.131-11.339,0l-17.102,17.102c-2.918,2.918-3.113,7.74-0.425,10.877
			c2.998,3.502,8.503,3.72,11.764,0.46L116.3,424.14C119.431,421.009,119.431,415.933,116.3,412.803z"/>
	</g>
</g>
<g>
	<g>
		<path d="M432.692,361.497c-3.132-3.131-8.207-3.131-11.339,0l-34.205,34.205c-2.918,2.918-3.113,7.74-0.425,10.877
			c2.998,3.502,8.503,3.72,11.764,0.46l34.205-34.205C435.823,369.702,435.823,364.626,432.692,361.497z"/>
	</g>
</g>
<g>
	<g>
		<path d="M424.141,412.803c-3.132-3.131-8.207-3.131-11.339,0L395.7,429.906c-2.918,2.918-3.113,7.74-0.425,10.877
			c2.998,3.502,8.503,3.72,11.764,0.46l17.102-17.102C427.272,421.009,427.272,415.933,424.141,412.803z"/>
	</g>
</g>
</svg>