<svg version="1.1" id="Layer_1" xmlns="http://www.w3.org/2000/svg" xmlns:xlink="http://www.w3.org/1999/xlink" x="0px" y="0px"
	 viewBox="0 0 512.003 512.003" style="enable-background:new 0 0 512.003 512.003;" xml:space="preserve">
<path style="fill:#F0C419;" d="M256,338.709c0,0,30.624-13.701,30.624-30.624c0-16.912-13.712-16.638-30.624-16.638
	s-30.624-0.275-30.624,16.638C225.375,325.008,256,338.709,256,338.709z M155.634,412.085c-2.313-0.338-4.616-0.761-6.898-1.289
	c-8.99-2.081-17.536-5.778-24.487-12.222c-16.205,9.465-60.836,22.205-60.836,22.205c-7.722-36.614,9.127-82.069,9.127-82.069
	l-35.209,24.856c0,0,0.296-5.134,2.535-16.712c2.239-11.578,6.423-29.61,14.176-55.406l-43.48-5.176l33.043-46.48l28.332-39.867
	l27.73-39.012l0.011,0.011c0.898-1.88,1.849-3.74,2.863-5.567c17.081-31.015,50.135-55.174,88.259-68.368
	c20.81-7.215,43.131-11.155,65.199-11.155s44.389,3.94,65.199,11.155c38.124,13.194,71.189,37.364,88.259,68.379
	c1.014,1.828,1.965,3.676,2.863,5.556l0.011-0.011l27.73,39.012l28.332,39.867l33.043,46.48l-43.48,5.176
	c15.507,51.593,16.712,72.118,16.712,72.118l-35.209-24.856c0,0,16.849,45.456,9.127,82.069c0,0-11.155-3.19-24.339-7.553
	c-13.183-4.363-28.395-9.919-36.497-14.652c-8.704,8.081-19.923,11.831-31.385,13.511c-6.835,0.993-13.743,1.257-20.251,1.257
	L256,393.535l-80.115,19.807C169.377,413.342,162.469,413.078,155.634,412.085z"/>
<g>
	<path style="fill:#D1AB16;" d="M432.233,34.402c0,0,20.853,66.72-9.349,105.911c-4.215,5.472-8.726,10.5-13.416,15.043
		l-0.011,0.011c-17.071-31.015-50.135-55.185-88.259-68.379v-0.011c3.169-5.62,6.835-11.176,10.997-16.574
		C362.397,31.212,432.233,34.402,432.233,34.402z"/>
	<path style="fill:#D1AB16;" d="M356.365,412.085v10.458c0,30.455-24.687,55.132-55.132,55.132H256.01h-0.021h-45.223
		c-30.445,0-55.132-24.677-55.132-55.132v-10.458c6.835,0.993,13.743,1.257,20.251,1.257L256,393.535l80.115,19.807
		C342.622,413.342,349.53,413.078,356.365,412.085z"/>
</g>
<path style="fill:#666666;" d="M286.624,308.085c0,16.923-30.624,30.624-30.624,30.624s-30.624-13.701-30.624-30.624
	c0-16.912,13.712-16.638,30.624-16.638S286.624,291.173,286.624,308.085z"/>
<path style="fill:#D1AB16;" d="M190.801,86.977v0.011c-38.124,13.194-71.178,37.353-88.259,68.368
	c-4.701-4.542-9.201-9.571-13.426-15.043c-30.202-39.191-9.349-105.911-9.349-105.911s69.836-3.19,100.038,36.001
	C183.966,75.801,187.631,81.357,190.801,86.977z"/>
<path d="M422.542,157.045c3.039-3.291,5.964-6.718,8.71-10.284c33.174-43.05,11.982-112.572,11.064-115.512
	c-1.326-4.24-5.164-7.198-9.601-7.401c-3.074-0.137-75.711-2.946-108.886,40.104c-2.599,3.371-5.034,6.86-7.325,10.414
	c-19.759-5.964-40.507-9.097-60.504-9.097c-19.999,0-40.748,3.133-60.506,9.097c-2.291-3.555-4.726-7.044-7.323-10.413
	c-33.176-43.05-105.816-40.25-108.887-40.105c-4.439,0.202-8.276,3.161-9.601,7.401c-0.918,2.939-22.111,72.462,11.071,115.52
	c2.767,3.582,5.687,7.004,8.706,10.271L1.954,280.151c-2.16,3.039-2.559,6.991-1.048,10.401c1.511,3.409,4.707,5.769,8.409,6.209
	l31.083,3.7c-5.876,20.644-9.141,35.279-10.902,44.386c-2.307,11.927-2.676,17.514-2.71,18.111c-0.233,4.05,1.873,7.875,5.419,9.843
	s7.906,1.733,11.22-0.606l11.217-7.919c-3.416,16.953-5.757,38.802-1.563,58.682c0.604,2.868,2.374,5.355,4.884,6.867
	c1.662,1.001,3.549,1.517,5.454,1.517c0.971,0,1.947-0.134,2.9-0.406c1.668-0.476,36.863-10.57,56.691-19.848
	c6.26,4.351,13.658,7.584,22.068,9.673v1.781c0,36.224,29.471,65.694,65.695,65.694h45.223c0.003,0,0.006,0,0.011,0
	c0.004,0,0.006,0,0.011,0h45.224c36.224,0,65.694-29.471,65.694-65.694v-1.764c8.517-2.104,15.829-5.307,22.076-9.675
	c7.608,3.572,18.299,7.642,31.923,12.151c13.237,4.38,24.288,7.548,24.753,7.681c0.953,0.274,1.931,0.408,2.905,0.408
	c1.903,0,3.789-0.513,5.451-1.515c2.511-1.514,4.28-4,4.886-6.87c4.193-19.879,1.852-41.73-1.563-58.682l11.217,7.919
	c3.316,2.342,7.68,2.576,11.225,0.603c3.546-1.971,5.652-5.801,5.413-9.852c-0.048-0.816-1.238-19.024-13.611-62.485l31.083-3.7
	c3.703-0.44,6.898-2.8,8.41-6.209c1.511-3.41,1.112-7.362-1.048-10.401L422.542,157.045z M424.092,44.98
	c4.067,17.444,11.462,61.588-9.575,88.887c-1.12,1.454-2.28,2.875-3.459,4.279c-10.366-14.521-24.262-27.643-40.734-38.637
	c12.986-16.781,25.71-22.261,28.947-21.774c4.605,3.313,11.042,2.395,14.531-2.135c3.56-4.623,2.699-11.255-1.924-14.814
	c-15.821-12.186-41.372,3.859-58.414,25.986c-0.496,0.641-0.981,1.293-1.464,1.946c-4.846-2.507-9.85-4.843-14.996-6.995
	c1.151-1.646,2.328-3.277,3.558-4.872C361.524,49.648,406.183,45.514,424.092,44.98z M87.925,44.966
	c17.908,0.506,62.479,4.591,83.513,31.885c1.23,1.594,2.405,3.225,3.557,4.871c-5.147,2.152-10.151,4.489-14.997,6.995
	c-0.477-0.645-0.956-1.29-1.446-1.923c-17.059-22.15-42.609-38.198-58.432-26.009c-4.622,3.56-5.484,10.192-1.924,14.814
	c3.487,4.528,9.926,5.448,14.531,2.135c3.24-0.504,15.95,4.989,28.947,21.773c-16.474,10.994-30.372,24.115-40.736,38.629
	c-1.175-1.398-2.332-2.817-3.456-4.273C76.519,106.662,83.884,62.422,87.925,44.966z M301.233,467.111H256.01
	c-0.003,0-0.006,0-0.011,0s-0.006,0-0.011,0h-45.223c-24.194,0-43.933-19.381-44.54-43.433c3.015,0.15,6.204,0.227,9.658,0.227
	c0.855,0,1.706-0.105,2.535-0.308l25.395-6.278v21.809c0,5.833,4.729,10.564,10.564,10.564c5.834,0,10.564-4.73,10.564-10.564
	v-27.031L256,404.418l31.057,7.679v27.031c0,5.833,4.73,10.564,10.564,10.564c5.833,0,10.564-4.73,10.564-10.564v-21.809
	l25.394,6.278c0.829,0.204,1.682,0.308,2.535,0.308c3.453,0,6.642-0.077,9.658-0.227
	C345.165,447.729,325.427,467.111,301.233,467.111z M255.2,302.011h0.8h0.8c6.784,0,13.76-0.003,17.312,1.367
	c1.131,0.436,1.949,0.752,1.949,4.707c0,5.156-9.856,13.387-20.052,18.847c-9.453-5.103-20.07-13.448-20.07-18.847
	c0-3.955,0.818-4.271,1.949-4.707C241.44,302.007,248.431,302.006,255.2,302.011z M445.551,330.08
	c-3.785-2.672-8.863-2.565-12.532,0.255c-3.671,2.823-5.075,7.705-3.466,12.046c0.14,0.378,12.407,33.947,10.258,64.734
	c-3.618-1.122-7.825-2.455-12.246-3.919c-8.402-2.78-15.717-5.422-21.656-7.807c14.664-17.758,16.518-35.746,16.603-36.663
	c0.537-5.809-3.738-10.953-9.547-11.49c-5.816-0.531-10.953,3.737-11.491,9.547c-0.017,0.185-2.211,18.86-20.376,33.583
	c-0.054,0.044-0.1,0.093-0.154,0.138c-0.128,0.108-0.259,0.212-0.382,0.327c-6.05,5.617-14.465,9.149-25.716,10.799
	c-5.075,0.736-10.65,1.104-17.46,1.143l-70.822-17.509v-40.016c11.023-5.956,30.624-19.085,30.624-37.163
	c0-15.249-8.413-21.695-15.47-24.418c-7.227-2.789-15.823-2.766-24.923-2.784H256h-0.794c-9.084,0.006-17.697-0.004-24.923,2.784
	c-7.058,2.723-15.471,9.17-15.471,24.418c0,18.078,19.601,31.207,30.624,37.163v40.016l-70.822,17.509
	c-6.809-0.039-12.385-0.406-17.451-1.142c-2.114-0.31-4.148-0.689-6.043-1.127c-8.296-1.92-14.735-5.086-19.689-9.678
	c-0.125-0.116-0.257-0.221-0.386-0.33c-0.05-0.042-0.094-0.088-0.145-0.13c-18.128-14.693-20.3-32.898-20.376-33.583
	c-0.537-5.808-5.678-10.068-11.49-9.547c-5.81,0.537-10.084,5.681-9.547,11.49c0.085,0.917,1.938,18.907,16.605,36.665
	c-10.464,4.193-23.692,8.562-33.899,11.73c-2.125-30.713,10.116-64.37,10.253-64.742c1.609-4.341,0.204-9.223-3.466-12.046
	c-3.67-2.822-8.75-2.926-12.532-0.255l-14.426,10.184c2.337-10.619,6.113-25.732,12.138-45.776c0.42-1.399,0.529-2.85,0.364-4.267
	h30.548c5.834,0,10.564-4.73,10.564-10.564s-4.729-10.564-10.564-10.564H35.734l13.32-18.739h56.582
	c5.834,0,10.564-4.73,10.564-10.564c0-5.833-4.729-10.564-10.564-10.564H64.07l13.32-18.74h38.81c5.834,0,10.564-4.73,10.564-10.564
	s-4.729-10.564-10.564-10.564H92.407l15.543-21.868c0.49-0.617,0.914-1.292,1.26-2.018c0.835-1.747,1.699-3.428,2.583-5.023
	c15.11-27.436,45.166-50.574,82.466-63.483c16.535-5.733,34.031-9.217,51.175-10.245v21.751h-27.497
	c-5.834,0-10.564,4.73-10.564,10.564c0,5.833,4.729,10.564,10.564,10.564h27.497v18.043h-13.067c-5.834,0-10.564,4.73-10.564,10.564
	c0,5.833,4.729,10.564,10.564,10.564h13.067v15.708c0,5.833,4.729,10.564,10.564,10.564c5.833,0,10.564-4.73,10.564-10.564v-15.708
	h13.057c5.833,0,10.564-4.73,10.564-10.564c0-5.833-4.73-10.564-10.564-10.564h-13.057v-18.043h27.487
	c5.833,0,10.564-4.73,10.564-10.564c0-5.833-4.73-10.564-10.564-10.564h-27.487V86.725c17.145,1.028,34.64,4.513,51.18,10.247
	c37.303,12.91,67.358,36.051,82.48,63.527c0.885,1.595,1.748,3.271,2.566,4.981c0.342,0.716,0.762,1.384,1.243,1.993l15.559,21.89
	h-23.791c-5.833,0-10.564,4.73-10.564,10.564c0,5.833,4.73,10.564,10.564,10.564h38.809l13.32,18.74h-41.565
	c-5.833,0-10.564,4.73-10.564,10.564s4.73,10.564,10.564,10.564h56.582l13.32,18.739h-59.338c-5.833,0-10.564,4.73-10.564,10.564
	s4.73,10.564,10.564,10.564h30.549c-0.166,1.417-0.057,2.868,0.363,4.267c5.92,19.695,9.708,34.763,12.124,45.764L445.551,330.08z"
	/>
<path d="M324.294,225.308c10.846,0,19.668,8.828,19.668,19.68c0,5.833,4.73,10.564,10.564,10.564c5.833,0,10.564-4.73,10.564-10.564
	c0-22.502-18.301-40.807-40.796-40.807c-22.502,0-40.809,18.306-40.809,40.807c0,5.833,4.73,10.564,10.564,10.564
	c5.833,0,10.564-4.73,10.564-10.564C304.613,234.138,313.442,225.308,324.294,225.308z"/>
<path d="M345.125,318.892h-3.602c-5.833,0-10.564,4.73-10.564,10.564c0,5.833,4.73,10.564,10.564,10.564h3.602
	c5.833,0,10.564-4.73,10.564-10.564C355.689,323.622,350.96,318.892,345.125,318.892z"/>
<path d="M321.241,353.002h-3.613c-5.833,0-10.564,4.73-10.564,10.564c0,5.833,4.73,10.564,10.564,10.564h3.613
	c5.833,0,10.564-4.73,10.564-10.564C331.804,357.733,327.074,353.002,321.241,353.002z"/>
<path d="M369.02,353.002h-3.613c-5.833,0-10.564,4.73-10.564,10.564c0,5.833,4.73,10.564,10.564,10.564h3.613
	c5.833,0,10.564-4.73,10.564-10.564C379.584,357.733,374.855,353.002,369.02,353.002z"/>
<path d="M187.705,204.181c-22.495,0-40.797,18.306-40.797,40.807c0,5.833,4.729,10.564,10.564,10.564
	c5.834,0,10.564-4.73,10.564-10.564c0-10.851,8.824-19.68,19.67-19.68c10.851,0,19.68,8.828,19.68,19.68
	c0,5.833,4.729,10.564,10.564,10.564c5.834,0,10.564-4.73,10.564-10.564C228.513,222.487,210.207,204.181,187.705,204.181z"/>
<path d="M170.476,318.892h-3.602c-5.834,0-10.564,4.73-10.564,10.564c0,5.833,4.729,10.564,10.564,10.564h3.602
	c5.834,0,10.564-4.73,10.564-10.564C181.04,323.622,176.31,318.892,170.476,318.892z"/>
<path d="M194.371,353.002h-3.613c-5.834,0-10.564,4.73-10.564,10.564c0,5.833,4.729,10.564,10.564,10.564h3.613
	c5.834,0,10.564-4.73,10.564-10.564C204.935,357.733,200.205,353.002,194.371,353.002z"/>
<path d="M146.592,353.002h-3.613c-5.834,0-10.564,4.73-10.564,10.564c0,5.833,4.729,10.564,10.564,10.564h3.613
	c5.834,0,10.564-4.73,10.564-10.564C157.155,357.733,152.426,353.002,146.592,353.002z"/>
<path d="M256.01,203.012c-5.834,0-10.564,4.73-10.564,10.564v4.402c0,5.833,4.729,10.564,10.564,10.564
	c5.833,0,10.564-4.73,10.564-10.564v-4.402C266.574,207.741,261.843,203.012,256.01,203.012z"/>
</svg>