<svg version="1.1" id="Layer_1" xmlns="http://www.w3.org/2000/svg" xmlns:xlink="http://www.w3.org/1999/xlink" x="0px" y="0px"
	 viewBox="0 0 512 512" style="enable-background:new 0 0 512 512;" xml:space="preserve">
<path style="fill:#ABA8AB;" d="M197.783,149.511c9.546,0,17.286-7.739,17.286-17.286c0-22.569,18.362-40.932,40.932-40.932
	s40.932,18.362,40.932,40.932c0,9.546,7.739,17.286,17.286,17.286s17.286-7.739,17.286-17.286c0-41.632-33.871-75.503-75.503-75.503
	s-75.503,33.871-75.503,75.503C180.497,141.773,188.236,149.511,197.783,149.511z"/>
<g>
	<path style="fill:#CCCCCC;" d="M197.783,149.511c9.546,0,17.286-7.739,17.286-17.286c0-22.569,18.362-40.932,40.932-40.932V56.722
		c-41.632,0-75.503,33.871-75.503,75.503C180.497,141.773,188.236,149.511,197.783,149.511z"/>
	<path style="fill:#CCCCCC;" d="M258.646,115.324h-5.293c-124.802,0-226.679,101.149-226.679,225.953v87.325
		c0,9.546,7.91,17.286,17.456,17.286l423.738,0.043c9.546,0,17.456-7.782,17.456-17.328v-87.325
		C485.325,216.474,383.449,115.324,258.646,115.324z"/>
</g>
<path style="fill:#E1E1E1;" d="M256,115.324h-2.646c-124.802,0-226.679,101.149-226.679,225.953v87.325
	c0,9.546,7.91,17.286,17.456,17.286L256,445.931V115.324z"/>
<path style="fill:#2C6991;" d="M494.714,420.706H17.286C7.739,420.706,0,428.446,0,437.992s7.739,17.286,17.286,17.286h477.428
	c9.546,0,17.286-7.739,17.286-17.286S504.261,420.706,494.714,420.706z"/>
<path style="fill:#528FB3;" d="M256,420.706H17.286C7.739,420.706,0,428.446,0,437.992s7.739,17.286,17.286,17.286H256V420.706z"/>
</svg>