<svg version="1.1" id="Layer_1" xmlns="http://www.w3.org/2000/svg" xmlns:xlink="http://www.w3.org/1999/xlink" x="0px" y="0px"
	 viewBox="0 0 512 512" style="enable-background:new 0 0 512 512;" xml:space="preserve">
<g>
	<path style="fill:#CCC2B8;" d="M425.584,413.805v86.315H281.725c0-31.742-10.014-56.546-19.791-86.315h86.921H425.584z"/>
	<path style="fill:#CCC2B8;" d="M425.584,11.879v86.315H272.293c5.429-33.274,9.432-63.543,9.432-86.315H425.584z"/>
</g>
<g>
	<path style="fill:#666666;" d="M348.712,204.622l-94.643-0.024c0.82-5.096,1.663-10.228,2.542-15.372
		c0.321-1.936,0.653-3.873,0.986-5.821c0.321-1.936,0.653-3.873,0.998-5.821c0.333-1.948,0.665-3.896,1.01-5.845
		c1.342-7.793,2.72-15.586,4.087-23.343c0.475-2.756,0.962-5.5,1.437-8.232c0.546-3.053,1.081-6.106,1.604-9.135h3.92
		c20.825,0,39.748,8.137,53.754,21.407C338.425,165.705,347.524,184.106,348.712,204.622z"/>
	<path style="fill:#666666;" d="M243.521,304.931c0,47.648,9.1,80.518,18.413,108.874c9.777,29.77,19.791,54.574,19.791,86.315
		H86.416V11.879h195.308c0,22.773-4.003,53.041-9.432,86.315c-1.734,10.68-3.623,21.68-5.56,32.835
		c-0.523,3.029-1.057,6.082-1.604,9.135c-0.475,2.732-0.962,5.488-1.437,8.232c-1.366,7.757-2.744,15.55-4.087,23.343
		c-0.344,1.948-0.677,3.896-1.01,5.845c-0.345,1.948-0.677,3.885-0.998,5.821c-0.333,1.948-0.665,3.885-0.986,5.821
		c-0.879,5.144-1.723,10.276-2.542,15.372c-1.188,7.365-2.316,14.659-3.374,21.834c-0.143,0.938-0.273,1.877-0.404,2.804
		c-0.131,0.915-0.261,1.829-0.392,2.744c-0.071,0.463-0.131,0.927-0.19,1.378c-0.202,1.402-0.404,2.804-0.582,4.193
		c-0.059,0.451-0.131,0.891-0.19,1.342c-0.131,1.033-0.273,2.055-0.404,3.077c-0.44,3.291-0.843,6.557-1.235,9.789
		c-0.131,1.081-0.261,2.15-0.38,3.219c-0.059,0.487-0.119,0.974-0.166,1.461c-0.107,0.891-0.202,1.77-0.297,2.637
		c-0.808,7.27-1.461,14.338-1.96,21.133c-0.059,0.82-0.119,1.639-0.166,2.447c-0.202,2.97-0.368,5.892-0.487,8.743
		c-0.071,1.449-0.119,2.887-0.166,4.312c-0.024,0.867-0.048,1.723-0.071,2.578c-0.024,0.76-0.036,1.509-0.048,2.245
		C243.533,302.021,243.521,303.482,243.521,304.931z"/>
</g>
<path style="fill:#CCC2B8;" d="M254.07,204.598l94.643,0.024c0.095,1.521,0.143,3.065,0.143,4.609v36.588v109.563v58.423h-86.921
	c-9.313-28.356-18.413-61.226-18.413-108.874c0-1.449,0.012-2.91,0.036-4.395c0.012-0.748,0.024-1.497,0.048-2.245
	c0.024-0.855,0.048-1.711,0.071-2.578c0.048-1.426,0.095-2.863,0.166-4.312c0.119-2.851,0.285-5.773,0.487-8.743
	c0.048-0.808,0.107-1.627,0.166-2.447c0.499-6.795,1.152-13.863,1.96-21.133c0.095-0.879,0.19-1.758,0.297-2.637
	c0.048-0.487,0.107-0.974,0.166-1.461c0.119-1.069,0.249-2.138,0.38-3.219c0.392-3.231,0.796-6.498,1.235-9.789
	c0.131-1.022,0.261-2.043,0.404-3.077c0.059-0.451,0.131-0.891,0.19-1.342c0.19-1.39,0.38-2.792,0.582-4.193
	c0.059-0.463,0.119-0.915,0.19-1.378c0.131-0.915,0.261-1.829,0.392-2.744c0.131-0.927,0.273-1.865,0.404-2.804
	C251.753,219.257,252.882,211.963,254.07,204.598z"/>
<path d="M425.584,110.074c6.56,0,11.879-5.32,11.879-11.879V11.879c0-6.56-5.32-11.879-11.879-11.879H281.725H86.416
	c-6.56,0-11.879,5.32-11.879,11.879v488.241c0,6.56,5.32,11.879,11.879,11.879h195.308h143.859c6.56,0,11.879-5.32,11.879-11.879
	v-86.315c0-6.56-5.32-11.879-11.879-11.879h-64.849v-34.664h30.649c21.563,0,39.107-17.539,39.107-39.095v-55.12
	c0-21.563-17.543-39.107-39.107-39.107h-30.649v-24.709c0-1.765-0.055-3.539-0.163-5.272c0,0,0-0.015,0-0.024
	c0-0.009-0.001-0.018-0.002-0.026c0-0.009,0-0.019-0.001-0.027c0-0.011-0.002-0.02-0.004-0.031
	c-0.008-0.132-0.024-0.264-0.032-0.396c-0.002-0.023-0.004-0.046-0.006-0.069c-1.454-22.73-11.36-43.87-27.95-59.574
	c-14.328-13.573-32.451-21.92-51.843-24.081c0.546-3.2,1.093-6.426,1.635-9.657h143.215V110.074z M293.304,23.759h120.401v62.557
	h-127.5C290.247,60.02,292.531,39.921,293.304,23.759z M98.296,488.241V23.759H269.52c-0.915,17.735-3.776,40.806-8.953,72.533
	c-10.229,63.007-23.708,125.598-28.186,189.428c-3.15,44.887,4.22,88.988,18.202,131.592c0.007,0.025,0.017,0.049,0.024,0.074
	c0.014,0.043,0.027,0.086,0.042,0.127c1.32,4.021,2.646,7.952,3.95,11.822c6.879,20.416,12.97,38.489,14.735,58.907H98.296V488.241z
	 M255.477,304.932c0.229-29.726,4.528-58.974,8.76-88.512c6.745,0.369,72.738-0.1,72.738,0.081v29.318v109.563v46.543
	c0,0-66.376,0-66.385,0c-2.274,0-8.393-31.144-9.028-34.23c-2.991-14.544-4.848-29.304-5.662-44.128
	C255.559,317.331,255.43,311.121,255.477,304.932z M413.704,425.685v62.557H293.153c-1.675-22.672-7.906-42.283-14.716-62.557
	h70.418H413.704z M406.731,273.047v55.12c0,8.457-6.885,15.336-15.348,15.336h-30.649v-85.805h30.649
	C399.846,257.699,406.731,264.584,406.731,273.047z M316.24,161.064c9.191,8.699,15.601,19.66,18.667,31.675l-66.842-0.017
	c0.088-0.517,0.176-1.033,0.265-1.551c0.246-1.486,0.5-2.972,0.754-4.464l0.232-1.358c0.315-1.896,0.639-3.79,0.988-5.766
	c0.328-1.926,0.658-3.85,1.007-5.828c1.132-6.57,2.29-13.142,3.443-19.691l1.905-10.887
	C291.471,144.508,305.344,150.741,316.24,161.064z"/>
<path d="M131.831,41.388c-6.56,0-11.879,5.32-11.879,11.879v75.945c0,6.56,5.32,11.879,11.879,11.879
	c6.56,0,11.879-5.32,11.879-11.879V53.267C143.71,46.706,138.391,41.388,131.831,41.388z"/>
<path d="M131.831,152.566c-6.56,0-11.879,5.32-11.879,11.879v4.835c0,6.56,5.32,11.879,11.879,11.879
	c6.56,0,11.879-5.32,11.879-11.879v-4.835C143.71,157.885,138.391,152.566,131.831,152.566z"/>
</svg>