<svg version="1.1" id="Layer_1" xmlns="http://www.w3.org/2000/svg" xmlns:xlink="http://www.w3.org/1999/xlink" x="0px" y="0px"
	 viewBox="0 0 512 512" style="enable-background:new 0 0 512 512;" xml:space="preserve">
<g>
	<g>
		<path d="M243.76,92.994c-22.965-20.034-52.42-31.068-82.938-31.068c-69.165,0-125.434,55.465-125.434,123.642
			c0,45.872,26.892,100.694,75.721,154.365c1.526,1.678,3.672,2.656,5.939,2.709c0.065,0.002,0.13,0.002,0.196,0.002
			c2.196,0,4.307-0.872,5.864-2.43l25.272-25.272c3.239-3.239,3.239-8.491,0-11.73c-3.239-3.239-8.491-3.239-11.728,0
			l-19.063,19.063c-42.378-48.451-65.612-96.758-65.612-136.71c0-59.03,48.828-107.054,108.847-107.054
			c25.267,0,49.691,8.704,69.192,24.585v106.749l-66.825,66.828c-3.239,3.239-3.239,8.491,0,11.73c3.239,3.239,8.491,3.239,11.728,0
			l69.254-69.256c1.556-1.555,2.43-3.665,2.43-5.864V99.244C246.6,96.848,245.564,94.57,243.76,92.994z"/>
	</g>
</g>
<g>
	<g>
		<path d="M241.48,255.667c-3.096-1.283-6.666-0.574-9.038,1.798l-96.276,96.273c-1.584,1.585-2.459,3.741-2.428,5.98
			s0.968,4.371,2.594,5.91c30.154,28.524,64.028,53.528,97.958,72.311c1.251,0.692,2.634,1.037,4.016,1.037
			c1.456,0,2.914-0.384,4.212-1.149c2.529-1.492,4.082-4.209,4.082-7.145V263.329C246.6,259.975,244.58,256.95,241.48,255.667z
			 M230.013,416.326c-26.256-15.745-52.213-35.178-76.035-56.943l76.035-76.033V416.326z"/>
	</g>
</g>
<g>
	<g>
		<path d="M351.179,26.539c-34.766,0-67.532,10.629-95.179,30.808c-27.647-20.179-60.413-30.808-95.179-30.808
			C72.143,26.539,0,97.879,0,185.568c0,51.883,27.943,112.583,78.683,170.916c46.319,53.252,107.008,99.404,166.512,126.624
			c3.369,1.539,7.106,2.352,10.805,2.352c3.699,0,7.436-0.813,10.811-2.354c59.498-27.218,120.187-73.37,166.506-126.622
			C484.057,298.149,512,237.451,512,185.568C512,97.879,439.857,26.539,351.179,26.539z M420.802,345.597
			c-44.824,51.532-103.466,96.153-160.885,122.421c-2.446,1.117-5.392,1.114-7.827,0.002
			c-57.426-26.27-116.068-70.892-160.892-122.423c-48.114-55.315-74.61-112.148-74.61-160.029
			c0-78.543,64.703-142.441,144.234-142.441c33.173,0,64.304,10.769,90.03,31.141c3.018,2.389,7.281,2.389,10.299,0
			c25.725-20.373,56.856-31.141,90.029-31.141c79.53,0,144.234,63.898,144.234,142.441
			C495.413,233.449,468.916,290.282,420.802,345.597z"/>
	</g>
</g>
<g>
	<g>
		<path d="M273.693,141.546c-4.58,0-8.294,3.712-8.294,8.294v17.697c0,4.581,3.713,8.294,8.294,8.294
			c4.58,0,8.294-3.712,8.294-8.294V149.84C281.987,145.258,278.274,141.546,273.693,141.546z"/>
	</g>
</g>
<g>
	<g>
		<path d="M351.179,61.926c-30.52,0-59.974,11.034-82.938,31.068c-1.805,1.576-2.841,3.854-2.841,6.25v15.211
			c0,4.58,3.713,8.294,8.294,8.294c4.58,0,8.294-3.713,8.294-8.294v-11.357c19.501-15.881,43.926-24.585,69.192-24.585
			c60.018,0,108.847,48.024,108.847,107.054c0,27.321-11.16,59.316-32.273,92.526c-2.457,3.866-1.316,8.992,2.549,11.449
			c1.38,0.877,2.919,1.295,4.442,1.295c2.742,0,5.427-1.359,7.007-3.845c23.133-36.387,34.862-70.512,34.862-101.425
			C476.613,117.391,420.344,61.926,351.179,61.926z"/>
	</g>
</g>
<g>
	<g>
		<path d="M420.343,303.558c-3.613-2.819-8.823-2.174-11.641,1.436c-4.495,5.761-9.282,11.55-14.29,17.281L281.987,209.848v-6.928
			c0-4.58-3.713-8.294-8.294-8.294c-4.58,0-8.294,3.713-8.294,8.294v10.364c0,2.199,0.874,4.309,2.43,5.864l121.065,121.068
			c1.557,1.557,3.667,2.43,5.864,2.43c0.065,0,0.13,0,0.196-0.002c2.267-0.053,4.413-1.033,5.939-2.709
			c7.401-8.136,14.429-16.458,20.887-24.734C424.597,311.587,423.954,306.376,420.343,303.558z"/>
	</g>
</g>
<g>
	<g>
		<path d="M375.833,353.736l-96.276-96.272c-2.372-2.373-5.94-3.081-9.038-1.798c-3.1,1.284-5.12,4.308-5.12,7.662v167.352
			c0,2.936,1.553,5.654,4.082,7.145c1.298,0.764,2.755,1.149,4.212,1.149c1.382,0,2.766-0.345,4.016-1.037
			c33.931-18.783,67.804-43.788,97.958-72.311c1.627-1.539,2.562-3.67,2.594-5.91C378.293,357.477,377.417,355.321,375.833,353.736z
			 M281.987,416.326V283.351l76.035,76.033C334.2,381.15,308.243,400.581,281.987,416.326z"/>
	</g>
</g>
</svg>