<svg version="1.1" id="Layer_1" xmlns="http://www.w3.org/2000/svg" xmlns:xlink="http://www.w3.org/1999/xlink" x="0px" y="0px"
	 viewBox="0 0 512 512" style="enable-background:new 0 0 512 512;" xml:space="preserve">
<g>
	<g>
		<g>
			<path d="M493.798,302.933h-50.065v-15.932c0-10.035-8.166-18.202-18.202-18.202h-31.863c-10.035,0-18.202,8.166-18.202,18.202
				v15.932H330.18l-15.454-41.225c33.8-19.234,57.395-54.417,60.305-95.309h-50.765c-4.71,0-8.533-3.814-8.533-8.533
				s3.823-8.533,8.533-8.533h50.765C370.628,87.441,318.993,38.4,256,38.4S141.372,87.441,136.969,149.333h50.765
				c4.71,0,8.533,3.814,8.533,8.533s-3.823,8.533-8.533,8.533h-50.765c2.91,40.892,26.505,76.075,60.305,95.309l-15.454,41.225
				h-45.286v-15.932c0-10.035-8.166-18.202-18.202-18.202H86.468c-10.035,0-18.202,8.166-18.202,18.202v15.932H18.202
				C8.166,302.933,0,311.1,0,321.135v100.13c0,10.035,8.166,18.202,18.202,18.202h50.065v15.932
				c0,10.035,8.166,18.202,18.202,18.202h31.863c10.035,0,18.202-8.166,18.202-18.202v-15.932h238.933v15.932
				c0,10.035,8.166,18.202,18.202,18.202h31.863c10.035,0,18.202-8.166,18.202-18.202v-15.932h50.065
				c10.035,0,18.202-8.166,18.202-18.202v-100.13C512,311.1,503.834,302.933,493.798,302.933z M119.467,311.467v119.467v24.465
				c0,0.623-0.512,1.135-1.135,1.135H86.468c-0.623,0-1.135-0.512-1.135-1.135v-24.465V311.467v-24.465
				c0-0.631,0.512-1.135,1.135-1.135h31.863c0.623,0,1.135,0.503,1.135,1.135V311.467z M247.467,133.837v-27.17
				c0-4.719,3.823-8.533,8.533-8.533s8.533,3.814,8.533,8.533v27.17c9.916,3.533,17.067,12.919,17.067,24.03
				c0,14.114-11.486,25.6-25.6,25.6s-25.6-11.486-25.6-25.6C230.4,146.756,237.551,137.37,247.467,133.837z M264.533,226.133v33.596
				c-5.683,0.486-11.383,0.486-17.067,0v-33.596c0-4.719,3.823-8.533,8.533-8.533S264.533,221.414,264.533,226.133z
				 M200.047,302.933l12.672-33.783c13.423,5.248,28.006,8.183,43.281,8.183c-0.077,0-0.137-0.043-0.213-0.043h0.427
				c-0.077,0-0.136,0.043-0.213,0.043c15.275,0,29.858-2.935,43.281-8.183l12.672,33.783H200.047z M426.667,311.467v119.467v24.465
				c0,0.623-0.512,1.135-1.135,1.135h-31.863c-0.623,0-1.135-0.512-1.135-1.135v-24.465V311.467v-24.465
				c0-0.631,0.512-1.135,1.135-1.135h31.863c0.623,0,1.135,0.503,1.135,1.135V311.467z"/>
			<path d="M256,166.398c4.702,0,8.533-3.823,8.533-8.533c0-4.71-3.831-8.533-8.533-8.533c-4.702,0-8.533,3.823-8.533,8.533
				C247.467,162.575,251.298,166.398,256,166.398z"/>
		</g>
	</g>
</g>
</svg>