<svg version="1.1" id="Layer_1" xmlns="http://www.w3.org/2000/svg" xmlns:xlink="http://www.w3.org/1999/xlink" x="0px" y="0px"
	 viewBox="0 0 507.9 507.9" style="enable-background:new 0 0 507.9 507.9;" xml:space="preserve">
<g>
	<g>
		<path d="M465.7,143.35h-18v-66.7c0-23.3-19-42.3-42.3-42.3H102.7c-23.3,0-42.3,19-42.3,42.3v66.7h-18c-23.4,0-42.4,19-42.4,42.4
			v245.5c0,23.3,19,42.3,42.3,42.3h423.3c23.3,0,42.3-19,42.3-42.3v-245.5C508,162.35,489,143.35,465.7,143.35z M88.6,76.65
			c0-7.8,6.3-14.1,14.1-14.1h302.6c7.8,0,14.1,6.3,14.1,14.1v66.7h-24.2c0-7.8-6.3-14.1-14.1-14.1h-23.5c-7.8,0-14.1,6.3-14.1,14.1
			h-25.2c0-7.8-6.3-14.1-14.1-14.1h-23.5c-7.8,0-14.1,6.3-14.1,14.1h-25.2c0-7.8-6.3-14.1-14.1-14.1h-23.5
			c-7.8,0-14.1,6.3-14.1,14.1h-25.2c0-7.8-6.3-14.1-14.1-14.1h-23.5c-7.8,0-14.1,6.3-14.1,14.1H88.6V76.65z M465.7,445.35H42.3
			c-7.8,0-14.1-6.3-14.1-14.1v-245.5c0-7.8,6.3-14.1,14.1-14.1h423.3c7.8,0,14.1,6.3,14.1,14.1v245.5h0.1
			C479.8,439.05,473.5,445.35,465.7,445.35z"/>
	</g>
</g>
<g>
	<g>
		<path d="M336.3,189.45c-65.6,0-119,53.4-119,119s53.4,119,119,119s119-53.4,119-119S401.9,189.45,336.3,189.45z M336.3,399.25
			c-50.1,0-90.8-40.7-90.8-90.8c0-50.1,40.7-90.8,90.8-90.8c50,0,90.8,40.7,90.8,90.8C427.1,358.55,386.4,399.25,336.3,399.25z"/>
	</g>
</g>
<g>
	<g>
		<path d="M336.3,245.95c-34.5,0-62.5,28.1-62.5,62.6s28.1,62.5,62.5,62.5c34.5,0,62.6-28.1,62.6-62.5
			C398.9,273.95,370.8,245.95,336.3,245.95z M336.3,342.85c-18.9,0-34.3-15.4-34.3-34.3c0-18.9,15.4-34.3,34.3-34.3
			c18.9,0,34.3,15.4,34.3,34.3C370.6,327.45,355.2,342.85,336.3,342.85z"/>
	</g>
</g>
<g>
	<g>
		<path d="M141.3,209.55H68c-7.8,0-14.1,6.3-14.1,14.1s6.3,14.1,14.1,14.1h73.4c7.8,0,14.1-6.3,14.1-14.1S149.1,209.55,141.3,209.55
			z"/>
	</g>
</g>
<g>
	<g>
		<path d="M141.3,266.15H68c-7.8,0-14.1,6.3-14.1,14.1s6.3,14.1,14.1,14.1h73.4c7.8,0,14.1-6.3,14.1-14.1
			C155.5,272.45,149.1,266.15,141.3,266.15z"/>
	</g>
</g>
<g>
	<g>
		<path d="M141.3,322.65H68c-7.8,0-14.1,6.3-14.1,14.1s6.3,14.1,14.1,14.1h73.4c7.8,0,14.1-6.3,14.1-14.1
			C155.5,328.95,149.1,322.65,141.3,322.65z"/>
	</g>
</g>
<g>
	<g>
		<path d="M141.3,379.15H68c-7.8,0-14.1,6.3-14.1,14.1s6.3,14.1,14.1,14.1h73.4c7.8,0,14.1-6.3,14.1-14.1
			C155.5,385.45,149.1,379.15,141.3,379.15z"/>
	</g>
</g>
</svg>