<svg version="1.1" id="Layer_1" xmlns="http://www.w3.org/2000/svg" xmlns:xlink="http://www.w3.org/1999/xlink" x="0px" y="0px"
	 viewBox="0 0 512.001 512.001" style="enable-background:new 0 0 512.001 512.001;" xml:space="preserve">
<g>
	<g>
		<g>
			<path d="M81.067,34.133c-14.114,0-25.6-11.486-25.6-25.6C55.467,3.814,51.644,0,46.934,0C42.223,0,38.4,3.814,38.4,8.533
				c0,14.114-11.486,25.6-25.6,25.6c-4.71,0-8.533,3.814-8.533,8.533S8.09,51.2,12.8,51.2c14.114,0,25.6,11.486,25.6,25.6
				c0,4.719,3.823,8.533,8.533,8.533c4.71,0,8.533-3.814,8.533-8.533c0-14.114,11.486-25.6,25.6-25.6
				c4.71,0,8.533-3.814,8.533-8.533S85.777,34.133,81.067,34.133z M46.934,51.226c-2.432-3.243-5.325-6.127-8.559-8.559
				c3.234-2.432,6.127-5.316,8.559-8.559c2.432,3.243,5.325,6.127,8.559,8.559C52.259,45.099,49.366,47.983,46.934,51.226z"/>
			<path d="M482.134,136.534H473.6v-8.533c0-4.719-3.823-8.533-8.533-8.533s-8.533,3.814-8.533,8.533v8.533H448
				c-4.71,0-8.533,3.814-8.533,8.533s3.823,8.533,8.533,8.533h8.533v8.533c0,4.719,3.823,8.533,8.533,8.533s8.533-3.814,8.533-8.533
				v-8.533h8.533c4.71,0,8.533-3.814,8.533-8.533S486.844,136.534,482.134,136.534z"/>
			<circle cx="64" cy="375.468" r="8.533"/>
			<circle cx="21.334" cy="221.868" r="8.533"/>
			<circle cx="439.467" cy="307.201" r="8.533"/>
			<circle cx="499.2" cy="486.401" r="8.533"/>
			<path d="M243.2,469.334c0,9.412,7.654,17.067,17.067,17.067c9.412,0,17.067-7.654,17.067-17.067
				c0-9.412-7.654-17.067-17.067-17.067C250.855,452.268,243.2,459.922,243.2,469.334z"/>
			<path d="M371.533,0.001H149.001c-18.637,0-33.801,15.164-33.801,33.801v17.399h290.133V33.801
				C405.334,15.165,390.17,0.001,371.533,0.001z M226.134,34.134H217.6c-4.71,0-8.533-3.823-8.533-8.533
				c0-4.71,3.823-8.533,8.533-8.533h8.533c4.71,0,8.533,3.823,8.533,8.533C234.667,30.311,230.844,34.134,226.134,34.134z
				 M294.4,34.134h-42.667c-4.71,0-8.533-3.823-8.533-8.533c0-4.71,3.823-8.533,8.533-8.533H294.4c4.71,0,8.533,3.823,8.533,8.533
				C302.934,30.311,299.111,34.134,294.4,34.134z"/>
			<path d="M294.4,469.334c0,18.825-15.309,34.133-34.133,34.133s-34.133-15.309-34.133-34.133c0-10.24,4.625-19.337,11.793-25.6
				H115.2V478.2c0,18.637,15.164,33.8,33.801,33.8h222.532c18.637,0,33.8-15.164,33.8-33.8v-34.466H282.607
				C289.775,449.998,294.4,459.094,294.4,469.334z"/>
			<rect x="209.067" y="196.268" width="102.4" height="102.4"/>
			<path d="M311.467,166.401c0-2.347-1.911-4.267-4.267-4.267h-93.867c-2.355,0-4.267,1.92-4.267,4.267v12.8h102.4V166.401z"/>
			<path d="M405.33,426.667v-358.4H115.197V76.8c-4.71,0-8.533,3.823-8.533,8.533v8.533c0,4.71,3.823,8.533,8.533,8.533v8.533
				c-4.71,0-8.533,3.823-8.533,8.533V128c0,4.71,3.823,8.533,8.533,8.533v8.533c-4.71,0-8.533,3.823-8.533,8.533v8.533
				c0,4.71,3.823,8.533,8.533,8.533v256H405.33z M347.739,227.516c-3.115-3.524-2.79-8.917,0.742-12.041
				c3.533-3.123,8.926-2.79,12.041,0.742c15.957,18.031,12.988,46.754,0.196,62.276c-1.69,2.048-4.13,3.106-6.588,3.106
				c-1.911,0-3.831-0.64-5.427-1.946c-3.635-3.004-4.156-8.38-1.152-12.015C355.513,257.988,357.322,238.362,347.739,227.516z
				 M191.997,166.4c0-11.768,9.574-21.333,21.333-21.333h93.867c11.767,0,21.333,9.566,21.333,21.333v162.133
				c0,11.767-9.566,21.333-21.333,21.333H213.33c-11.759,0-21.333-9.566-21.333-21.333V166.4z M160.151,216.218
				c3.123-3.533,8.508-3.866,12.049-0.742c3.524,3.123,3.857,8.516,0.734,12.041c-9.583,10.846-7.765,30.473,0.196,40.124
				c2.995,3.635,2.475,9.011-1.161,12.015c-1.587,1.306-3.507,1.946-5.419,1.946c-2.466,0-4.907-1.058-6.588-3.106
				C147.171,262.972,144.193,234.249,160.151,216.218z"/>
			<path d="M213.334,332.801H307.2c2.355,0,4.267-1.92,4.267-4.267v-12.8h-102.4v12.8
				C209.067,330.881,210.979,332.801,213.334,332.801z"/>
		</g>
	</g>
</g>
</svg>