<svg version="1.1" id="Layer_1" xmlns="http://www.w3.org/2000/svg" xmlns:xlink="http://www.w3.org/1999/xlink" x="0px" y="0px"
	 viewBox="0 0 512 512" style="enable-background:new 0 0 512 512;" xml:space="preserve">
<path style="fill:#44A72A;" d="M295.733,49.985L256,0l12.817,126.481h10.251c16.395-8.383,27.569-25.454,27.569-45.101
	C306.637,69.835,302.856,58.976,295.733,49.985z"/>
<path style="fill:#4FC331;" d="M256,0l22.078,49.985c3.95,8.991,6.054,19.85,6.054,31.395c0,19.647-6.212,36.718-15.315,45.101
	l-24.07,0.011L256,0z"/>
<path style="fill:#C8E68D;" d="M256,0v126.492h-23.068c-16.395-8.395-27.569-25.465-27.569-45.112
	c0-11.545,3.781-22.404,10.926-31.418L256,0z"/>
<path style="fill:#44A72A;" d="M138.421,82.229L74.98,74.98l98.499,80.373l7.249-7.249c5.666-17.522,1.495-37.493-12.397-51.386
	C160.167,88.555,149.816,83.551,138.421,82.229z"/>
<path style="fill:#4FC331;" d="M74.98,74.98l50.956,19.733c9.151,3.565,18.317,9.755,26.481,17.919
	c13.893,13.893,21.572,30.355,21.062,42.721l-17.012,17.028L74.98,74.98z"/>
<path style="fill:#C8E68D;" d="M74.98,74.98l89.444,89.444l-16.312,16.312c-17.53,5.658-37.501,1.488-51.394-12.405
	c-8.164-8.164-13.169-18.515-14.489-29.941L74.98,74.98z"/>
<path style="fill:#44A72A;" d="M49.985,216.267L0,256l126.481-12.817v-10.251c-8.383-16.395-25.454-27.569-45.101-27.569
	C69.835,205.363,58.976,209.144,49.985,216.267z"/>
<path style="fill:#4FC331;" d="M0,256l49.985-22.078c8.991-3.95,19.85-6.054,31.395-6.054c19.647,0,36.718,6.212,45.101,15.315
	l0.011,24.07L0,256z"/>
<path style="fill:#C8E68D;" d="M0,256h126.492v23.068c-8.395,16.395-25.465,27.569-45.112,27.569
	c-11.545,0-22.404-3.781-31.418-10.926L0,256z"/>
<path style="fill:#44A72A;" d="M82.229,373.579L74.98,437.02l80.373-98.499l-7.249-7.249c-17.522-5.666-37.493-1.495-51.386,12.397
	C88.555,351.833,83.551,362.184,82.229,373.579z"/>
<path style="fill:#4FC331;" d="M74.98,437.02l19.733-50.956c3.565-9.151,9.755-18.317,17.919-26.481
	c13.893-13.893,30.355-21.572,42.721-21.062l17.028,17.012L74.98,437.02z"/>
<path style="fill:#C8E68D;" d="M74.98,437.02l89.444-89.444l16.312,16.312c5.658,17.53,1.488,37.501-12.405,51.394
	c-8.164,8.164-18.515,13.169-29.941,14.489L74.98,437.02z"/>
<path style="fill:#44A72A;" d="M216.267,462.015L256,512l-12.817-126.481h-10.251c-16.395,8.383-27.569,25.454-27.569,45.101
	C205.363,442.165,209.144,453.024,216.267,462.015z"/>
<path style="fill:#4FC331;" d="M256,512l-22.078-49.985c-3.95-8.991-6.054-19.85-6.054-31.395c0-19.647,6.212-36.718,15.315-45.101
	l24.07-0.011L256,512z"/>
<path style="fill:#C8E68D;" d="M256,512V385.508h23.068c16.395,8.395,27.569,25.465,27.569,45.112
	c0,11.545-3.781,22.404-10.926,31.418L256,512z"/>
<path style="fill:#44A72A;" d="M373.579,429.771l63.441,7.249l-98.499-80.373l-7.249,7.249
	c-5.666,17.522-1.495,37.493,12.397,51.386C351.833,423.444,362.184,428.449,373.579,429.771z"/>
<path style="fill:#4FC331;" d="M437.02,437.02l-50.956-19.733c-9.151-3.565-18.317-9.755-26.481-17.919
	c-13.893-13.893-21.572-30.355-21.062-42.721l17.012-17.028L437.02,437.02z"/>
<path style="fill:#C8E68D;" d="M437.02,437.02l-89.444-89.444l16.312-16.312c17.53-5.658,37.501-1.488,51.394,12.405
	c8.164,8.164,13.169,18.515,14.489,29.941L437.02,437.02z"/>
<path style="fill:#44A72A;" d="M462.015,295.733L512,256l-126.481,12.817v10.251c8.383,16.395,25.454,27.569,45.101,27.569
	C442.165,306.637,453.024,302.856,462.015,295.733z"/>
<path style="fill:#4FC331;" d="M512,256l-49.985,22.078c-8.991,3.95-19.85,6.054-31.395,6.054c-19.647,0-36.718-6.212-45.101-15.315
	l-0.011-24.07L512,256z"/>
<path style="fill:#C8E68D;" d="M512,256H385.508v-23.068c8.395-16.395,25.465-27.569,45.112-27.569
	c11.545,0,22.404,3.781,31.418,10.926L512,256z"/>
<path style="fill:#44A72A;" d="M429.771,138.421l7.249-63.441l-80.373,98.499l7.249,7.249c17.522,5.666,37.493,1.495,51.386-12.397
	C423.444,160.167,428.449,149.816,429.771,138.421z"/>
<path style="fill:#4FC331;" d="M437.02,74.98l-19.733,50.956c-3.565,9.151-9.755,18.317-17.919,26.481
	c-13.893,13.893-30.355,21.572-42.721,21.062l-17.028-17.012L437.02,74.98z"/>
<path style="fill:#C8E68D;" d="M437.02,74.98l-89.444,89.444l-16.312-16.312c-5.658-17.53-1.488-37.501,12.405-51.394
	c8.164-8.164,18.515-13.169,29.941-14.489L437.02,74.98z"/>
<path style="fill:#F774C1;" d="M399.473,256c0-20.624-11.609-38.534-28.646-47.561c5.656-18.437,1.207-39.299-13.378-53.886
	c-12.805-12.805-30.463-17.803-47.059-14.981v232.855c16.594,2.821,34.254-2.176,47.059-14.981
	c14.587-14.586,19.034-35.45,13.378-53.886C387.863,294.534,399.473,276.624,399.473,256z"/>
<path style="fill:#F997D1;" d="M342.12,208.439c12.781,9.027,21.485,26.937,21.485,47.561c0,20.624-8.704,38.534-21.485,47.561
	c4.245,18.437,0.909,39.299-10.031,53.886c-6.134,8.177-13.75,13.163-21.7,14.981c-2.308-0.37-4.579-0.92-6.827-1.602
	c-9.028,17.038-26.938,28.647-47.562,28.647c-20.624,0-38.534-11.609-47.561-28.646c-18.437,5.656-39.299,1.207-53.886-13.378
	c-14.587-14.587-19.034-35.45-13.378-53.886c-17.038-9.028-28.647-26.938-28.647-47.562c0-20.624,11.609-38.534,28.646-47.561
	c-5.656-18.437-1.207-39.299,13.378-53.886s35.45-19.034,53.886-13.378c9.028-17.038,26.938-28.647,47.562-28.647
	c20.624,0,38.534,11.609,47.561,28.646c2.248-0.682,4.519-1.231,6.827-1.602c7.939,1.805,15.567,6.803,21.7,14.981
	C343.028,169.139,346.364,190.003,342.12,208.439z"/>
<path style="fill:#BE2428;" d="M333.971,223.703l-45.688-45.641c-19.966-8.27-43.08-8.939-64.58-0.034l-45.641,45.688
	c-8.266,19.976-8.939,43.08-0.034,64.579l45.688,45.641c19.966,8.27,43.08,8.939,64.579,0.034l45.641-45.688
	C342.203,268.306,342.877,245.203,333.971,223.703z"/>
<g>
	<path style="fill:#E52C22;" d="M223.703,178.029L256,256l-77.938-32.283C186.333,203.751,202.204,186.934,223.703,178.029z"/>
	<path style="fill:#E52C22;" d="M256,256l-32.283,77.938c-19.97-8.281-36.783-24.142-45.688-45.641L256,256z"/>
	<path style="fill:#E52C22;" d="M288.297,333.971L256,256l77.938,32.283C325.667,308.249,309.796,325.066,288.297,333.971z"/>
	<path style="fill:#E52C22;" d="M333.971,223.703L256,256l32.283-77.938C308.253,186.343,325.066,202.204,333.971,223.703z"/>
</g>
<path style="fill:#FFD46E;" d="M256,205.363v101.275c27.963,0,50.637-22.674,50.637-50.637
	C306.637,228.037,283.963,205.363,256,205.363z"/>
<path style="fill:#FFE9B7;" d="M256,205.363c9.317,0,16.879,22.674,16.879,50.637c0,27.963-7.562,50.637-16.879,50.637
	c-27.963,0-50.637-22.674-50.637-50.637C205.363,228.037,228.037,205.363,256,205.363z"/>
</svg>