<svg version="1.1" id="Layer_1" xmlns="http://www.w3.org/2000/svg" xmlns:xlink="http://www.w3.org/1999/xlink" x="0px" y="0px"
	 viewBox="0 0 512 512" style="enable-background:new 0 0 512 512;" xml:space="preserve">
<polygon style="fill:#AFE1ED;" points="379.602,124.679 60.43,124.679 96.806,200.316 97.197,394.2 379.602,394.2 "/>
<polygon style="fill:#C97767;" points="97.197,394.2 97.617,497.125 379.602,497.125 379.602,394.2 "/>
<path d="M337.083,359.121c-0.967,0-1.949-0.103-2.901-0.296c-0.952-0.193-1.889-0.476-2.782-0.848
	c-0.893-0.372-1.769-0.833-2.572-1.368s-1.578-1.16-2.262-1.844c-0.684-0.684-1.309-1.443-1.843-2.261
	c-0.535-0.803-0.997-1.666-1.368-2.573c-0.372-0.892-0.654-1.828-0.848-2.782c-0.193-0.952-0.297-1.934-0.297-2.901
	c0-0.965,0.104-1.949,0.297-2.915c0.193-0.937,0.476-1.874,0.848-2.78c0.372-0.894,0.833-1.757,1.368-2.56
	c0.534-0.818,1.159-1.577,1.843-2.261c0.684-0.699,1.458-1.309,2.262-1.859c0.803-0.535,1.681-0.997,2.572-1.368
	c0.894-0.372,1.83-0.654,2.782-0.848c1.919-0.387,3.897-0.387,5.816,0c0.952,0.193,1.874,0.476,2.782,0.848
	c0.892,0.372,1.755,0.833,2.558,1.368c0.818,0.55,1.578,1.16,2.262,1.859c0.684,0.684,1.309,1.443,1.859,2.261
	c0.534,0.803,0.997,1.666,1.368,2.56c0.372,0.906,0.653,1.843,0.846,2.78c0.195,0.967,0.283,1.95,0.283,2.915
	c0,0.967-0.089,1.95-0.283,2.901c-0.193,0.953-0.475,1.891-0.846,2.782c-0.372,0.907-0.835,1.77-1.368,2.573
	c-0.55,0.818-1.175,1.577-1.859,2.261c-0.684,0.684-1.444,1.309-2.262,1.844c-0.803,0.535-1.666,0.997-2.558,1.368
	c-0.907,0.372-1.83,0.655-2.782,0.848C339.03,359.017,338.05,359.121,337.083,359.121z"/>
<rect x="96.806" y="68.603" style="fill:#FFAB64;" width="281.06" height="56.368"/>
<path d="M451.57,109.803h-58.83V68.598c0-8.214-6.661-14.875-14.875-14.875H252.188V29.75h48.715
	c8.214,0,14.875-6.661,14.875-14.875S309.117,0,300.903,0h-127.18c-8.214,0-14.875,6.661-14.875,14.875s6.661,14.875,14.875,14.875
	h48.715v23.974H96.803c-8.214,0-14.875,6.661-14.875,14.875v41.205H60.43c-5.114,0-9.871,2.628-12.593,6.958
	c-2.722,4.329-3.029,9.755-0.812,14.363l34.913,72.597l0.385,190.511c0,0.004,0,0.009,0,0.015c0,0.006,0,0.01,0,0.016l0.419,102.923
	C82.775,505.378,89.425,512,97.617,512H379.6c8.214,0,14.875-6.661,14.875-14.875V394.202V139.553h42.221v145.305
	c0,8.214,6.661,14.875,14.875,14.875s14.875-6.661,14.875-14.875V124.678C466.445,116.464,459.786,109.803,451.57,109.803z
	 M111.681,200.285c-0.004-2.221-0.507-4.415-1.47-6.416L84.09,139.553h9.802c0.942,0.187,1.914,0.289,2.911,0.289H222.44v189.526
	h-80.574c-8.214,0-14.875,6.661-14.875,14.875s6.661,14.875,14.875,14.875h80.572v20.209H112.042L111.681,200.285z M252.188,359.118
	h40.275c8.214,0,14.875-6.661,14.875-14.875s-6.661-14.875-14.875-14.875h-40.275V139.843h112.537v239.484H252.188V359.118z
	 M362.992,83.473v26.33H111.678v-26.33H362.992z M364.727,482.25H112.431l-0.297-73.174h252.594V482.25z"/>
</svg>