<svg version="1.1" id="Layer_1" xmlns="http://www.w3.org/2000/svg" xmlns:xlink="http://www.w3.org/1999/xlink" x="0px" y="0px"
	 viewBox="0 0 513.081 513.081" style="enable-background:new 0 0 513.081 513.081;" xml:space="preserve">
<g transform="translate(1 1)">
	<path style="fill:#FFE100;" d="M479.844,172.975c-23.893,13.653-48.64,0.853-71.68-21.333l-23.893-23.893l-23.893-23.893
		c-23.04-23.04-35.84-47.787-21.333-71.68c-26.453-10.24-54.613-15.36-83.627-15.36c-132.267,0-238.933,106.667-238.933,238.933
		c0,72.533,32.427,137.387,83.627,181.76l5.973-5.973l18.773-18.773c8.533-8.533,8.533-16.213,2.56-24.747
		c-1.707-1.707-10.24-9.387-10.24-9.387c-5.12-2.56-5.12-9.387-1.707-14.507c0,0,13.653-23.04,25.6-29.013
		c5.12-2.56,11.093-1.707,15.36,2.56l8.533,8.533c26.453,26.453,13.653,56.32-12.8,82.773l-23.893,23.893l-3.413,3.413
		c36.693,23.893,81.92,38.4,130.56,38.4c132.267,0,238.933-106.667,238.933-238.933C494.35,226.735,489.23,198.575,479.844,172.975"
		/>
	<path style="fill:#FFFFFF;" d="M42.084,253.189c0-128,99.84-232.107,226.133-238.933c-4.267,0-8.533,0-12.8,0
		c-132.267,0-238.933,106.667-238.933,238.933c0,72.533,32.427,137.387,83.627,181.76l5.973-5.973l5.973-5.973
		C69.39,379.482,42.084,319.749,42.084,253.189"/>
	<path style="fill:#FFA800;" d="M479.844,178.949c-7.68,4.267-15.36,5.973-23.893,5.973c8.533,23.893,12.8,50.347,12.8,76.8
		c0,127.147-99.84,231.253-225.28,238.08c4.267,0,7.68,0.853,11.947,0.853c132.267,0,238.933-106.667,238.933-238.933
		C494.35,232.709,489.23,204.549,479.844,178.949"/>
	<g>
		<path style="fill:#00DA6C;" d="M501.177,140.549c-5.973-11.947-29.013-25.6-29.013-25.6c-5.12-2.56-11.093-3.413-14.507,1.707
			c0,0-7.68,9.387-9.387,10.24c-8.533,5.973-17.067,5.973-24.747-2.56l-18.773-18.773l-18.773-18.773
			c-8.533-8.533-8.533-16.213-2.56-24.747c1.707-1.707,10.24-9.387,10.24-9.387c5.12-2.56,5.12-9.387,1.707-14.507
			c0,0-13.653-23.04-25.6-29.013c-5.12-2.56-11.093-1.707-15.36,2.56l-8.533,8.533c-26.453,26.453-13.653,56.32,12.8,82.773
			l23.893,23.893l23.893,23.893c26.453,26.453,56.32,39.253,82.773,12.8l8.533-8.533
			C502.884,152.495,503.737,145.669,501.177,140.549"/>
		<path style="fill:#00DA6C;" d="M9.657,464.815c5.973-11.947,29.013-25.6,29.013-25.6c5.12-2.56,11.093-3.413,14.507,1.707
			c0,0,7.68,8.533,9.387,10.24c8.533,5.973,17.067,5.973,24.747-2.56l18.773-18.773l18.773-18.773
			c8.533-8.533,8.533-16.213,2.56-24.747c-1.707-1.707-10.24-9.387-10.24-9.387c-5.12-2.56-5.12-9.387-1.707-14.507
			c0,0,13.653-23.04,25.6-29.013c5.12-2.56,11.093-1.707,15.36,2.56l8.533,8.533c26.453,26.453,13.653,56.32-12.8,82.773
			l-23.893,23.893l-23.893,23.893c-26.453,26.453-56.32,39.253-82.773,12.8l-8.533-8.533C7.95,476.762,7.097,469.935,9.657,464.815"
			/>
	</g>
	<path d="M255.417,503.215c-5.12,0-8.533-3.413-8.533-8.533V16.815c0-5.12,3.413-8.533,8.533-8.533c5.12,0,8.533,3.413,8.533,8.533
		v477.867C263.95,499.802,260.537,503.215,255.417,503.215z"/>
	<path d="M255.417,153.349c-64,0-125.44-18.773-178.347-54.613c-4.267-2.56-5.12-7.68-2.56-11.947c2.56-4.267,7.68-5.12,11.947-2.56
		c49.493,34.133,108.373,52.053,168.107,52.053c5.12,0,8.533,3.413,8.533,8.533S260.537,153.349,255.417,153.349z"/>
	<path d="M494.35,264.282H16.484c-5.12,0-8.533-3.413-8.533-8.533c0-5.12,3.413-8.533,8.533-8.533H494.35
		c5.12,0,8.533,3.413,8.533,8.533C502.884,260.869,499.47,264.282,494.35,264.282z"/>
	<path d="M433.764,423.855c-1.707,0-3.413-0.853-5.12-1.707c-51.2-35.84-110.933-55.467-173.227-55.467
		c-5.12,0-8.533-3.413-8.533-8.533s3.413-8.533,8.533-8.533c65.707,0,128.853,20.48,182.613,58.88
		c4.267,2.56,5.12,7.68,1.707,11.947C438.884,422.149,436.324,423.855,433.764,423.855z"/>
	<path d="M260.537,503.215c-2.56,0-5.12-0.853-6.827-3.413c-2.56-3.413-2.56-9.387,0.853-11.947
		c70.827-57.173,110.933-141.653,110.933-232.107c0-5.12,3.413-8.533,8.533-8.533s8.533,3.413,8.533,8.533
		c0,95.573-42.667,185.173-116.907,245.76C264.804,502.362,263.097,503.215,260.537,503.215z"/>
	<path d="M135.95,264.282c-5.12,0-8.533-3.413-8.533-8.533c0-95.573,42.667-185.173,116.907-245.76
		c3.413-2.56,9.387-2.56,11.947,0.853s2.56,9.387-0.853,11.947c-70.827,58.027-110.933,142.507-110.933,232.96
		C144.484,260.869,141.07,264.282,135.95,264.282z"/>
	<path d="M459.364,187.482L459.364,187.482c-17.92,0-37.547-10.24-57.173-29.867l-48.64-48.64
		c-46.933-46.933-28.16-79.36-12.8-94.72l8.533-8.533c6.827-6.827,17.067-8.533,25.6-3.413
		c13.653,6.827,27.307,29.867,29.013,32.427c3.413,5.12,4.267,11.093,2.56,16.213c-0.853,4.267-3.413,6.827-6.827,9.387
		c-3.413,2.56-7.68,6.827-8.533,7.68c-3.413,5.12-3.413,8.533,1.707,13.653l37.547,37.547c4.267,4.267,6.827,4.267,7.68,4.267
		c1.707,0,4.267-0.853,6.827-2.56c0.853-0.853,4.267-5.12,6.827-8.533c5.12-7.68,16.213-10.24,25.6-4.267
		c2.56,1.707,25.6,15.36,32.427,29.013c4.267,8.533,2.56,18.773-3.413,25.6l-8.533,8.533
		C485.817,181.509,473.017,187.482,459.364,187.482z M363.79,16.815c-0.853,0-2.56,0.853-3.413,1.707l-8.533,8.533
		c-5.973,6.827-28.16,28.16,13.653,69.973l48.64,48.64c28.16,28.16,50.347,33.28,70.827,12.8l8.533-8.533
		c1.707-1.707,1.707-3.413,0.853-5.12c-3.413-6.827-17.92-17.067-25.6-22.187c-0.853-0.853-2.56-0.853-2.56-0.853l-0.853,0.853
		c-8.533,10.24-10.24,11.093-11.093,11.947c-12.8,8.533-24.747,6.827-35.84-3.413l-38.4-37.547
		c-10.24-10.24-11.947-23.04-3.413-35.84c0.853-0.853,1.707-2.56,11.947-11.093l0.853-0.853c0,0,0-0.853-0.853-2.56
		c-5.12-7.68-14.507-22.187-22.187-25.6C365.497,16.815,364.644,16.815,363.79,16.815z"/>
	<path d="M51.47,511.749c-13.653,0-26.453-5.973-37.547-17.067l-8.533-8.533c-6.827-6.827-8.533-17.067-3.413-25.6
		c6.827-13.653,29.867-27.307,32.427-29.013c10.24-5.973,20.48-3.413,25.6,4.267c2.56,3.413,6.827,7.68,7.68,8.533
		c2.56,1.707,4.267,2.56,5.973,2.56c0.853,0,3.413,0,7.68-4.267l37.547-37.547c5.12-5.12,5.12-8.533,1.707-13.653
		c-0.853-0.853-5.12-4.267-8.533-6.827c-3.413-2.56-5.973-5.12-6.827-9.387c-1.707-5.12-0.853-11.093,2.56-16.213
		c1.707-2.56,15.36-25.6,29.013-32.427c8.533-4.267,18.773-2.56,25.6,3.413l8.533,8.533c15.36,15.36,34.133,47.787-12.8,94.72
		l-48.64,48.64C89.017,501.509,69.39,511.749,51.47,511.749z M45.497,446.042c0,0-1.707,0.853-2.56,0.853
		c-7.68,5.12-22.187,14.507-25.6,22.187c-0.853,1.707-0.853,4.267,0.853,5.12l8.533,8.533c19.627,19.627,42.667,14.507,70.827-12.8
		l48.64-48.64c41.813-41.813,20.48-63.147,12.8-70.827l-8.533-8.533c-1.707-0.853-4.267-0.853-5.973,0
		c-6.827,3.413-17.067,17.92-22.187,25.6c-0.853,1.707-0.853,2.56-0.853,3.413l0.853,0.853c10.24,8.533,11.093,10.24,11.947,11.093
		c8.533,12.8,6.827,24.747-3.413,35.84l-37.547,36.693c-10.24,10.24-23.04,11.947-35.84,3.413
		c-0.853-0.853-2.56-1.707-11.093-11.947L45.497,446.042z"/>
	<path d="M255.417,503.215c-48.64,0-96.427-14.507-136.533-40.96l-8.533-5.973l34.987-34.987
		c41.813-41.813,20.48-63.147,12.8-70.827l-8.533-8.533c-0.853-0.853-3.413-0.853-5.12,0c-6.827,3.413-17.067,17.92-22.187,26.453
		c-0.853,1.707-0.853,2.56-0.853,3.413l0.853,0.853c10.24,8.533,11.093,10.24,11.947,11.093c8.533,11.947,6.827,24.747-3.413,35.84
		l-30.72,30.72l-5.973-6.827C39.524,396.549,7.95,328.282,7.95,255.749C7.95,119.215,118.884,8.282,255.417,8.282
		c29.013,0,58.027,5.12,85.333,15.36l9.387,3.413l-5.12,8.533c-10.24,17.067-3.413,37.547,20.48,61.44l48.64,48.64
		c23.893,23.893,43.52,30.72,61.44,20.48l8.533-5.12l3.413,9.387c10.24,27.307,15.36,56.32,15.36,85.333
		C502.884,392.282,391.95,503.215,255.417,503.215z M136.804,453.722c35.84,21.333,76.8,32.427,118.613,32.427
		c127.147,0,230.4-103.253,230.4-230.4c0-23.893-3.413-47.787-11.093-70.827c-22.187,7.68-46.933-1.707-72.533-27.307l-48.64-48.64
		c-30.72-30.72-33.28-55.467-27.307-72.533c-23.04-7.68-46.933-11.093-70.827-11.093c-127.147,0-230.4,103.253-230.4,230.4
		c0,64.853,27.307,126.293,74.24,169.813l19.627-19.627c5.12-5.12,5.12-8.533,1.707-13.653c-0.853-0.853-5.12-4.267-8.533-6.827
		s-5.973-5.12-6.827-9.387c-1.707-5.12-0.853-11.093,2.56-16.213c1.707-2.56,15.36-25.6,29.013-32.427
		c8.533-4.267,18.773-2.56,25.6,3.413l8.533,8.533c15.36,15.36,34.133,47.787-12.8,94.72L136.804,453.722z"/>
</g>
</svg>