<svg version="1.1" id="Layer_1" xmlns="http://www.w3.org/2000/svg" xmlns:xlink="http://www.w3.org/1999/xlink" x="0px" y="0px"
	 viewBox="0 0 512 512" style="enable-background:new 0 0 512 512;" xml:space="preserve">
<g>
	<g>
		<g>
			<path d="M281.6,106.667H76.8c-14.134,0-25.6,11.466-25.6,25.6v102.4c0,14.134,11.466,25.6,25.6,25.6h204.8
				c14.134,0,25.6-11.466,25.6-25.6v-102.4C307.2,118.133,295.734,106.667,281.6,106.667z M290.133,234.667
				c0,4.708-3.825,8.533-8.533,8.533H76.8c-4.708,0-8.533-3.825-8.533-8.533v-102.4c0-4.708,3.825-8.533,8.533-8.533h204.8
				c4.708,0,8.533,3.825,8.533,8.533V234.667z"/>
			<path d="M486.4,167.474v-9.607c0-9.432-7.635-17.067-17.067-17.067h-17.067v-17.065c0-4.713-3.82-8.533-8.533-8.533h-93.867
				V78.768c5.098-2.95,8.533-8.449,8.533-14.768V46.933c0-9.432-7.635-17.067-17.067-17.067H17.067C7.635,29.867,0,37.502,0,46.933
				V64c0,6.319,3.436,11.817,8.533,14.768v207.099c0,9.432,7.635,17.067,17.067,17.067h34.133v76.8c0,14.134,11.466,25.6,25.6,25.6
				h8.533v34.133c0,18.853,15.281,34.133,34.133,34.133s34.133-15.281,34.133-34.133v-34.133h34.133v34.133
				c0,18.853,15.281,34.133,34.133,34.133s34.133-15.281,34.133-34.133v-34.133h8.533c14.134,0,25.6-11.466,25.6-25.6v-76.8H332.8
				c9.432,0,17.067-7.635,17.067-17.067v-51.198h93.867c4.713,0,8.533-3.82,8.533-8.533v-17.068h17.067
				c9.432,0,17.067-7.635,17.067-17.067v-6.236c5.099,2.949,8.533,8.448,8.533,14.77v230.4c0,18.873-15.26,34.133-34.133,34.133
				c-15.926,0-29.279-10.866-33.061-25.6h3.186c7.056,0,12.809-5.729,12.809-12.8v-22.804c5.034-2.399,8.533-7.501,8.533-13.446
				v-6.272c0-2.261,1.89-4.13,4.267-4.13c11.755,0,21.333-9.463,21.333-21.18v-47.369c0-10.152-6.879-17.067-17.067-17.067v-25.598
				c0-4.713-3.821-8.533-8.533-8.533H384c-4.713,0-8.533,3.82-8.533,8.533V294.4c-10.188,0-17.067,6.914-17.067,17.067v47.369
				c0,11.716,9.578,21.18,21.333,21.18c2.376,0,4.267,1.869,4.267,4.13v6.272c0,5.945,3.499,11.046,8.533,13.446v22.804
				c0,7.064,5.72,12.8,12.792,12.8h4.995c4.059,24.228,25.091,42.667,50.48,42.667c28.299,0,51.2-22.901,51.2-51.2v-230.4
				C512,184.619,501.127,171.26,486.4,167.474z M17.067,46.933h324.267V64H17.067V46.933z M145.067,439.467
				c0,9.427-7.64,17.067-17.067,17.067c-9.427,0-17.067-7.64-17.067-17.067v-34.133h34.133V439.467z M247.467,439.467
				c0,9.427-7.64,17.067-17.067,17.067c-9.427,0-17.067-7.64-17.067-17.067v-34.133h34.133V439.467z M281.6,379.733
				c0,4.708-3.825,8.533-8.533,8.533H256h-51.2h-51.2h-51.2H85.333c-4.708,0-8.533-3.825-8.533-8.533v-76.8h204.8V379.733z
				 M332.8,285.867h-42.667H68.267H25.6v-204.8h307.2v42.668v102.4V285.867z M435.2,217.602h-85.333v-85.333H435.2v17.065v51.2
				V217.602z M469.333,192h-17.067v-34.133h17.067V192z M409.6,405.333h17.067V422.4H409.6V405.333z M392.533,277.335h51.2V294.4
				h-51.2V277.335z M379.733,362.948c-2.375,0-4.267-1.869-4.267-4.113v-47.369h8.5c0.011,0,0.022,0.002,0.034,0.002h68.267
				c0.011,0,0.022-0.002,0.034-0.002h8.5v47.369c0,2.245-1.891,4.113-4.267,4.113c-11.76,0-21.333,9.468-21.333,21.197v4.122
				h-34.133v-4.122C401.067,372.416,391.493,362.948,379.733,362.948z"/>
		</g>
	</g>
</g>
</svg>