<svg version="1.1" id="Layer_1" xmlns="http://www.w3.org/2000/svg" xmlns:xlink="http://www.w3.org/1999/xlink" x="0px" y="0px"
	 viewBox="0 0 512 512" style="enable-background:new 0 0 512 512;" xml:space="preserve">
<g>
	<polygon style="fill:#B4B4B4;" points="329.711,182.289 368.348,220.926 489.865,99.408 451.229,60.771 379.477,105.395 	"/>
	<polygon style="fill:#B4B4B4;" points="99.408,489.865 220.926,368.347 182.289,329.711 102.702,371.152 60.772,451.229 	"/>
</g>
<g>
	
		<rect x="285.227" y="74.886" transform="matrix(-0.7071 0.7071 -0.7071 -0.7071 705.8649 -87.961)" style="fill:#E0E0E0;" width="171.846" height="54.645"/>
	
		<rect x="74.901" y="285.233" transform="matrix(0.7071 0.7071 -0.7071 0.7071 292.3859 36.4294)" style="fill:#E0E0E0;" width="54.635" height="171.846"/>
</g>
<g>
	<path style="fill:#424242;" d="M462.296,49.704l-78.767,63.619l-98.175,113.323l11.068,11.068l33.288-33.288l38.636,38.636
		L512,99.408L462.296,49.704z M368.347,198.791l-16.501-16.501l18.371-18.371l16.501,16.501L368.347,198.791z M408.854,158.285
		l-16.501-16.501l18.37-18.37l16.501,16.501L408.854,158.285z M432.858,101.278l18.371-18.371l16.501,16.501l-18.371,18.371
		L432.858,101.278z"/>
	<path style="fill:#424242;" d="M99.408,512l143.653-143.653l-38.637-38.637l33.288-33.288l-11.067-11.067l-113.323,98.175
		l-63.619,78.767L99.408,512z M182.289,351.846l16.501,16.501l-18.371,18.371l-16.501-16.501L182.289,351.846z M141.783,392.352
		l16.501,16.501l-18.371,18.371l-16.501-16.501L141.783,392.352z M117.779,449.359L99.408,467.73l-16.501-16.502l18.371-18.37
		L117.779,449.359z"/>
</g>
<g>
	<path style="fill:#707070;" d="M412.593,0L268.94,143.653l38.636,38.636l-33.288,33.289l11.067,11.067L462.296,49.704L412.593,0z
		 M329.711,160.155l-16.501-16.501l18.371-18.371l16.501,16.501L329.711,160.155z M370.217,119.648l-16.501-16.501l18.37-18.37
		l16.501,16.501L370.217,119.648z M394.221,62.641l18.371-18.371l16.501,16.501l-18.371,18.371L394.221,62.641z"/>
	<path style="fill:#707070;" d="M182.29,307.576l-38.637-38.636L0,412.592l49.704,49.704l176.941-176.941l-11.067-11.067
		L182.29,307.576z M60.772,429.094l-16.501-16.501l18.371-18.371l16.501,16.501L60.772,429.094z M101.278,388.588l-16.501-16.501
		l18.371-18.371l16.501,16.501L101.278,388.588z M141.783,348.082l-16.502-16.502l18.371-18.371l16.502,16.502L141.783,348.082z"/>
</g>
<path style="fill:#003DA8;" d="M100.271,173.737l150.185,150.186c9.812,9.812,22.857,15.216,36.734,15.216
	c13.873,0,26.916-5.402,36.727-15.209l-80.856-108.623L136.998,137.01L100.271,173.737z"/>
<path style="fill:#2F91ED;" d="M323.923,250.456L173.737,100.27l-36.739,36.74l186.919,186.919c0.002-0.002,0.004-0.004,0.006-0.006
	C344.177,303.668,344.177,270.711,323.923,250.456z"/>
<polygon style="fill:#424242;" points="335.051,357.186 370.801,392.936 381.862,381.875 351.054,341.184 "/>
<rect x="361.691" y="333.187" transform="matrix(-0.7071 0.7071 -0.7071 -0.7071 884.2869 350.6449)" style="fill:#707070;" width="15.662" height="50.555"/>
<path style="fill:#2F91ED;" d="M293.951,346.374c0.126,13.876,5.649,26.872,15.55,36.594l15.797,15.512l36.391-37.061
	l-17.682-33.645l-35.18-18.264C299.106,319.41,293.823,332.502,293.951,346.374z"/>
<path style="fill:#63C1FF;" d="M382.294,308.835c-9.901-9.722-22.995-15.007-36.872-14.881c-13.875,0.126-26.871,5.649-36.593,15.55
	c-0.002,0.002-0.004,0.004-0.006,0.006l52.864,51.909l36.403-37.073L382.294,308.835z"/>
<polygon style="fill:#424242;" points="114.102,218.293 136.237,240.427 188.325,188.338 182.289,170.444 166.192,166.203 "/>
<rect x="166.459" y="135.572" transform="matrix(-0.7071 0.7071 -0.7071 -0.7071 453.9821 114.4011)" style="fill:#707070;" width="73.678" height="31.303"/>
</svg>