<svg version="1.1" id="Layer_1" xmlns="http://www.w3.org/2000/svg" xmlns:xlink="http://www.w3.org/1999/xlink" x="0px" y="0px"
	 viewBox="0 0 491.52 491.52" style="enable-background:new 0 0 491.52 491.52;" xml:space="preserve">
<g>
	<g>
		<path d="M0,0v378.88h112.64v112.64h266.24V378.88h112.64V0H0z M358.4,471.04H133.12V358.138
			c8.584,6.498,19.149,10.502,30.72,10.502c16.807,0,31.619-8.251,40.96-20.797c9.341,12.546,24.153,20.797,40.96,20.797
			s31.619-8.251,40.96-20.797c9.341,12.546,24.153,20.797,40.96,20.797c11.571,0,22.136-4.004,30.72-10.502V471.04z M358.4,317.44
			c0,16.94-13.78,30.72-30.72,30.72s-30.72-13.78-30.72-30.72h-20.48c0,16.94-13.78,30.72-30.72,30.72s-30.72-13.78-30.72-30.72
			h-20.48c0,16.94-13.78,30.72-30.72,30.72s-30.72-13.78-30.72-30.72v-15.98L182.714,256h126.091l49.594,45.46V317.44z
			 M205.057,235.52l40.703-37.31l40.703,37.31H205.057z M471.04,358.4h-92.16v-65.94L245.76,170.43L112.64,292.46v65.94H20.48v-256
			h450.56V358.4z M471.04,81.92H20.48V20.48h450.56V81.92z"/>
	</g>
</g>
<g>
	<g>
		<rect x="348.16" y="40.96" width="20.48" height="20.48"/>
	</g>
</g>
<g>
	<g>
		<rect x="430.08" y="40.96" width="20.48" height="20.48"/>
	</g>
</g>
<g>
	<g>
		<rect x="389.12" y="40.96" width="20.48" height="20.48"/>
	</g>
</g>
<g>
	<g>
		<rect x="51.2" y="40.96" width="245.76" height="20.48"/>
	</g>
</g>
<g>
	<g>
		<rect x="235.52" y="122.88" width="20.48" height="30.72"/>
	</g>
</g>
<g>
	<g>
		<rect x="159.531" y="154.399" transform="matrix(0.707 -0.7072 0.7072 0.707 -70.313 169.794)" width="20.48" height="30.72"/>
	</g>
</g>
<g>
	<g>
		
			<rect x="306.427" y="159.533" transform="matrix(0.7071 -0.7071 0.7071 0.7071 -25.7986 277.2631)" width="30.72" height="20.48"/>
	</g>
</g>
</svg>