<svg version="1.1" id="Layer_1" xmlns="http://www.w3.org/2000/svg" xmlns:xlink="http://www.w3.org/1999/xlink" x="0px" y="0px"
	 viewBox="0 0 512 512" style="enable-background:new 0 0 512 512;" xml:space="preserve">
<g>
	<g>
		<path d="M442.182,442.182c0-40.727,0-174.545,0-174.545C442.182,162.909,384,89.6,294.4,73.309
			c4.655-8.145,8.145-16.291,8.145-26.764C302.545,20.945,281.6,0,256,0c-25.6,0-46.545,20.945-46.545,46.545
			c0,10.473,3.491,18.618,8.146,26.764C128,89.6,69.818,162.909,69.818,267.636v139.636c0,6.982,4.655,11.636,11.636,11.636
			s11.636-4.655,11.636-11.636V267.636c0-96.582,52.364-161.745,136.145-172.218c-16.291,37.236-19.782,108.218-19.782,172.218
			v139.636c0,6.982,4.655,11.636,11.636,11.636c6.982,0,11.636-4.655,11.636-11.636V267.636
			c0-129.164,17.455-169.891,24.436-174.545c54.691,1.164,91.927,70.982,91.927,174.545v139.636c0,6.982,4.655,11.636,11.636,11.636
			s11.636-4.655,11.636-11.636V267.636c0-60.509-13.964-121.018-43.055-159.418c55.855,25.6,89.6,82.618,89.6,159.418v178.036
			c0,9.309,0,19.782,11.636,19.782h11.636c6.982,0,11.636,4.655,11.636,11.636v11.636H58.182v-11.636
			c0-6.982,4.655-11.636,11.636-11.636h11.636h23.273c6.982,0,11.636-4.655,11.636-11.636s-4.655-11.636-11.636-11.636H81.455
			H69.818c-19.782,0-34.909,15.127-34.909,34.909v23.273c0,6.982,4.655,11.636,11.636,11.636h418.909
			c6.982,0,11.636-4.655,11.636-11.636v-23.273C477.091,457.309,461.964,442.182,442.182,442.182z M256,69.818
			c-12.8,0-23.273-10.473-23.273-23.273S243.2,23.273,256,23.273s23.273,10.473,23.273,23.273S268.8,69.818,256,69.818z"/>
	</g>
</g>
<g>
	<g>
		<path d="M244.364,442.182h-81.455V267.636c0-48.873,8.145-91.927,23.273-122.182c2.327-5.818,0-12.8-4.655-15.127
			s-12.8,0-15.127,4.655c-17.455,33.745-26.764,79.127-26.764,132.655v186.182c0,6.982,4.655,11.636,11.636,11.636h93.091
			c6.982,0,11.636-4.655,11.636-11.636S251.345,442.182,244.364,442.182z"/>
	</g>
</g>
<g>
	<g>
		<path d="M384,442.182h-81.455V267.636c0-52.364-3.491-96.582-8.145-130.327c-1.164-5.818-6.982-10.473-13.964-9.309
			c-5.818,1.164-10.473,6.982-9.309,13.964c5.818,31.418,8.146,75.636,8.146,125.673v186.182c0,6.982,4.655,11.636,11.636,11.636
			H384c6.982,0,11.636-4.655,11.636-11.636S390.982,442.182,384,442.182z"/>
	</g>
</g>
</svg>