<svg version="1.1" id="Layer_1" xmlns="http://www.w3.org/2000/svg" xmlns:xlink="http://www.w3.org/1999/xlink" x="0px" y="0px"
	 viewBox="0 0 512.001 512.001" style="enable-background:new 0 0 512.001 512.001;" xml:space="preserve">
<g>
	<g>
		<path d="M345.274,154.847c-16.016,0-29.047,13.029-29.047,29.046s13.031,29.047,29.047,29.047
			c16.016,0,29.047-13.03,29.047-29.047S361.29,154.847,345.274,154.847z M345.274,197.61c-7.566,0-13.719-6.154-13.719-13.719
			s6.154-13.718,13.719-13.718c7.565,0,13.719,6.153,13.719,13.718S352.839,197.61,345.274,197.61z"/>
	</g>
</g>
<g>
	<g>
		<path d="M401.261,230.894H283.748c-4.233,0-7.664,3.431-7.664,7.664v27.366c0,4.232,3.43,7.664,7.664,7.664h117.513
			c4.233,0,7.664-3.431,7.664-7.664v-27.366C408.925,234.325,405.493,230.894,401.261,230.894z M393.597,258.259H291.412v-12.038
			h102.185V258.259z"/>
	</g>
</g>
<g>
	<g>
		<path d="M507.655,315.217c-2.991-17.946-8.633-40.904-18.798-52.43v-12.608c0-4.232-3.43-7.664-7.664-7.664h-19.011v-58.622
			c0-61.831-48.252-112.597-109.076-116.64v-3.014c0-6.03-2.735-11.605-7.504-15.295c-4.77-3.691-10.853-4.941-16.69-3.425
			l-33.808,8.766v-9.191c0-4.232-3.43-7.664-7.664-7.664H247.1c-4.232,0-7.664,3.431-7.664,7.664v29.554v12.706v45.9
			c0,0.302,0.023,0.6,0.056,0.894c-7.131,15.103-11.128,31.965-11.128,49.745v74.367H58.094h-2.811H7.664
			c-4.232,0-7.664,3.431-7.664,7.664v50.43c0,4.232,3.431,7.664,7.664,7.664h24.401c4.232,0,7.664-3.431,7.664-7.664v-15.552h15.554
			h2.811h193.343h54.572h133.104c8.239,0,15.48-4.345,19.561-10.86h13.883c-2.666,26.761-11.873,70.575-42.784,100.914
			c-11.86,11.642-18.876,23.49-20.85,35.214c-1.832,10.874,0.759,21.183,7.493,29.813c9.398,12.043,25.334,18.689,40.944,18.689
			c8.876,0,17.647-2.15,25.046-6.679c19.611-12.002,26.363-46.117,28.572-72.623C513.099,369.801,511.889,340.623,507.655,315.217z
			 M47.619,285.472H32.065v0.001c-4.232,0-7.664,3.431-7.664,7.664v15.552h-9.074v-35.103h32.292V285.472z M65.758,285.473v-11.886
			h162.608v4.143c-0.001,2.715,0.474,5.321,1.34,7.742H65.758z M254.764,52.757h25.012v5.5l-25.012,6.486V52.757z M254.764,87.354
			v-6.777l77.996-20.224c1.654-0.431,2.878,0.261,3.462,0.711c0.581,0.45,1.556,1.46,1.556,3.173v2.993
			c-33.405,2.124-63.04,18.336-83.015,42.75V87.354z M446.854,250.178v27.552c0.001,4.27-3.473,7.743-7.742,7.743H306.008h-54.572
			c-4.27,0-7.743-3.473-7.743-7.743v-93.838c0-56.012,45.57-101.581,101.581-101.581c56.012,0,101.58,45.569,101.58,101.581V250.178
			z M462.183,274.613v-16.77h11.347v16.77H462.183z M495.701,393.995c-2.668,32.003-10.431,54.171-21.299,60.823
			c-13.947,8.534-35.828,4.548-45.905-8.367c-9.367-12.003-5.101-27.863,12.011-44.659c33.119-32.505,43.737-77.346,47.032-106.594
			C494.502,319.304,498.765,357.242,495.701,393.995z"/>
	</g>
</g>
</svg>