<svg width="144.064px" height="144.064px" viewBox="0 -6.41 144.064 144.064" xmlns="http://www.w3.org/2000/svg">
  <g id="film_roll" data-name="film roll" transform="translate(-825.595 -628.744)">
    <path id="Path_4538" data-name="Path 4538" d="M825.653,741.516a2.705,2.705,0,0,1,3.149-2.1v-.005c.268.052.51.107.726.152,31.678,6.616,54.417.582,69.352-7.005a77.9,77.9,0,0,0,16.574-11.233c1.8-1.614,3.141-2.986,4.015-3.94.436-.476.757-.852.963-1.1s.275-.341.277-.339L925,719.255c-.168.215-7.776,10.038-23.663,18.128-15.867,8.093-40.05,14.361-72.861,7.491l-.059-.013c-.241-.05-.457-.1-.659-.137h-.012l-.01,0h0A2.708,2.708,0,0,1,825.653,741.516Z" fill="#483b44"/>
    <path id="Path_4539" data-name="Path 4539" d="M872.166,687.688a32.566,32.566,0,1,0,38.549-25.2A32.564,32.564,0,0,0,872.166,687.688Z" fill="#483b44"/>
    <path id="Path_4540" data-name="Path 4540" d="M839.831,680.916a65.6,65.6,0,1,0,77.655-50.766A65.6,65.6,0,0,0,839.831,680.916ZM933.138,706.7a16.406,16.406,0,1,1,19.42-12.7A16.4,16.4,0,0,1,933.138,706.7Zm-31.852,13.921a16.406,16.406,0,1,1,12.7,19.421A16.4,16.4,0,0,1,901.286,720.623Zm6.108-42.275a16.407,16.407,0,1,1,19.421-12.7A16.4,16.4,0,0,1,907.394,678.348Zm-43.7,34.819a16.407,16.407,0,1,1,12.7,19.421A16.405,16.405,0,0,1,863.7,713.167Zm-4.484-38.706a16.406,16.406,0,1,1,12.7,19.421A16.405,16.405,0,0,1,859.212,674.461Z" fill="#e2dfda"/>
    <path id="Path_4541" data-name="Path 4541" d="M897.879,693.072a6.3,6.3,0,1,0,7.452-4.874A6.294,6.294,0,0,0,897.879,693.072Z" fill="#483b44"/>
  </g>
</svg>