<svg version="1.1" id="Layer_1" xmlns="http://www.w3.org/2000/svg" xmlns:xlink="http://www.w3.org/1999/xlink" x="0px" y="0px"
	 viewBox="0 0 512 512" style="enable-background:new 0 0 512 512;" xml:space="preserve">
<circle style="fill:#EFEFEF;" cx="256" cy="256" r="256"/>
<path style="fill:#3B3B3B;" d="M424.48,107.04H87.52C74.56,107.04,64,117.6,64,130.56v24.48v0.08v231.92h384V155.12v-0.08v-24.48
	C448,117.6,437.44,107.04,424.48,107.04z"/>
<g>
	<circle style="fill:#999999;" cx="97.2" cy="131.04" r="6.72"/>
	<circle style="fill:#999999;" cx="117.28" cy="131.04" r="6.72"/>
	<circle style="fill:#999999;" cx="137.36" cy="131.04" r="6.72"/>
</g>
<g>
	<path style="fill:#FFFFFF;" d="M388.32,142.8H204.08c-6.48,0-11.76-5.28-11.76-11.76l0,0c0-6.48,5.28-11.76,11.76-11.76h184.16
		c6.48,0,11.76,5.28,11.76,11.76l0,0C400,137.52,394.72,142.8,388.32,142.8z"/>
	<path style="fill:#FFFFFF;" d="M274.08,239.04v-6.4c-3.68-0.08-7.44-1.2-9.68-2.8l1.52-4.24c2.24,1.52,5.6,2.72,9.12,2.72
		c4.48,0,7.52-2.56,7.52-6.16c0-3.44-2.48-5.6-7.12-7.52c-6.48-2.56-10.4-5.44-10.4-10.96c0-5.28,3.76-9.2,9.52-10.16v-6.4h3.92
		v6.16c3.76,0.16,6.4,1.12,8.24,2.24l-1.6,4.16c-1.36-0.8-3.92-2.16-8-2.16c-4.88,0-6.72,2.88-6.72,5.44c0,3.28,2.32,4.96,7.84,7.2
		c6.48,2.64,9.84,5.92,9.84,11.6c0,4.96-3.44,9.68-10,10.72v6.56L274.08,239.04L274.08,239.04z"/>
	<polygon style="fill:#FFFFFF;" points="230.48,275.92 202,200.32 181.04,200.32 181.04,193.44 206.72,193.44 236.96,273.44 	"/>
</g>
<polygon style="fill:#00C454;" points="312.72,308.88 217.84,308.88 199.44,248.24 331.12,248.24 "/>
<g>
	<circle style="fill:#FFFFFF;" cx="235.52" cy="333.28" r="14.96"/>
	<circle style="fill:#FFFFFF;" cx="297.52" cy="333.28" r="14.96"/>
</g>
</svg>