<svg version="1.1" id="Layer_1" xmlns="http://www.w3.org/2000/svg" xmlns:xlink="http://www.w3.org/1999/xlink" x="0px" y="0px"
	 viewBox="0 0 512 512" style="enable-background:new 0 0 512 512;" xml:space="preserve">
<path style="fill:#3949AB;" d="M418.133,279.467c-33.195,13.056-55.552,44.629-64.256,79.957
	c-94.379,31.488-187.136,31.232-300.715-0.768c-29.952-7.253-36.096-18.944-36.096-34.389c0-50.261,18.005-85.333,34.133-85.333
	h136.533c4.437,0,8.021,3.328,8.533,7.68l-16.811,67.072c-0.597,2.389-0.085,4.949,1.365,6.997c1.451,2.048,3.669,3.328,6.144,3.584
	c79.531,6.997,127.147-4.352,149.845-35.755c25.685-35.669,18.773-95.829-21.76-189.525c-0.085-0.085-0.171-0.171-0.256-0.341
	l4.011-1.707c4.181,7.936,12.544,14.763,23.979,20.053c6.741,22.699,17.664,33.707,32.512,48.469l2.645,2.731
	C409.429,199.68,417.877,222.891,418.133,279.467z"/>
<g>
	<path style="fill:#FFFFFF;" d="M494.933,409.6c0,23.552-19.115,42.667-42.667,42.667c-23.552,0-42.667-19.115-42.667-42.667
		c0-9.813,3.499-18.773,9.131-26.027l27.051,31.573c1.707,1.963,4.096,2.987,6.485,2.987c1.963,0,3.925-0.683,5.547-2.048
		c3.584-3.072,4.011-8.448,0.939-12.032l-27.051-31.573c6.144-3.413,13.056-5.547,20.565-5.547
		C475.819,366.933,494.933,386.048,494.933,409.6z"/>
	<path style="fill:#FFFFFF;" d="M128,409.6c0,23.552-19.115,42.667-42.667,42.667S42.667,433.152,42.667,409.6
		c0-12.117,5.205-23.723,14.251-31.829l0.427-0.341c11.349,3.072,22.613,5.888,33.621,8.363l-12.715,19.115
		c-2.645,3.84-1.536,9.216,2.389,11.776c1.451,1.024,3.072,1.451,4.693,1.451c2.731,0,5.461-1.365,7.083-3.84l16.555-24.832
		c5.205,1.024,10.411,1.963,15.531,2.816l1.024,3.072C127.147,399.957,128,404.736,128,409.6z"/>
</g>
<path d="M452.267,349.867c-11.776,0-22.699,3.499-31.915,9.387l-12.8-14.933c21.504-16.299,48.725-20.821,94.208-11.691
	c2.56,0.512,5.12-0.171,7.083-1.792c2.048-1.621,3.157-4.011,3.157-6.571c0-23.211-26.624-51.2-59.733-51.2
	c-5.973,0-11.605,0.683-17.152,1.707c-0.683-58.197-10.923-84.565-45.056-118.699l-2.731-2.645
	c-11.008-11.008-18.432-18.432-23.723-29.525c11.179,2.645,23.808,4.096,37.461,4.096c4.693,0,8.533-3.84,8.533-8.533V51.2
	c0-4.693-3.84-8.533-8.533-8.533c-44.544,0-79.019,15.36-84.48,36.693l-55.381,23.723c-4.352,1.877-6.4,6.912-4.523,11.179
	c1.365,3.243,4.523,5.205,7.851,5.205c1.109,0,2.304-0.256,3.328-0.683l31.403-13.483c0.085,0.171,0,0.341,0.085,0.512
	c37.461,86.357,45.141,142.848,23.552,172.715c-17.835,24.832-57.515,34.304-124.416,29.525l14.592-58.539
	c0.171-0.683,0.256-1.365,0.256-2.048c0-5.973-2.133-11.349-5.547-15.701c3.413-3.755,5.547-8.704,5.547-14.165v-8.533
	c0-11.776-9.557-21.333-21.333-21.333H55.467c-11.776,0-21.333,9.557-21.333,21.333v8.533c0,3.072,0.683,5.973,1.792,8.533
	C14.677,238.507,0,276.565,0,324.267c0,29.611,20.053,41.899,38.827,48.043C30.379,382.805,25.6,395.947,25.6,409.6
	c0,32.939,26.795,59.733,59.733,59.733s59.733-26.795,59.733-59.733c0-4.949-0.768-9.728-1.963-14.507
	c23.552,3.157,46.421,4.864,68.864,4.864c47.531,0,93.013-7.253,138.752-21.675c-0.512,4.779-0.853,9.472-0.853,14.251
	c0,3.84,2.56,7.168,6.229,8.192c0.768,0.256,1.536,0.341,2.304,0.341c2.901,0,5.717-1.536,7.339-4.096
	c9.984-16.555,19.2-30.293,29.184-41.131l12.459,14.507c-9.216,10.496-14.848,24.235-14.848,39.253
	c0,32.939,26.795,59.733,59.733,59.733S512,442.539,512,409.6S485.205,349.867,452.267,349.867z M392.533,59.989V76.8h-17.067
	c-4.693,0-8.533,3.84-8.533,8.533s3.84,8.533,8.533,8.533h17.067v16.811C355.84,108.8,332.8,95.061,332.8,85.333
	S355.84,61.867,392.533,59.989z M51.2,209.067c0-2.304,1.963-4.267,4.267-4.267H192c2.304,0,4.267,1.963,4.267,4.267v8.533
	c0,2.304-1.963,4.267-4.267,4.267H55.467c-2.304,0-4.267-1.963-4.267-4.267V209.067z M85.333,452.267
	c-23.552,0-42.667-19.115-42.667-42.667c0-12.117,5.205-23.723,14.251-31.829l0.427-0.341c11.349,3.072,22.613,5.888,33.621,8.363
	l-12.715,19.115c-2.645,3.84-1.536,9.216,2.389,11.776c1.451,1.024,3.072,1.451,4.693,1.451c2.731,0,5.461-1.365,7.083-3.84
	l16.555-24.832c5.205,1.024,10.411,1.963,15.531,2.816l1.024,3.072c1.621,4.608,2.475,9.387,2.475,14.251
	C128,433.152,108.885,452.267,85.333,452.267z M353.877,359.424c-94.379,31.488-187.136,31.232-300.715-0.768
	c-29.952-7.253-36.096-18.944-36.096-34.389c0-50.261,18.005-85.333,34.133-85.333h136.533c4.437,0,8.021,3.328,8.533,7.68
	l-16.811,67.072c-0.597,2.389-0.085,4.949,1.365,6.997c1.451,2.048,3.669,3.328,6.144,3.584
	c79.531,6.997,127.147-4.352,149.845-35.755c25.685-35.669,18.773-95.829-21.76-189.525c-0.085-0.085-0.171-0.171-0.256-0.341
	l4.011-1.707c4.181,7.936,12.544,14.763,23.979,20.053c6.741,22.699,17.664,33.707,32.512,48.469l2.645,2.731
	c31.488,31.488,39.936,54.699,40.192,111.275C384.939,292.523,362.581,324.096,353.877,359.424z M372.565,355.84
	c11.349-36.096,39.424-65.707,79.701-65.707c18.432,0,33.365,11.861,39.595,23.381C429.227,304.128,397.824,323.157,372.565,355.84z
	 M452.267,452.267c-23.552,0-42.667-19.115-42.667-42.667c0-9.813,3.499-18.773,9.131-26.027l27.051,31.573
	c1.707,1.963,4.096,2.987,6.485,2.987c1.963,0,3.925-0.683,5.547-2.048c3.584-3.072,4.011-8.448,0.939-12.032l-27.051-31.573
	c6.144-3.413,13.056-5.547,20.565-5.547c23.552,0,42.667,19.115,42.667,42.667C494.933,433.152,475.819,452.267,452.267,452.267z"/>
<path style="fill:#3949AB;" d="M366.933,85.333c0,4.693,3.84,8.533,8.533,8.533h17.067v16.811
	C355.84,108.8,332.8,95.061,332.8,85.333s23.04-23.467,59.733-25.344V76.8h-17.067C370.773,76.8,366.933,80.64,366.933,85.333z"/>
<path style="fill:#283593;" d="M491.861,313.515c-62.635-9.387-94.037,9.643-119.296,42.325
	c11.349-36.096,39.424-65.707,79.701-65.707C470.699,290.133,485.632,301.995,491.861,313.515z"/>
<path style="fill:#717272;" d="M196.267,209.067v8.533c0,2.304-1.963,4.267-4.267,4.267H55.467c-2.304,0-4.267-1.963-4.267-4.267
	v-8.533c0-2.304,1.963-4.267,4.267-4.267H192C194.304,204.8,196.267,206.763,196.267,209.067z"/>
<g>
	<path style="fill:#F4F4F4;" d="M477.756,375.578c5.359,7.125,8.644,15.889,8.644,25.489c0,23.552-19.115,42.667-42.667,42.667
		c-9.6,0-18.364-3.285-25.489-8.644c7.782,10.368,20.07,17.178,34.022,17.178c23.552,0,42.667-19.115,42.667-42.667
		C494.933,395.648,488.124,383.36,477.756,375.578z"/>
	<path style="fill:#F4F4F4;" d="M125.525,395.349l-1.024-3.072c-2.099-0.35-4.25-0.777-6.383-1.161
		c0.794,3.268,1.348,6.579,1.348,9.95c0,23.552-19.115,42.667-42.667,42.667c-9.6,0-18.364-3.285-25.489-8.644
		c7.782,10.368,20.07,17.178,34.022,17.178c23.552,0,42.667-19.115,42.667-42.667C128,404.736,127.147,399.957,125.525,395.349z"/>
</g>
<path style="fill:#3949AB;" d="M344.969,123.409c-0.759-2.057-1.51-4.139-2.185-6.417c-0.811-0.375-1.485-0.811-2.261-1.203
	C341.897,118.494,343.398,121.003,344.969,123.409z"/>
<path style="fill:#283593;" d="M400.478,195.507c6.613,17.203,8.994,37.547,9.122,66.893
	c-33.195,13.056-55.552,44.629-64.256,79.957c-94.379,31.488-187.136,31.232-300.715-0.768c-13.244-3.209-21.82-7.287-27.281-12.169
	c1.451,12.902,9.293,22.81,35.814,29.235c113.579,32,206.336,32.256,300.715,0.768c8.704-35.328,31.061-66.901,64.256-79.957
	C417.954,239.915,413.739,216.67,400.478,195.507z"/>
</svg>